<svg width="230" height="43" viewBox="0 0 230 43" fill="none" xmlns="http://www.w3.org/2000/svg">
<path d="M11.8093 7.59678C11.8816 6.89141 11.9094 6.82983 11.9707 6.75705C12.1154 6.54992 12.338 6.41556 12.5884 6.37637C12.8945 6.31479 13.2061 6.25881 13.5234 6.2756C14.3136 6.2924 15.0927 6.2756 15.883 6.2756C15.9832 6.27 16.0833 6.2812 16.1779 6.32039C16.267 6.36517 16.3672 6.43795 16.4729 6.33718C16.5007 6.30919 16.5898 6.32039 16.6176 6.35398C16.6899 6.40996 16.7623 6.38197 16.8402 6.38197C16.8847 6.38197 16.9292 6.32039 16.9849 6.38197C17.0016 6.39876 17.0851 6.33718 17.1463 6.33718C17.2131 6.33158 17.2854 6.33158 17.3522 6.33718H17.7028C17.7752 6.33718 17.8475 6.36517 17.9254 6.36517C17.9922 6.36517 18.0645 6.35398 18.1313 6.33718H18.5988C18.6489 6.34838 18.699 6.35958 18.7435 6.38197C18.7435 6.38197 18.7713 6.35398 18.788 6.35398H20.1348C20.1515 6.35398 20.1793 6.38197 20.1904 6.39876C20.3908 6.32599 20.6078 6.32599 20.8082 6.39876C20.836 6.38197 20.8805 6.35398 20.9084 6.34278L20.9696 6.39876C21.1031 6.30919 21.2478 6.37077 21.3925 6.35398C21.5261 6.33718 21.6541 6.38197 21.8043 6.30919L21.9824 6.39876C22.1717 6.34278 22.3664 6.298 22.539 6.38197C22.589 6.35958 22.6447 6.34838 22.7003 6.33718H23.1956C23.2346 6.33158 23.2791 6.34278 23.3125 6.36517C23.4238 6.42116 23.5518 6.42675 23.6631 6.38197C23.7967 6.33718 23.9247 6.32039 24.0304 6.36517C24.1195 6.40996 24.164 6.2756 24.2196 6.34838C24.2753 6.42116 24.3643 6.39316 24.4367 6.39316C24.509 6.39316 24.5981 6.42116 24.6426 6.34838C24.7762 6.36517 24.9209 6.30359 25.0377 6.39316C25.1101 6.45475 25.1991 6.32039 25.2715 6.39316C25.316 6.33718 25.3716 6.34838 25.4328 6.34838H27.3695C27.4308 6.35398 27.4864 6.35958 27.5476 6.37637C27.5476 6.37637 27.5643 6.34838 27.5754 6.34838C27.7535 6.36517 27.9261 6.30359 28.1041 6.39316C28.1765 6.43795 28.2822 6.37637 28.3657 6.37637C28.5104 6.35958 29.0113 6.33158 29.1448 6.35958C29.1615 6.35958 29.1727 6.38757 29.1894 6.38757C29.3062 6.34278 29.54 6.33158 29.6735 6.33158C29.9351 6.34838 30.1855 6.33158 30.4526 6.33158C30.5139 6.33158 30.5695 6.35958 30.6307 6.35958C30.6808 6.35958 30.7309 6.34838 30.7754 6.33158C30.7977 6.32039 30.8199 6.30919 30.8478 6.30359C30.8979 6.32039 30.9424 6.33158 30.9925 6.33158C31.2151 6.33158 31.4154 6.34838 31.638 6.33158C31.7382 6.33158 31.8272 6.38757 31.933 6.34838C32.022 6.32039 32.1389 6.34838 32.2391 6.34838H33.8641C33.9198 6.34838 34.0088 6.37637 34.0533 6.30359C34.1535 6.35958 34.2592 6.42116 34.3928 6.51073H34.6711L34.966 6.36517C35.1107 6.38197 35.2888 6.32039 35.4502 6.40996C35.4669 6.42675 35.5114 6.39316 35.5392 6.39316C35.6895 6.33158 35.862 6.33718 36.0067 6.40996C36.0568 6.39317 36.1013 6.37637 36.1514 6.36517C36.2126 6.33718 36.2683 6.43795 36.3406 6.38197C36.3851 6.33718 36.4853 6.36517 36.5744 6.36517H37.5427C37.6317 6.34838 37.7208 6.39317 37.8043 6.32039C37.8321 6.2924 37.9378 6.34838 38.0102 6.36517C38.0825 6.36517 38.1549 6.26441 38.2161 6.33718C38.2884 6.39316 38.3329 6.26441 38.4053 6.35398C38.4331 6.38197 38.5389 6.37077 38.5945 6.38197C38.6669 6.39876 38.7392 6.33718 38.8004 6.33718C39.0731 6.32039 39.3458 6.32039 39.6185 6.33718H39.7799C39.8689 6.33718 39.9691 6.2924 40.0415 6.38197C40.0582 6.39876 40.1305 6.38197 40.175 6.35398C40.2251 6.31479 40.303 6.32039 40.342 6.37077C40.342 6.37637 40.3475 6.37637 40.3475 6.38197C40.3921 6.36517 40.4199 6.33718 40.4644 6.33718H41.4049C41.4773 6.33718 41.5385 6.40996 41.6275 6.35398C41.6832 6.30919 41.7889 6.33718 41.878 6.35398C41.9336 6.35398 41.9781 6.38197 42.0672 6.39876C42.0839 6.39876 42.1117 6.37077 42.1562 6.35398C42.1841 6.37077 42.2008 6.39876 42.2286 6.39876C42.3566 6.34278 42.5068 6.33718 42.6404 6.38197C42.7573 6.42675 42.902 6.42675 43.0634 6.43795C43.1246 6.40996 43.1802 6.38197 43.2414 6.34838C43.3861 6.42116 43.5475 6.40436 43.7089 6.37637C43.7479 6.35958 43.7868 6.34838 43.8258 6.34838C44.1764 6.34838 44.5159 6.32039 44.8665 6.36517C45.0279 6.38197 45.1726 6.40996 45.334 6.40996C45.3952 6.49953 45.4675 6.38197 45.4953 6.40996C45.5677 6.47154 45.64 6.45475 45.718 6.45475C45.7903 6.47154 45.8793 6.39317 45.896 6.40996C45.9851 6.48274 46.0407 6.36517 46.1186 6.40996L46.2967 6.49953L46.3413 6.45475L46.3969 6.51633C46.4303 6.49393 46.4637 6.47154 46.4971 6.45475H46.5249C46.5973 6.48834 46.6696 6.52192 46.7475 6.54432C46.8477 6.57231 46.9534 6.67867 47.0703 6.56111H47.7437C47.7715 6.56111 47.7882 6.6059 47.816 6.61709C47.8494 6.5947 47.8772 6.57231 47.9051 6.54432C48.0665 6.6059 48.2 6.72346 48.328 6.82423C48.4672 6.9138 48.5673 7.04816 48.623 7.20491C48.623 7.2217 48.6063 7.2329 48.5785 7.27769C48.6063 7.31687 48.6452 7.35046 48.6786 7.37845C48.6786 7.39525 48.6953 7.40645 48.6953 7.42324C48.6786 7.5464 48.6953 7.67516 48.751 7.79272C48.8066 7.92708 48.8122 8.07823 48.7677 8.21819C48.7232 8.33575 48.7398 8.47011 48.751 8.59887C48.7677 8.71643 48.7065 8.83399 48.7955 8.95156C48.8233 8.97955 48.7788 9.05232 48.7788 9.1419C48.8066 9.20348 48.8066 9.20348 48.8066 9.36023L48.8957 9.4498C48.8678 9.51138 48.84 9.56736 48.8066 9.62894C48.8289 9.69052 48.84 9.7577 48.8512 9.81928C48.8678 9.89206 48.8345 9.98163 48.8512 10.0544C48.879 10.1272 48.7621 10.1552 48.8233 10.2336C48.8678 10.2951 48.84 10.3791 48.84 10.4575V10.6478C48.9402 10.7822 49.0905 10.7934 49.2185 10.7822C49.352 10.6478 49.5134 10.6198 49.6859 10.6366C49.7082 10.659 49.7249 10.6814 49.7416 10.7094C49.8418 10.7822 49.9197 10.6478 49.992 10.7262C50.0477 10.6814 50.1256 10.6198 50.1979 10.5638C50.2146 10.6198 50.2146 10.6646 50.2258 10.7262C50.287 10.7094 50.3259 10.6366 50.3871 10.7262C50.4261 10.7094 50.4651 10.687 50.504 10.6646C50.5318 10.7262 50.5652 10.827 50.6042 10.827C50.7378 10.827 50.6487 10.9277 50.6932 10.9725C50.7656 11.0453 50.7378 11.1181 50.7099 11.2076C50.6821 11.3028 50.6821 11.4092 50.7099 11.5043C50.7378 11.5939 50.7544 11.6499 50.7099 11.7395C50.671 11.7787 50.6765 11.8458 50.7155 11.8794C50.7266 11.8906 50.7378 11.8962 50.7544 11.9018C50.7378 11.9914 50.6654 12.0362 50.7266 12.1369C50.799 12.2825 50.7544 12.4616 50.7433 12.652L50.7711 12.68C50.6988 12.7248 50.6376 12.7695 50.5485 12.8255C50.5652 12.8871 50.5764 12.9431 50.5931 13.0047C50.2257 13.0215 49.8473 13.139 49.4633 13.0215C49.2852 13.1222 49.0682 13.0215 48.8623 13.0775C48.8178 13.3406 48.9068 13.6093 48.7899 13.8724C48.8289 13.906 48.8678 13.934 48.9068 13.962C48.879 14.0627 48.9346 14.1691 48.8456 14.2419L48.9458 14.3427C48.9179 14.5946 49.0181 14.8745 48.8567 15.1264C48.8734 15.1712 48.8845 15.216 48.8845 15.2608V15.703C48.8845 15.7926 48.8678 15.8822 48.9291 15.9661C48.9736 16.0389 48.9569 16.1565 48.9012 16.2628C48.8567 16.3468 48.8623 16.4476 48.9179 16.526C48.9012 16.6155 48.8734 16.7051 48.8901 16.7779C48.9513 17.1138 48.9513 17.1474 48.8901 17.4721C48.8623 17.6064 48.8901 17.7688 48.9068 17.8975V17.9703C48.8957 18.0655 48.8901 18.155 48.8901 18.2502C48.8901 18.3398 48.8623 18.4294 48.8901 18.5133C48.9179 18.5973 48.8734 18.6589 48.8901 18.7317V19.2355C48.9012 19.3083 48.9179 19.3811 48.9346 19.4594C48.9346 19.4594 48.8901 19.4874 48.8901 19.5042C48.9179 19.7114 48.8345 19.9297 48.9346 20.1368C48.9068 20.2992 48.9625 20.4727 48.9068 20.6407C48.8567 20.7918 48.8678 20.9542 48.9346 21.0997C48.8512 21.2453 48.8567 21.43 48.9513 21.57C48.8178 21.7043 48.9346 21.8051 49.007 21.9227L48.8901 22.1578C48.9179 22.2753 48.9513 22.4545 48.9903 22.6616C48.9569 22.6728 48.9291 22.6896 48.9012 22.7064V23.283C49.0626 23.4454 49.2797 23.2662 49.4411 23.4006C49.8195 23.283 50.2035 23.4006 50.5819 23.4174C50.5652 23.4734 50.5541 23.5349 50.5374 23.5965C50.6097 23.6525 50.6821 23.6973 50.76 23.7421L50.7155 23.7869C50.7767 23.9044 50.7322 24.022 50.76 24.1396C50.7878 24.2571 50.6153 24.3747 50.76 24.4922C50.7433 24.565 50.6598 24.6266 50.7322 24.7274C50.76 24.7889 50.76 24.8561 50.7322 24.9177C50.6877 25.0241 50.6877 25.1472 50.7322 25.2592C50.7767 25.3768 50.7322 25.4831 50.6153 25.6119C50.5708 25.6623 50.5374 25.7239 50.5151 25.791C50.4818 25.7686 50.4484 25.7518 50.415 25.7295C50.3704 25.7742 50.3148 25.8022 50.2536 25.7015C50.2369 25.7574 50.2369 25.8022 50.2258 25.8638H50.2035C50.1757 25.847 50.1478 25.8358 50.1144 25.8358C50.0699 25.819 50.0699 25.6903 49.9698 25.7742C49.9531 25.791 49.8696 25.7462 49.8251 25.7183C49.7861 25.7518 49.7527 25.791 49.7249 25.8358H49.5023C49.4132 25.791 49.3242 25.7462 49.224 25.6903H49.0181C49.0014 25.7966 48.9903 25.8974 48.9625 26.0318C48.9791 26.0597 49.0626 26.1325 48.9458 26.2221C48.9736 26.2837 49.007 26.3453 49.0459 26.4012C48.9847 26.4908 48.9458 26.5916 49.0459 26.7091C48.9458 26.8435 49.0181 27.0058 48.9847 27.1514C48.9402 27.297 49.1294 27.4313 49.0014 27.5769C49.1628 27.7392 48.8567 27.9464 49.0571 28.1087C48.9847 28.2431 48.968 28.3606 49.0404 28.4614C49.0237 28.5342 49.007 28.6069 48.9958 28.6797C49.007 28.8813 48.968 29.0828 48.8957 29.2675C48.8678 29.3235 48.8345 29.3795 48.7955 29.4299C48.7677 29.4747 48.7398 29.5306 48.6953 29.609C48.5785 29.7042 48.456 29.7938 48.328 29.8721C48.1833 29.9449 48.0331 29.9729 47.8717 30.0345C47.855 30.0177 47.8272 30.0065 47.816 29.9785C47.7993 29.9953 47.7882 30.0233 47.7604 30.0233C47.5712 30.0513 47.3819 29.9785 47.1872 30.0681C47.0703 29.9337 46.9646 30.1129 46.8366 30.0849C46.7141 30.0625 46.5917 30.0625 46.4693 30.0849C46.3969 30.0849 46.3079 30.1577 46.2633 30.1297C46.191 30.0737 46.1186 30.0849 46.0407 30.0849H45.2282C45.1559 30.0401 45.0835 30.0121 45.0501 29.9953C44.9166 30.0121 44.8164 30.0233 44.7162 30.0401C44.5103 30.0569 44.2933 30.0121 44.0874 30.0849C44.0428 30.1017 43.9983 30.0681 43.9427 30.0569C43.8258 30.0289 43.7089 30.0121 43.6087 30.0849C43.4919 30.0233 43.3527 30.0177 43.2303 30.0681C43.1301 30.0961 43.0244 30.1129 42.9242 30.0401C42.8964 30.0569 42.8797 30.0681 42.8519 30.0849C42.7573 30.0625 42.6571 30.0457 42.5569 30.0401H40.7315C40.6759 30.0401 40.598 30.0681 40.5423 29.9953C40.4533 30.0961 40.3364 30.0401 40.2195 30.0401C40.1082 30.0457 39.9969 30.0457 39.8801 30.0401C39.7799 30.0401 39.6575 30.0121 39.5573 30.0681C39.5239 30.0513 39.4905 30.0345 39.4571 30.0233C39.4237 30.0065 39.3903 30.0009 39.3569 29.9953C39.3013 30.0121 39.2401 30.0233 39.1789 30.0233H38.4331C38.3886 30.0233 38.3441 30.0513 38.3163 30.0513C38.1716 30.0345 38.0547 30.0065 37.8933 29.9897C37.5983 30.0513 37.2923 30.0457 36.9973 29.9729L36.9528 30.0177C36.8359 29.8833 36.7302 30.0625 36.6022 30.0177C36.4853 29.9897 36.3517 30.0625 36.2349 29.9729C36.1347 30.0457 36.0123 30.0009 35.901 30.0177H35.5225C35.4057 30.0177 35.2721 30.0345 35.1274 29.9897C35.1274 30.0065 35.0996 30.0345 35.0718 30.0793C34.8658 30.0625 34.6599 30.1073 34.454 30.0345C34.3928 30.0513 34.326 30.0681 34.2648 30.0793H32.6843C32.6286 30.0793 32.5674 30.0961 32.5229 30.0345C32.5006 30.0177 32.4728 30.0177 32.4505 30.0345C32.3059 30.1353 32.1723 30.0513 32.0276 30.0345C31.9107 30.0177 31.8106 30.0625 31.6937 30.0793C31.51 30.0849 31.3319 30.0737 31.1539 30.0345C30.9758 30.0065 30.8033 30.0793 30.6252 29.9897C30.5361 30.0513 30.436 30.0345 30.3469 30.0345C30.2857 30.0345 30.2412 30.0065 30.1577 29.9897C30.1354 30.0121 30.1132 30.0289 30.0853 30.0513L29.9685 29.9897C29.9128 30.0793 29.8349 29.9729 29.7459 30.0065C29.6123 30.0513 29.4676 30.0345 29.3229 30.0345C29.2673 30.0233 29.2116 30.0065 29.1615 29.9897C29.1448 30.0065 29.1337 30.0513 29.1059 30.0345C28.9278 30.0177 28.7553 30.0961 28.5772 29.9897C28.5382 29.9785 28.4937 29.9841 28.4603 30.0065C28.3156 30.0513 28.2989 30.0513 28.1542 29.9897C27.9817 30.0569 27.7925 30.0681 27.6144 30.0177C27.5699 30.0009 27.5254 29.9897 27.4975 30.0009C27.1581 30.0737 27.1135 30.0737 26.7963 30.0009C26.7518 29.9953 26.7073 29.9953 26.6628 30.0009C26.6516 30.0401 26.6294 30.0849 26.6015 30.1185C26.5515 30.0849 26.5014 30.0457 26.4568 30.0009C26.4401 30.0177 26.4179 30.0345 26.4012 30.0457C26.3734 30.0177 26.3455 29.9897 26.3288 29.9561C26.2621 29.9673 26.2008 29.9841 26.1396 30.0121C26.1229 30.0289 26.1229 30.0569 26.1118 30.0849C25.9949 30.0401 25.8781 29.9673 25.7445 29.9953C25.6165 30.0177 25.4885 30.0513 25.3661 30.0961C25.3494 30.0681 25.3327 30.0401 25.3215 30.0065C25.2325 30.0233 25.1769 30.0345 25.0989 30.0513C25.0989 29.9953 25.0822 29.9505 25.0822 29.8889C24.8763 29.8889 24.7149 29.9897 24.5257 30.0961C24.292 30.1688 24.0249 29.9617 23.7633 30.0793C23.7466 30.0793 23.7355 30.0513 23.7188 30.0345C23.7021 30.0513 23.6743 30.0625 23.6576 30.0905C23.6297 30.0737 23.5852 30.0345 23.5574 30.0345C23.4572 30.0513 23.3515 30.0065 23.2624 30.0625C23.2346 30.0905 23.1456 30.0457 23.0565 30.0345C22.923 30.0905 22.2329 30.1073 22.0882 30.0177C21.988 30.0793 21.988 30.0793 21.8711 30.0345L21.693 30.1241C21.6374 30.1129 21.5817 30.0905 21.5317 30.0625C21.4704 30.0345 21.4148 30.1353 21.3424 30.0793C21.2979 30.0345 21.1977 30.0793 21.1087 30.0793H20.875C20.8193 30.0793 20.7414 30.0513 20.6857 30.1241C20.6691 30.1409 20.6245 30.1409 20.6134 30.1409C20.5244 30.0513 20.4353 30.1856 20.3184 30.1129C20.2127 30.0513 20.0736 30.0625 19.9845 30.1409C19.9344 30.1185 19.8788 30.1017 19.8231 30.0961C19.6172 30.0961 19.428 30.0681 19.2221 30.0961C19.0997 30.1185 18.9772 30.1353 18.8548 30.1409C18.8103 30.1409 18.7546 30.0961 18.7212 30.1129C18.66 30.1744 18.6044 30.1409 18.5432 30.1409C18.4986 30.1409 18.4541 30.0961 18.4096 30.0961C18.3484 30.0961 18.276 30.0681 18.2204 30.1241C18.1758 30.1521 18.1202 30.1577 18.0757 30.1409C18.0312 30.1241 17.9866 30.0961 17.931 30.1409C17.8865 30.1688 17.8419 30.0401 17.7974 30.1409C17.7139 30.1073 17.6249 30.0905 17.5359 30.0849C17.4635 30.0849 17.3745 30.1129 17.2854 30.0569C17.2409 30.0289 17.1852 30.0233 17.1407 30.0401C16.8903 30.1297 16.6399 30.0121 16.3783 30.0233C16.1112 30.0457 15.8385 30.0457 15.5713 30.0233H15.3209C15.2207 30.0233 15.115 30.0401 14.9981 29.9785C14.9146 29.9561 14.8312 29.9561 14.7477 29.9785C14.6753 29.9785 14.6141 30.0065 14.5418 30.0065C14.4527 30.0065 14.3637 29.9617 14.2913 29.9897C14.1467 30.0457 13.9964 30.0177 13.8517 30.0345C13.7515 30.0513 13.6625 29.9729 13.5456 30.0065C13.4566 30.0233 13.3397 29.9897 13.2395 29.9785C13.1394 29.9673 13.0169 30.0233 12.9167 29.9337C12.7387 30.0513 12.6107 29.8162 12.4493 29.8609C12.3157 29.7602 12.1877 29.6706 12.0541 29.5642C11.9595 29.4859 11.8928 29.3739 11.8649 29.2563C11.8204 29.1108 11.7314 28.9764 11.7314 28.8141C11.7314 28.7973 11.7147 28.7693 11.7314 28.7581C11.8037 28.6685 11.7147 28.6125 11.7035 28.523C11.7202 28.5062 11.7314 28.4782 11.7481 28.467L11.6924 28.4054C11.7091 28.3606 11.7369 28.3158 11.7481 28.271C11.7369 28.2375 11.7147 28.2095 11.6924 28.1815C11.7202 28.1815 11.7369 28.1647 11.7814 28.1647C11.7536 28.0471 11.7369 27.9296 11.7091 27.7784V27.7616C11.7981 27.672 11.7091 27.5377 11.7648 27.4369C11.826 27.3473 11.8093 27.2578 11.7648 27.157C11.7369 27.0674 11.7481 26.9499 11.7481 26.8491C11.7481 26.7875 11.7926 26.7427 11.7926 26.6867C11.7926 26.6308 11.7481 26.586 11.7481 26.5244C11.7481 26.4964 11.7759 26.4684 11.7759 26.4348C11.7926 26.39 11.7981 26.3397 11.7926 26.2893C11.7592 26.2165 11.7425 26.1325 11.7481 26.0541V25.7742C11.6312 25.7742 11.4976 25.7295 11.3808 25.8022C11.3641 25.8022 11.3529 25.7854 11.3195 25.7854C11.2361 25.7798 11.1526 25.7798 11.0691 25.7854C10.9244 25.8414 10.763 25.8022 10.6128 25.8134C10.5404 25.7239 10.4347 25.7854 10.3623 25.7686C10.3178 25.7071 10.2733 25.6511 10.2455 25.6063C10.1954 25.6287 10.1453 25.6511 10.1008 25.6791C9.9672 25.3824 9.91155 24.9737 10.0117 24.7833C9.91155 24.6042 9.98389 24.4139 9.9672 24.2347C9.9672 24.1619 9.9505 24.0724 10.0284 24.0164C9.92268 23.8708 9.95607 23.7085 10.0451 23.5461C10.1342 23.5182 10.2232 23.5014 10.2955 23.4734C10.3846 23.4006 10.4569 23.339 10.5126 23.283C10.6295 23.3726 10.7296 23.339 10.8632 23.2998C10.9634 23.4454 11.1248 23.227 11.275 23.3166C11.4197 23.3894 11.57 23.2438 11.7592 23.3166C11.7314 23.283 11.7091 23.2494 11.6868 23.2102C11.7147 23.0759 11.787 22.9303 11.6868 22.796V22.7848C11.7091 22.7176 11.7202 22.6504 11.7314 22.5776C11.7314 22.5049 11.659 22.4601 11.7035 22.3705C11.7314 22.3257 11.6868 22.2362 11.6868 22.1802V21.3236C11.6868 21.2677 11.6701 21.2061 11.7314 21.1613C11.6813 21.1221 11.6646 21.0549 11.6868 20.9989C11.7035 20.9094 11.6868 20.8198 11.7314 20.7358C11.7759 20.6407 11.7759 20.5343 11.7314 20.4391C11.6868 20.3496 11.6701 20.232 11.7035 20.176C11.7759 20.0584 11.7202 19.9241 11.7926 19.8233C11.8482 19.7226 11.7648 19.605 11.7035 19.4986C11.7926 19.3363 11.7592 19.1627 11.7481 18.9836C11.7035 18.7317 11.6924 18.7317 11.7481 18.5245C11.7592 18.4741 11.7648 18.4238 11.7648 18.379C11.7091 18.0711 11.7091 18.0711 11.7648 17.7912V17.7632C11.7814 17.5001 11.7926 17.2313 11.826 16.9794C11.826 16.9234 11.7369 16.8786 11.8093 16.8003C11.826 16.7835 11.7814 16.6995 11.7814 16.6547C11.7814 16.6099 11.826 16.5484 11.8093 16.5372C11.7648 16.4812 11.7814 16.4196 11.7814 16.358V16.1957C11.7703 16.1397 11.7536 16.0893 11.7369 16.0333C11.7592 15.9717 11.7759 15.9102 11.7814 15.843V15.2664C11.7814 15.2104 11.7926 15.1544 11.8093 15.104C11.7926 15.0144 11.7814 14.9305 11.7814 14.8409V13.1278C11.6201 13.111 11.4754 13.0998 11.3251 13.0998C11.3084 13.0998 11.2973 13.0886 11.2973 13.0719C10.93 13.1894 10.5627 13.0886 10.1842 13.0551C10.2065 13.0047 10.2288 12.9487 10.2399 12.8927C10.1675 12.8311 10.0952 12.7919 10.0173 12.7304C10.0618 12.5232 9.97276 12.3049 10.0729 12.0978C9.95607 11.9802 10.0896 11.8346 10.0284 11.6835C10.0006 11.6107 9.98389 11.4932 10.0729 11.4204C9.98389 11.3476 10.0284 11.2412 10.0284 11.1573C10.0284 11.0565 10.0729 10.9669 10.0896 10.8773C10.1175 10.8773 10.1453 10.8606 10.1787 10.8606C10.1787 10.8158 10.1954 10.771 10.1954 10.715C10.2566 10.7318 10.3122 10.7318 10.4013 10.743C10.4458 10.715 10.5015 10.6702 10.5794 10.6254C10.6295 10.6758 10.6684 10.7318 10.7129 10.7878C10.7575 10.7598 10.7853 10.7598 10.8298 10.7262C10.8743 10.743 10.93 10.7542 10.9912 10.771C11.0023 10.7374 11.019 10.6982 11.0357 10.6646C11.1804 10.6478 11.3307 10.6478 11.4587 10.7542C11.5199 10.799 11.6201 10.799 11.7091 10.827L11.7981 10.7374C11.7814 10.5918 11.826 10.4407 11.7425 10.2951C11.7258 10.2615 11.7258 10.2224 11.7425 10.1944C11.7703 10.1216 11.8427 10.0488 11.7592 9.97603C11.8148 9.90326 11.8037 9.83048 11.8037 9.74091V9.19228C11.8037 9.10831 11.7926 9.02433 11.7759 8.94036C11.7759 8.91797 11.7814 8.89557 11.7926 8.87878C11.8371 8.77801 11.8204 8.65485 11.7481 8.57088C11.7648 8.54289 11.7926 8.52609 11.8037 8.4981C11.8037 8.42532 11.7035 8.36374 11.7759 8.27977C11.8204 8.21819 11.8037 8.14541 11.7759 8.05584C11.7481 7.98306 11.7926 7.89349 11.7759 7.80392C11.7592 7.71435 11.7481 7.65837 11.7926 7.56879C11.8371 7.51281 11.8093 7.40644 11.8093 7.31687C11.8037 7.13773 11.8037 7.04816 11.8093 7.59678C11.8037 8.1846 11.8037 8.1846 11.7926 8.19579C11.8093 8.21259 11.8204 8.22379 11.8204 8.24058L11.8371 8.22379C11.8371 8.20139 11.826 8.1902 11.8093 7.59678ZM24.4812 6.6115V6.56671H24.3922C24.3643 6.54992 24.3309 6.52752 24.3031 6.50513C24.3031 6.56671 24.3198 6.5947 24.3198 6.62269C24.3755 6.62829 24.4256 6.6059 24.4645 6.56671L24.4812 6.5835C24.4979 6.56671 24.509 6.55551 24.5257 6.55551L24.509 6.53872C24.4979 6.53872 24.4979 6.54992 24.4812 6.6115ZM32.4283 27.5097C32.534 27.5657 32.6565 27.5713 32.7622 27.5265C32.8067 27.5097 32.8624 27.4985 32.8791 27.5097C32.9792 27.5993 33.1017 27.5545 33.2018 27.5545C33.2742 27.5545 33.3632 27.5097 33.4245 27.5377C33.5413 27.5937 33.6137 27.5209 33.7027 27.5209C33.7918 27.5209 33.8919 27.5937 33.9977 27.5657C34.0255 27.5657 34.0422 27.5377 34.0533 27.5377C34.198 27.5097 34.3483 27.4929 34.493 27.5545C34.5931 27.4649 34.7156 27.5097 34.8158 27.5545C34.8881 27.5377 34.9604 27.4985 34.9938 27.5265C35.0829 27.5993 35.1831 27.5713 35.2888 27.5713H35.8453C35.9344 27.5713 36.0345 27.5153 36.0957 27.5433C36.1959 27.5881 36.285 27.5713 36.374 27.5713H38.1326C38.2328 27.5713 38.3385 27.6161 38.4276 27.5265C38.4609 27.5097 38.4999 27.5097 38.5277 27.5265C38.6001 27.5881 38.6613 27.5993 38.7336 27.5265C38.7503 27.5097 38.8227 27.4985 38.8338 27.5097C38.9229 27.6105 39.0119 27.5265 39.0954 27.4929C39.1232 27.5209 39.1399 27.5377 39.1566 27.5377C39.2011 27.5209 39.2289 27.5097 39.2735 27.4929C39.3458 27.4761 39.4237 27.4649 39.4961 27.4649C39.5684 27.4649 39.6296 27.4817 39.702 27.4817H42.5736C42.6404 27.4761 42.7016 27.4649 42.7628 27.4369C42.8185 27.4537 42.863 27.4649 42.9075 27.4817C42.9799 27.4985 43.0689 27.4537 43.158 27.5265C43.2136 27.5545 43.2804 27.5545 43.3361 27.5265C43.4696 27.4537 43.5976 27.4817 43.7312 27.4817H44.6327C44.7051 27.4817 44.7774 27.4537 44.8387 27.4537C44.8943 27.4705 44.9555 27.4817 45.0167 27.4817C45.3117 27.4817 45.6011 27.4817 45.8793 27.5825C45.9239 27.5993 45.9684 27.5993 46.0129 27.5825C46.0853 27.4929 46.1743 27.5377 46.2466 27.5377H46.5527V25.5447C46.5193 25.4831 46.4804 25.4327 46.4359 25.3824C46.4804 25.3656 46.5082 25.3544 46.5527 25.3376C46.5305 25.192 46.5138 25.0409 46.5082 24.8953C46.5082 24.733 46.4637 24.5706 46.5527 24.4251C46.4637 24.2795 46.5249 24.1284 46.5082 23.966C46.5082 23.8037 46.4637 23.6413 46.5527 23.507C46.536 23.4678 46.5193 23.4286 46.5082 23.3894V21.6483C46.5082 21.5868 46.5527 21.5588 46.536 21.4692C46.4915 21.3236 46.5082 21.1613 46.4915 20.9654C46.4971 20.9486 46.5082 20.9374 46.5193 20.9206C46.4971 20.8534 46.4804 20.7862 46.4748 20.7134C46.4915 20.5343 46.4303 20.344 46.5193 20.1704C46.536 20.1536 46.5026 20.1088 46.5026 20.0808C46.4859 20.0361 46.4748 19.9857 46.4748 19.9353V17.9927C46.4748 17.9199 46.5026 17.8583 46.4915 17.7688C46.4637 17.5616 46.4359 17.3433 46.5193 17.1474C46.5026 17.1306 46.4915 17.1026 46.4748 17.1026C46.5026 17.0298 46.5305 16.957 46.5639 16.8786C46.5138 16.7555 46.4859 16.6267 46.4748 16.498V15.1992C46.4748 15.0816 46.447 14.9473 46.5193 14.8297C46.5472 14.7849 46.5026 14.6953 46.4915 14.6058C46.5082 14.533 46.5193 14.4602 46.536 14.3986C46.4971 14.3483 46.4526 14.2979 46.4025 14.2531C46.5193 14.0459 46.4637 13.8388 46.4637 13.6485C46.4637 13.4413 46.5082 13.2342 46.4192 13.0439C46.536 12.9823 46.4359 12.9095 46.4359 12.8815C46.4581 12.8087 46.4693 12.736 46.4804 12.6632V11.7507C46.4804 11.6499 46.408 11.5323 46.4359 11.4428C46.4637 11.3588 46.4804 11.2692 46.4804 11.1797V10.7654C46.4804 10.6926 46.5082 10.6198 46.4359 10.5471C46.4192 10.5303 46.4526 10.4575 46.4637 10.4127C46.4748 10.3679 46.4915 10.3119 46.4804 10.2951C46.408 10.2391 46.4359 10.1496 46.4359 10.0768V9.62894C46.3802 9.55616 46.319 9.49458 46.2578 9.42181C46.2912 9.39941 46.3246 9.38822 46.3579 9.37702C46.3858 9.30424 46.4025 9.24266 46.4192 9.19788C46.4025 9.1251 46.3579 9.03553 46.3913 8.99074C46.4359 8.93476 46.3635 8.87318 46.4192 8.8284C46.3858 8.8172 46.3468 8.8004 46.319 8.78361C46.0686 8.82839 45.8181 8.84519 45.5844 8.76681C45.4508 8.83959 45.2449 8.82839 45.0724 8.78361C44.9277 8.73882 44.7663 8.63806 44.6327 8.75562C44.4435 8.69964 44.2376 8.69404 44.0484 8.73882C43.9148 8.76681 43.7701 8.8004 43.6366 8.71083C43.503 8.77241 43.4028 8.78361 43.286 8.73882C43.2414 8.72203 43.1969 8.69404 43.1691 8.71083C43.0522 8.8004 42.9187 8.75562 42.8018 8.75562C42.6849 8.75562 42.5514 8.72763 42.4345 8.72763C42.3176 8.71083 42.2008 8.77241 42.0672 8.77241C41.9225 8.75562 41.7611 8.8004 41.6275 8.72763C41.5775 8.71083 41.5274 8.71083 41.4828 8.72763C41.4105 8.75562 41.3382 8.8172 41.2602 8.74442C41.2046 8.67164 41.1155 8.83399 41.0376 8.74442C40.8762 8.76122 40.7037 8.69964 40.5535 8.78921C40.4978 8.77241 40.4366 8.76122 40.3921 8.74442C40.2585 8.69964 40.1305 8.87878 39.9969 8.76122C39.9079 8.85079 39.791 8.77801 39.702 8.806C39.6018 8.85079 39.5128 8.78921 39.407 8.806H38.7949C38.7448 8.8004 38.6947 8.78361 38.6502 8.76122C38.5834 8.78361 38.5166 8.79481 38.4443 8.806H38.1382C38.0491 8.806 37.9601 8.83399 37.8766 8.76122C37.7876 8.85079 37.6874 8.806 37.5816 8.806H35.3277C35.2109 8.806 35.0773 8.77801 34.9604 8.85079C34.9326 8.86758 34.8603 8.8228 34.7991 8.8228C34.71 8.8228 34.621 8.79481 34.5653 8.8228C34.493 8.85079 34.4206 8.86758 34.3594 8.8228C34.2592 8.75002 34.1702 8.806 34.109 8.83959C34.0199 8.8228 33.9476 8.77801 33.9198 8.8116C33.8307 8.85639 33.7751 8.88438 33.6972 8.8116C33.5525 8.82839 33.3911 8.76681 33.2575 8.87318C33.1907 8.8116 33.0905 8.8004 33.0071 8.84519C32.957 8.87318 32.9013 8.88438 32.8457 8.87318C32.7566 8.8004 32.6565 8.8284 32.5507 8.8284H31.3876C31.254 8.8284 31.0926 8.8004 30.9758 8.85639C30.8311 8.92916 30.742 8.78361 30.6252 8.8284C30.5361 8.86758 30.436 8.85079 30.3636 8.78361C30.3302 8.76681 30.2913 8.76681 30.2634 8.78361C30.2078 8.83959 30.1187 8.84519 30.0631 8.78921C30.0631 8.78921 30.0631 8.78921 30.0575 8.78361C30.0297 8.76681 29.9685 8.8004 29.924 8.8004C29.8794 8.8004 29.8349 8.8172 29.7793 8.8172C29.7347 8.8172 29.6902 8.78921 29.6346 8.78921H27.5977C27.5532 8.78921 27.4975 8.8172 27.453 8.8172C27.2304 8.77241 27.0134 8.74442 26.7908 8.83399C26.7685 8.85079 26.7407 8.85079 26.7184 8.83399C26.6461 8.76681 26.5459 8.75002 26.4568 8.78921C26.3678 8.8172 26.2955 8.78921 26.2064 8.78921C26.1675 8.79481 26.1341 8.8116 26.1062 8.83399C25.9615 8.74442 25.8002 8.76122 25.6388 8.806C25.5998 8.8228 25.5608 8.8284 25.5219 8.83399C25.4662 8.806 25.405 8.74442 25.3605 8.83399C25.316 8.76122 25.2436 8.78921 25.1713 8.78921H24.2363C24.1529 8.78921 24.0638 8.8004 23.9859 8.83399C23.869 8.87878 23.8078 8.77801 23.7076 8.78921C23.485 8.83399 23.2513 8.76122 23.0343 8.85079C22.9897 8.86758 22.9174 8.8228 22.845 8.806C22.795 8.8284 22.7393 8.84519 22.6836 8.85079C22.4666 8.86758 22.244 8.8228 22.0381 8.91237C21.9936 8.92916 21.949 8.92916 21.9045 8.91237C21.8043 8.83959 21.6708 8.86758 21.5706 8.86758H21.2645C21.1588 8.86758 21.0586 8.85079 20.9584 8.91237C20.8583 8.79481 20.7804 8.94036 20.6802 8.92916C20.4798 8.91237 20.2795 8.91237 20.0791 8.92916C19.8899 8.94596 19.7007 8.8284 19.4948 8.92916H19.4503C19.2722 8.83959 19.083 8.88438 18.8938 8.90117C18.8047 8.90117 18.7324 8.96275 18.6433 8.91797C18.5543 8.88998 18.4374 8.91797 18.3484 8.87318C18.2816 8.83399 18.2037 8.8228 18.1313 8.84519C17.9866 8.91797 17.8364 8.87318 17.675 8.88998C17.5748 8.90677 17.4691 8.87318 17.3522 8.93476C17.2965 8.97955 17.163 8.96275 17.1018 8.91797C17.0294 8.87318 16.9571 8.88998 16.8792 8.88998C16.7901 8.88998 16.7011 8.93476 16.6176 8.93476L15.9164 8.88998C15.844 8.8004 15.7105 8.88998 15.6548 8.8284C15.5546 8.71083 15.4656 8.84519 15.3766 8.84519C15.2708 8.85079 15.1706 8.85639 15.0705 8.87318C15.026 8.85639 14.9703 8.8172 14.9091 8.78361C14.8813 8.82839 14.8534 8.85639 14.82 8.90117C14.8033 8.85639 14.7922 8.82839 14.7755 8.78361H14.5251C14.436 8.78361 14.347 8.78921 14.2635 8.8004C14.308 8.94596 14.2357 9.06352 14.2635 9.19788C14.2913 9.33224 14.2635 9.47779 14.2802 9.61215C14.2802 9.7465 14.2524 9.87526 14.3247 9.99843C14.2802 10.0712 14.2524 10.144 14.2079 10.2168L14.2802 10.2895C14.2635 10.3175 14.2357 10.3511 14.2357 10.3623C14.2524 10.4127 14.2635 10.4687 14.2635 10.5247C14.2747 10.5806 14.2913 10.6366 14.3192 10.687C14.2301 10.8214 14.1411 10.9389 14.1133 11.0845C14.258 11.3644 14.4082 11.6275 14.2747 11.969C14.2468 12.0418 14.2301 12.1593 14.3025 12.2321C14.3192 12.2489 14.2858 12.2937 14.2858 12.3217C14.3025 12.4672 14.2301 12.6016 14.258 12.736C14.2802 12.8143 14.2969 12.8927 14.3025 12.9711V13.8276C14.2969 13.8836 14.2802 13.9396 14.258 13.99H14.2747C14.2747 14.0683 14.2747 14.1467 14.2913 14.2251C14.2747 14.2419 14.2468 14.2531 14.2357 14.2699C14.2913 14.2867 14.3359 14.2979 14.3804 14.3147C14.3247 14.5778 14.3247 14.5778 14.3804 14.7289C14.3637 14.7569 14.3359 14.7737 14.3247 14.8017V15.3167C14.3247 15.4063 14.4416 15.4791 14.3247 15.5687C14.4138 15.6582 14.3693 15.731 14.3247 15.8038C14.308 15.843 14.308 15.8822 14.3247 15.9214C14.3971 15.9941 14.3693 16.0837 14.3693 16.1565V17.4553C14.3693 17.5896 14.3693 17.7352 14.2969 17.8415C14.2246 17.9591 14.2802 18.0487 14.3136 18.1215C14.2969 18.1774 14.2691 18.211 14.2691 18.2558C14.2691 18.435 14.2524 18.6085 14.3136 18.7876C14.3414 18.8884 14.3581 19.0228 14.2858 19.1235C14.3414 19.2299 14.3136 19.3475 14.3136 19.465C14.3136 19.493 14.2691 19.5378 14.2858 19.5658C14.3581 19.7729 14.3025 19.9913 14.3136 20.1984C14.308 20.2544 14.2913 20.3104 14.2691 20.3607C14.2913 20.4111 14.308 20.4671 14.3136 20.5231C14.3303 20.6239 14.3303 20.7302 14.3136 20.831C14.2969 20.9318 14.3414 21.0493 14.2858 21.1557C14.2301 21.2621 14.3136 21.346 14.3136 21.4356C14.3136 21.4524 14.3136 21.4804 14.2969 21.4804C14.1967 21.57 14.2969 21.6427 14.3136 21.7155C14.2969 21.7435 14.2524 21.7771 14.2524 21.8051C14.2524 21.9227 14.2246 22.0682 14.2802 22.1578C14.3526 22.2921 14.1912 22.3817 14.2524 22.4993C14.2691 22.5273 14.2691 22.572 14.2802 22.5888C14.3526 22.6784 14.2635 22.7344 14.2635 22.8128C14.3136 23.0031 14.3192 23.2046 14.2802 23.4006C14.2468 23.507 14.2468 23.6301 14.2802 23.7365C14.3025 23.8149 14.3025 23.8932 14.2802 23.9716C14.2524 24.0612 14.219 24.1619 14.2802 24.2347C14.3526 24.3355 14.2524 24.3803 14.2524 24.4698C14.3971 24.6154 14.2357 24.7666 14.2524 24.9289C14.2691 25.0913 14.2079 25.2536 14.3136 25.3992C14.2357 25.5167 14.2301 25.6735 14.2969 25.7966C14.2691 25.9422 14.2079 26.0597 14.2413 26.1661C14.2858 26.3565 14.258 26.5636 14.2691 26.7539C14.2691 26.8099 14.2413 26.8995 14.2691 26.9331C14.3581 27.0506 14.2969 27.1682 14.3136 27.2858C14.3136 27.3305 14.2691 27.3753 14.2524 27.4201C14.2802 27.4705 14.3025 27.5265 14.3247 27.5825C14.3693 27.5993 14.4138 27.6273 14.4583 27.6552C14.6308 27.5825 14.8256 27.5825 14.9981 27.6552C15.0872 27.6105 15.2486 27.5657 15.3042 27.6105C15.5101 27.7448 15.7439 27.5825 15.9331 27.7112C16.1223 27.5937 16.356 27.7392 16.5341 27.5937C16.5786 27.6328 16.6176 27.6776 16.651 27.728C16.5953 27.756 16.5619 27.7728 16.4618 27.8344H16.651L16.7233 27.7616C16.7066 27.7448 16.6899 27.728 16.6788 27.7056L16.7512 27.6328H17.1908C17.1908 27.6776 17.2075 27.7224 17.2075 27.7784H17.5303C17.6193 27.644 17.7195 27.7784 17.8364 27.7336C17.9254 27.7056 18.0423 27.7504 18.1592 27.7616C18.1925 27.7504 18.2204 27.7336 18.2482 27.7168C18.3094 27.7 18.3484 27.7896 18.4096 27.7168C18.4541 27.6888 18.5432 27.7336 18.5988 27.672C18.6378 27.6552 18.6767 27.6552 18.7157 27.672C18.7713 27.728 18.8492 27.7168 18.9049 27.7168C19.0663 27.7168 19.2277 27.7448 19.3724 27.6608C19.3891 27.6776 19.4169 27.6888 19.4336 27.7168C19.4503 27.7 19.467 27.6832 19.4892 27.672C19.5059 27.6888 19.5338 27.7 19.5504 27.7168C19.6005 27.6944 19.6562 27.6832 19.7118 27.672C19.8009 27.6552 19.9011 27.672 19.9734 27.644C20.0736 27.5881 20.1348 27.7056 20.235 27.672C20.2851 27.6552 20.3407 27.644 20.3964 27.644C20.4409 27.6272 20.5021 27.6161 20.5132 27.6273C20.5856 27.7168 20.6913 27.672 20.7748 27.672H24.3198C24.42 27.6776 24.5146 27.6664 24.6092 27.6273C24.7038 27.5881 24.8151 27.5993 24.9042 27.6552C24.9431 27.672 24.9821 27.672 25.021 27.6552C25.1379 27.5937 25.2436 27.6105 25.3716 27.6552C25.4885 27.6944 25.6109 27.6888 25.7222 27.6384C25.7779 27.6105 25.9003 27.5937 25.9448 27.6217C26.0172 27.6776 26.0895 27.6496 26.1675 27.6664C26.2231 27.6832 26.301 27.6944 26.3567 27.7112C26.3901 27.6888 26.4235 27.6664 26.4624 27.6552C26.4902 27.6832 26.5069 27.7112 26.5181 27.7112C26.6071 27.7 26.6906 27.6664 26.7629 27.6217C26.8687 27.5657 26.9243 27.6944 27.0245 27.6664C27.0857 27.6496 27.1302 27.6384 27.1859 27.6217C27.3194 27.6944 27.4808 27.7056 27.6255 27.6496C27.7257 27.6217 27.8314 27.5881 27.8871 27.6217C28.0485 27.6944 28.221 27.6496 28.388 27.6664H28.7553C28.7998 27.6664 28.8276 27.6944 28.8443 27.6944C28.9167 27.6776 28.9779 27.6776 29.0335 27.6664C29.0892 27.6552 29.1448 27.6384 29.1949 27.6217C29.2561 27.644 29.3229 27.6552 29.3841 27.6664C29.5288 27.6664 29.6791 27.6832 29.8238 27.6664C29.9128 27.6496 29.9685 27.7224 30.0742 27.6832C30.1466 27.6384 30.2634 27.6832 30.3692 27.6273C30.4193 27.6161 30.4693 27.6217 30.5139 27.644C30.614 27.7056 30.7031 27.6608 30.7921 27.6161C30.9034 27.6832 31.037 27.6944 31.1594 27.644C31.2151 27.6272 31.3041 27.6161 31.3486 27.644C31.4655 27.7056 31.5824 27.6888 31.6992 27.672C32.022 27.6161 32.0387 27.6161 32.3281 27.672C32.2836 27.5545 32.3392 27.5265 32.4283 27.5097ZM10.3289 10.9725L10.2844 10.9277C10.2399 10.9557 10.1954 10.9725 10.1508 11.0005L10.2399 11.0901C10.2733 11.0565 10.3067 11.0173 10.3289 10.9725ZM50.5485 11.1069C50.5541 11.0957 50.5597 11.0789 50.5652 11.0621C50.5374 11.0173 50.5207 10.9893 50.4929 10.9445L50.4762 10.9613C50.4484 11.0229 50.4929 11.0509 50.5318 11.0789C50.5207 11.0901 50.5374 11.0901 50.5485 11.1069ZM50.5374 25.1976C50.5096 25.2536 50.4205 25.2704 50.4929 25.3712C50.504 25.3152 50.6097 25.2984 50.5374 25.1976ZM13.9352 25.903V26.0821C13.963 26.0821 13.9964 26.0765 14.0242 26.0653C13.9964 26.0094 13.9686 25.959 13.9352 25.903ZM28.644 27.8064H28.8332C28.822 27.7784 28.8165 27.7504 28.8165 27.7168C28.7608 27.7448 28.6996 27.7728 28.644 27.8064ZM13.9797 24.1228H13.9519V24.2851H13.9797V24.1228ZM26.6516 29.693H26.6071C26.6071 29.7378 26.6238 29.7826 26.6238 29.8274H26.6516V29.693ZM45.7458 29.8833V29.8386C45.7013 29.8386 45.6567 29.8553 45.6122 29.8553V29.8833H45.7458ZM24.381 6.9194V6.89141H24.2809V6.9194H24.381ZM13.9797 23.7925H13.9519V23.8988H13.9797V23.7925ZM48.6452 20.1984V20.1816H48.584V20.1984H48.6452ZM48.6007 21.0549V21.0717H48.6564V21.0549H48.6007ZM36.4408 8.5093V8.52609H36.4964V8.5093H36.4408ZM36.2627 6.42116H36.246V6.48274H36.2627V6.42116ZM28.0874 6.52192H28.0707V6.57791H28.0874V6.52192ZM28.9111 27.8064H28.9278V27.7504H28.9111V27.8064ZM38.1994 29.2955V29.2787H38.1437V29.2955H38.1994ZM26.6238 29.6314H26.6405V29.5698H26.6238V29.6314ZM28.2377 6.5835H28.2544V6.52752H28.2377V6.5835ZM37.2199 8.54289V8.52609H37.1643V8.54289H37.2199ZM48.7788 14.3762H48.7955V14.3203H48.7788V14.3762ZM36.8526 29.721V29.7042H36.797V29.721H36.8526ZM14.052 11.6219H14.0687V11.5603H14.052V11.6219ZM36.9695 29.7378H36.9862V29.6818H36.9695V29.7378Z" fill="white"/>
<path d="M18.0534 31.77C18.1258 31.9491 18.2148 32.0947 18.276 32.257C18.3317 32.4249 18.3985 32.5873 18.482 32.744C18.571 32.8896 18.6155 33.0519 18.7046 33.2031C18.7936 33.3654 18.8493 33.5278 18.955 33.6734C19.0607 33.8189 19.044 34.026 19.25 34.1324C19.2666 34.0428 19.2666 33.9869 19.2778 33.9085C19.3056 33.8917 19.339 33.8917 19.3501 33.8805C19.378 33.8077 19.3946 33.7349 19.4225 33.6566C19.556 33.2871 19.7564 32.9512 19.8454 32.5537C19.8621 32.4641 19.9345 32.3914 19.9623 32.3186C19.9957 32.2738 20.0235 32.2234 20.0346 32.173C20.0179 31.9827 20.1515 31.8651 20.2684 31.7476H21.5261C21.6263 31.7532 21.7209 31.77 21.8211 31.7923C21.8044 31.8931 21.8044 31.9995 21.7932 32.1002V33.7405C21.7877 33.8413 21.7877 33.9477 21.7932 34.0484C21.8099 34.1492 21.7376 34.2724 21.8378 34.3731C21.7487 34.4627 21.7765 34.5803 21.7932 34.653C21.8211 34.7538 21.8823 34.8434 21.7932 34.9497C21.8099 35.0225 21.8545 35.1121 21.8378 35.1737C21.7654 35.3528 21.7932 35.5264 21.7932 35.7055V36.1198C21.7932 36.2373 21.7654 36.3717 21.8378 36.4893C21.8656 36.534 21.8378 36.6236 21.8378 36.6964H20.1793C20.2239 36.5173 20.1181 36.3269 20.235 36.1534C20.1348 36.0358 20.1905 35.8903 20.1905 35.7559C20.1905 35.6551 20.1626 35.5488 20.235 35.4592C20.2517 35.4312 20.2183 35.3584 20.1905 35.2688C20.1905 35.2521 20.2183 35.2241 20.235 35.1793C20.2183 35.1513 20.2016 35.1289 20.1793 35.1065C20.2684 35.0057 20.2072 34.8826 20.1793 34.7538C20.1626 34.7818 20.1515 34.8154 20.1348 34.8434C19.9734 35.1513 19.8287 35.476 19.6506 35.7839C19.5505 35.963 19.4614 36.1366 19.3724 36.3157C19.3279 36.4165 19.2388 36.5061 19.1665 36.5956C19.1386 36.5788 19.0941 36.5788 19.0941 36.5676C19.0051 36.3885 18.8771 36.2597 18.8159 36.0526C18.7658 35.907 18.6934 35.7727 18.5988 35.6551C18.5098 35.5208 18.4541 35.3752 18.3651 35.2297C18.2927 35.1009 18.2037 34.9777 18.1035 34.877V35.8847C18.1035 35.9126 18.148 35.9406 18.148 35.9742C18.1425 36.0414 18.1314 36.103 18.1202 36.1646C18.1926 36.2989 18.1369 36.4725 18.1647 36.6684H16.5675L16.4507 36.5508C16.4507 36.534 16.4674 36.534 16.4785 36.5229C16.4618 36.4781 16.4507 36.4277 16.4507 36.3773C16.4507 36.3325 16.5119 36.2877 16.434 36.2317C16.4507 36.2038 16.4785 36.159 16.4896 36.131C16.4006 36.0134 16.434 35.8791 16.434 35.7503C16.434 35.6215 16.3894 35.4704 16.4785 35.3528C16.4173 35.2353 16.3894 35.1177 16.4618 35.0113C16.4451 34.9218 16.4061 34.8322 16.434 34.7594C16.4507 34.6866 16.523 34.6139 16.434 34.5355L16.5341 34.4347C16.5063 34.3004 16.4729 34.1716 16.4451 34.0204C16.4451 34.0036 16.4729 33.9925 16.4896 33.9757C16.4451 33.7853 16.3894 33.595 16.4896 33.399C16.4006 33.371 16.4896 33.3095 16.4729 33.2647C16.4562 33.2255 16.4507 33.1751 16.4562 33.1303C16.5008 32.9512 16.5008 32.9512 16.4562 32.7328C16.4562 32.7049 16.4395 32.6881 16.4562 32.6601C16.4729 32.5593 16.5286 32.4529 16.5008 32.3802C16.4562 32.2906 16.4729 32.2178 16.4841 32.1282C16.5008 32.0275 16.4562 31.9043 16.4395 31.7923C16.9961 31.77 17.5247 31.77 18.0534 31.77Z" fill="white"/>
<path d="M28.5549 34.6587C28.5382 34.5971 28.5215 34.5411 28.4993 34.4795H28.349C28.3323 34.4515 28.3212 34.4515 28.3212 34.4347V34.2724C28.3212 34.2276 28.3379 34.138 28.3045 34.1268C28.2488 34.082 28.3212 34.054 28.3045 34.0093C28.2989 33.9197 28.3101 33.8301 28.3323 33.7461C28.3935 33.707 28.4548 33.6734 28.5215 33.6454C28.5939 33.5446 28.5215 33.3487 28.6217 33.1863C28.6217 33.1863 28.5772 33.1583 28.5772 33.1247C28.5104 32.8448 28.4993 32.5537 28.5494 32.2682C28.5661 32.1954 28.5215 32.1506 28.5215 32.0891C28.5048 32.0331 28.6106 31.9995 28.5494 31.9435C28.5327 31.9267 28.5327 31.9155 28.5048 31.8707C28.5716 31.8483 28.6328 31.8259 28.6941 31.798C28.6774 31.7812 28.6662 31.7532 28.6495 31.742H29.501C29.6457 31.7588 29.796 31.6972 29.9128 31.7868C29.9629 31.7644 30.0186 31.7476 30.0742 31.742H31.1873C31.2318 31.742 31.2763 31.77 31.332 31.77H31.4767C31.549 31.7532 31.6547 31.714 31.6993 31.742C31.7716 31.8148 31.844 31.6972 31.9163 31.7588C31.9608 31.8036 32.061 31.7868 32.1389 31.7868C32.2725 31.8036 32.3448 31.8875 32.4339 31.9659V32.3802C32.4339 32.453 32.4784 32.5257 32.4784 32.5873C32.4784 32.6489 32.4339 32.7049 32.4339 32.7776C32.4339 32.8504 32.4617 32.912 32.4617 32.9848C32.4617 33.0688 32.4506 33.1527 32.4339 33.2367V33.4718C32.4339 33.511 32.445 33.5502 32.4617 33.5894C32.4339 33.6622 32.3893 33.7517 32.3448 33.8693C32.2725 33.9253 32.1667 34.0037 32.0833 34.0596C32.2725 34.1268 32.4283 34.2612 32.5396 34.4291V35.6831C32.5396 35.7839 32.5563 35.9071 32.5229 36.0078C32.4951 36.0974 32.5396 36.187 32.5507 36.2709C32.445 36.3717 32.3615 36.4613 32.2558 36.5509C32.0777 36.5732 31.8996 36.6068 31.7271 36.6516C31.6826 36.6572 31.638 36.6572 31.5935 36.6516H28.6217C28.6106 36.6516 28.5995 36.646 28.5939 36.6348C28.5661 36.4109 28.4603 36.2094 28.5772 35.9742C28.5549 35.9294 28.5382 35.8791 28.5327 35.8287V35.3136C28.5327 35.2745 28.5438 35.2353 28.5605 35.1961C28.5828 35.1289 28.5828 35.0561 28.5605 34.9889C28.4993 34.8938 28.4937 34.7594 28.5549 34.6587ZM30.7977 35.8959C30.7977 35.7615 30.8144 35.6719 30.7977 35.5992C30.7699 35.5264 30.8867 35.4536 30.8144 35.3752C30.9034 35.3025 30.7866 35.2409 30.7977 35.1513C30.82 34.9722 30.82 34.7874 30.7977 34.6083C30.7921 34.5523 30.7754 34.4963 30.7532 34.4459C30.6363 34.5467 30.5306 34.4907 30.4304 34.5019C30.2857 34.3675 30.1967 34.5187 30.0909 34.5747C30.1521 34.6195 30.1688 34.7034 30.1243 34.765C30.1132 34.7762 30.1076 34.7874 30.0909 34.7986C30.2078 34.8434 30.0742 34.933 30.1187 34.9778C30.1911 35.0673 30.0909 35.1233 30.0909 35.2017C30.18 35.2913 30.1633 35.3808 30.0909 35.4648C30.1076 35.4816 30.1243 35.4984 30.1354 35.5208C30.1187 35.6104 30.1076 35.6999 30.0798 35.8287C30.18 35.7727 30.269 35.9015 30.3581 35.8007C30.3859 35.8231 30.4137 35.8455 30.4471 35.8623C30.5083 35.8455 30.564 35.8007 30.6085 35.8175C30.653 35.8399 30.7087 35.8679 30.7977 35.8959ZM30.8589 32.6545H30.1243C30.0965 32.8336 30.1521 33.024 30.0798 33.1695C30.1688 33.3319 30.0965 33.511 30.1354 33.6734C30.3692 33.7909 30.6029 33.7293 30.8534 33.7293V33.6566C30.8701 33.6006 30.7643 33.5558 30.8367 33.4942C30.7476 33.4326 30.8534 33.3767 30.8367 33.3319C30.8367 33.2311 30.8923 33.1247 30.7921 33.0352C30.8645 32.9624 30.87 32.8504 30.8088 32.7721C30.8311 32.7385 30.8478 32.6993 30.8589 32.6545Z" fill="white"/>
<path d="M27.1636 36.3997C26.9744 36.6236 26.7073 36.7244 26.3845 36.7244H23.9859C23.7911 36.7188 23.5963 36.674 23.4127 36.59C23.2068 36.5173 23.0899 36.3549 23.0899 36.103C23.1066 35.5432 23.0899 34.9945 23.0899 34.4347C23.0899 34.334 23.1344 34.2108 23.0454 34.11C23.0287 34.0932 23.0899 34.0205 23.0732 34.0093C22.9842 33.9533 23.1289 33.9197 23.0899 33.8637C23.0621 33.8189 23.0621 33.7741 23.0343 33.7293C23.0064 33.6734 23.1233 33.595 23.0343 33.539C23.0621 33.4774 23.0621 33.4102 23.0343 33.3487C23.0176 33.2815 23.0176 33.2087 23.0343 33.1415C23.0509 33.052 23.0621 32.9624 23.0788 32.8616C23.0788 32.8448 23.0509 32.8336 23.0343 32.8168L23.0899 32.7553C22.9452 32.5033 23.0899 32.2402 23.0899 31.9715C23.2346 31.9267 23.3236 31.8092 23.485 31.7812C23.5462 31.7644 23.613 31.7532 23.6742 31.7532H26.6516C26.7963 31.7532 26.9466 31.8092 27.0913 31.8427C27.1469 31.9155 27.1803 31.9771 27.236 32.0667C27.2638 32.1842 27.1914 32.3298 27.2805 32.4641C27.2638 32.4809 27.2471 32.4977 27.236 32.5201C27.2527 32.6097 27.3528 32.7105 27.2527 32.8168C27.325 32.9176 27.2805 33.024 27.2527 33.1415C27.236 33.1863 27.2972 33.2423 27.2972 33.3039C27.2972 33.3767 27.2694 33.4494 27.2694 33.539C27.2749 33.595 27.2749 33.6454 27.2694 33.7014C27.2415 33.8917 27.2415 34.0261 27.2972 34.1604C27.2749 34.1996 27.2582 34.2444 27.2527 34.2948C27.2471 34.3619 27.2471 34.4347 27.2527 34.5019V34.737C27.2527 34.8098 27.2805 34.9162 27.2081 34.9722C27.2638 35.0057 27.2805 35.0785 27.2471 35.1345C27.2415 35.1457 27.2304 35.1569 27.2248 35.1625C27.2415 35.1849 27.2527 35.2129 27.2694 35.2353C27.2861 35.3081 27.325 35.3976 27.2972 35.4424C27.2527 35.5152 27.2694 35.588 27.2694 35.6663C27.2248 35.8959 27.2694 36.1478 27.1636 36.3997ZM24.6871 32.6993V33.0072C24.6815 33.1079 24.6815 33.2143 24.6871 33.3151C24.7038 33.3823 24.7094 33.4494 24.7038 33.5222C24.676 33.6062 24.676 33.7014 24.7038 33.7853C24.7205 33.8581 24.6871 33.9477 24.676 34.0373V35.7783C24.8986 35.8231 25.1156 35.6327 25.3048 35.7951C25.3327 35.7671 25.3605 35.7503 25.3939 35.7223C25.4718 35.7895 25.5831 35.8007 25.6721 35.7503C25.6555 35.6775 25.6165 35.616 25.6165 35.5432C25.6109 35.4536 25.6109 35.364 25.6165 35.2801C25.6165 35.2185 25.6165 35.1625 25.6332 35.1009C25.661 35.0281 25.5775 34.9834 25.6054 34.9218C25.6276 34.877 25.6443 34.8266 25.6499 34.7762C25.6332 34.7314 25.6165 34.681 25.6054 34.6307V32.5985C25.444 32.6153 25.2993 32.6433 25.149 32.6433C25.0266 32.7161 24.8652 32.6993 24.6871 32.6993Z" fill="white"/>
<path d="M44.2655 33.7461C44.1764 33.9253 44.1764 33.998 44.2488 34.1604C44.2042 34.2612 44.1486 34.3507 44.2488 34.4571C44.0874 34.5467 43.926 34.5467 43.7479 34.5467H42.4623V35.8287C42.5069 35.8511 42.5514 35.8735 42.5959 35.9014H44.1764C44.2209 35.9462 44.2488 35.991 44.31 36.047C44.2933 36.2093 44.3378 36.3997 44.2655 36.59C44.2822 36.6292 44.2988 36.6628 44.3267 36.6908C44.2988 36.7076 44.2822 36.7188 44.2655 36.7188H41.0543C40.9653 36.7132 40.8763 36.6964 40.7928 36.674V36.3773C40.7872 36.2765 40.7872 36.1702 40.7928 36.0694C40.8095 35.9798 40.6926 35.8902 40.7761 35.8063C40.687 35.6887 40.8206 35.6159 40.8206 35.5264C40.7316 35.2017 40.8763 34.849 40.7204 34.5075H40.6036C40.559 34.4179 40.5312 34.3283 40.4867 34.2444C40.5869 34.11 40.5145 33.9477 40.5423 33.7741C40.6091 33.7517 40.6703 33.7293 40.7316 33.7013C40.7872 33.6118 40.6759 33.539 40.7316 33.4382C40.7761 33.3654 40.7037 33.2479 40.7761 33.1863C40.687 33.0407 40.7594 32.8784 40.7316 32.7272C40.7037 32.5929 40.7761 32.4641 40.7316 32.3298C40.7037 32.1842 40.7594 32.0219 40.6592 31.8707C40.9319 31.7923 41.2157 31.77 41.494 31.8091C41.5385 31.8259 41.5942 31.7923 41.6387 31.7923H42.9298C42.9799 31.7923 43.0244 31.8091 43.0634 31.8371C43.0912 31.8539 43.1635 31.8203 43.2415 31.8203C43.3305 31.8763 43.4307 31.8651 43.5475 31.8371C43.5642 31.8371 43.5754 31.8091 43.5921 31.8091C43.6644 31.8091 43.7368 31.7811 43.798 31.8091C43.9594 31.9099 44.1764 31.7811 44.3378 31.9435C44.3267 31.9995 44.3044 32.0555 44.2822 32.1058C44.2543 32.1506 44.3823 32.1954 44.2822 32.2514C44.3712 32.3522 44.3267 32.4417 44.2822 32.5481C44.2655 32.5761 44.2822 32.6377 44.2822 32.6937H42.5625C42.4902 32.6937 42.4289 32.6937 42.3844 32.7664C42.518 32.9008 42.3566 33.0296 42.3677 33.1807C42.3789 33.3319 42.3677 33.4886 42.3677 33.651C42.3956 33.6789 42.4234 33.7125 42.4401 33.7237C42.6905 33.6566 42.9521 33.6566 43.2025 33.7237C43.4084 33.6454 43.631 33.651 43.8314 33.7405C43.8481 33.7237 43.8759 33.7125 43.887 33.6957C44.0317 33.6734 44.1375 33.7013 44.2655 33.7461Z" fill="white"/>
<path d="M39.6519 35.8119V36.5341C39.6074 36.562 39.5518 36.6068 39.4905 36.6516C39.4238 36.7132 39.3236 36.7244 39.2401 36.6796C39.2123 36.6628 39.1399 36.6348 39.1232 36.6628C39.0342 36.7524 38.934 36.7076 38.8283 36.7076H37.7876C37.7375 36.6964 37.6874 36.6852 37.6429 36.6628L37.6262 36.6796H36.8749L36.758 36.562V35.6327C36.758 35.5432 36.8026 35.4424 36.7135 35.3696C36.8137 35.2801 36.758 35.1793 36.758 35.0729C36.7636 34.9722 36.7636 34.8658 36.758 34.765V32.0219C36.7358 31.9939 36.7135 31.9659 36.7024 31.9323L36.8638 31.77C36.836 31.7868 36.8471 31.77 36.8638 31.77H37.9768C38.038 31.7644 38.0937 31.7588 38.1549 31.742C38.205 31.7644 38.2606 31.7756 38.3163 31.7868C38.333 31.8595 38.3719 31.9659 38.3719 32.0499C38.3886 32.4194 38.3719 32.772 38.3719 33.1415C38.3775 33.1975 38.3831 33.2535 38.3998 33.3039C38.3831 33.3543 38.3719 33.4102 38.3719 33.4662C38.3719 33.5558 38.3441 33.6566 38.3886 33.7181C38.4443 33.8077 38.3274 33.8525 38.3719 33.9085C38.3942 33.9533 38.4109 34.0037 38.4165 34.054C38.3497 34.1548 38.3386 34.2836 38.3886 34.3955C38.4165 34.4515 38.3608 34.4963 38.4053 34.5579C38.4499 34.6027 38.4053 34.7034 38.422 34.7818C38.422 34.849 38.4053 34.9162 38.3775 34.9722C38.3497 35.0281 38.3775 35.1177 38.3775 35.2073V35.8119H39.6519Z" fill="white"/>
<path d="M35.4446 31.8315V32.8952C35.4446 32.912 35.4168 32.9232 35.4168 32.94C35.4891 32.9848 35.4613 33.0575 35.4613 33.1303V36.1254C35.4613 36.2149 35.4891 36.3045 35.4168 36.3885C35.389 36.4165 35.4446 36.5061 35.4613 36.5788C35.4391 36.6236 35.4168 36.6684 35.389 36.7132C35.2721 36.8028 35.1274 36.5676 35.0217 36.6964C34.9215 36.6964 34.8158 36.6516 34.7434 36.6796C34.5653 36.7524 34.4039 36.6964 34.2425 36.7076C34.2147 36.7076 34.1702 36.6628 34.1424 36.6516C34.1201 36.674 34.0978 36.6908 34.07 36.7076C33.9977 36.6796 33.9365 36.6628 33.8474 36.6348C33.8085 36.5396 33.7806 36.4389 33.7751 36.3381C33.7751 36.2821 33.6749 36.2037 33.7918 36.159V35.448C33.7862 35.3752 33.7695 35.2968 33.7472 35.2241C33.7751 35.1681 33.7862 35.1065 33.7918 35.0449V34.2052C33.7918 34.0876 33.8196 33.9701 33.8196 33.8525C33.8196 33.7349 33.8085 33.6174 33.7918 33.4998V33.1191C33.7918 33.0631 33.8196 32.9848 33.8196 32.9288C33.8196 32.8672 33.8085 32.8112 33.7918 32.7496C33.7751 32.7049 33.7639 32.6601 33.7472 32.6153C33.8363 32.3802 33.7639 32.145 33.7918 31.8931C33.8808 31.8035 34.0032 31.7532 34.1312 31.7588C34.4818 31.7588 34.8213 31.7755 35.1719 31.7588C35.2832 31.7588 35.3556 31.7979 35.4446 31.8315Z" fill="white"/>
<path d="M50.6377 6.94741C50.6822 6.78506 50.7267 6.6395 50.7712 6.47716H51.0662V7.38967H50.877V6.94741H50.8325C50.8325 6.99219 50.8158 7.02018 50.8158 7.06497C50.7991 7.10976 50.7712 7.13775 50.7712 7.16574C50.7657 7.21612 50.7657 7.26651 50.7712 7.31129C50.7156 7.41206 50.6265 7.40086 50.5208 7.38407C50.493 7.26651 50.4652 7.14894 50.4318 7.03138H50.4206V7.38407H50.2147V6.47156H50.493C50.5375 6.62831 50.582 6.77386 50.6377 6.94741Z" fill="white"/>
<path d="M49.6303 7.38968V6.68431H49.3966V6.49397C49.3966 6.48837 49.4022 6.47717 49.4077 6.47717H50.1535V6.66751C50.0811 6.66751 50.0088 6.68431 49.9197 6.68431V7.38968H49.6303Z" fill="white"/>
<path d="M33.1462 25.416C32.9403 25.3264 32.7511 25.36 32.5618 25.388C32.5006 25.4048 32.4283 25.4328 32.4005 25.416C32.3114 25.36 32.2224 25.388 32.1389 25.3712C32.061 25.3488 31.9831 25.332 31.9051 25.3264C31.8328 25.3264 31.7438 25.3712 31.6547 25.3992C31.6603 25.3488 31.6547 25.2984 31.638 25.2536C31.6269 25.2201 31.6102 25.1865 31.5935 25.1529V25.1081C31.6658 25.0633 31.5935 25.0017 31.6102 24.9737C31.6492 24.9289 31.6547 24.8618 31.6269 24.8114C31.5657 24.7218 31.5991 24.6322 31.6547 24.5595C31.6269 24.4699 31.5991 24.3971 31.5657 24.3075C31.5824 24.2907 31.6102 24.2795 31.6102 24.2628V22.7568C31.6102 22.74 31.5824 22.712 31.5657 22.7008C31.6325 22.5105 31.6436 22.309 31.5935 22.113C31.5879 22.0571 31.5879 22.0067 31.5935 21.9507C31.6102 21.7436 31.6102 21.5364 31.6102 21.3461C31.6102 21.3293 31.5824 21.3013 31.5657 21.2845C31.5824 21.2397 31.6269 21.2117 31.6269 21.1669C31.6102 20.9038 31.6714 20.6351 31.5991 20.372C31.5824 20.2992 31.6269 20.2264 31.6269 20.1369C31.6547 19.8849 31.5824 19.6218 31.6714 19.3699C31.5991 19.2523 31.6547 19.118 31.6269 19.0004C31.5824 18.8996 31.4933 18.8101 31.4488 18.7037C31.3876 18.6029 31.3431 18.4966 31.2874 18.407C31.2707 18.407 31.254 18.4126 31.2429 18.4238V17.7744C31.2429 17.7576 31.2262 17.7464 31.2262 17.7576C31.2818 17.5785 31.254 17.4161 31.254 17.2706V16.8115L31.3598 16.7051C31.3598 16.6604 31.3765 16.6156 31.3765 16.5708C31.4766 16.6436 31.5657 16.5148 31.6547 16.5708C31.6992 16.4812 31.7271 16.4084 31.7716 16.3357C31.7159 16.2629 31.638 16.1565 31.5824 16.0725C31.6714 15.9998 31.6269 15.8934 31.638 15.8094C31.6547 15.7199 31.6102 15.6023 31.6547 15.5575C31.7438 15.4511 31.6269 15.3672 31.6547 15.3056C31.7159 15.216 31.5991 15.16 31.6547 15.0817L31.7438 15.0369C31.7159 14.8465 31.6547 14.6674 31.6547 14.4938C31.638 13.906 31.6547 13.3126 31.6547 12.7248C31.6547 12.6184 31.6825 12.5009 31.6102 12.4169C31.6825 12.3273 31.638 12.2266 31.6547 12.1202C31.6603 12.0082 31.6603 11.8963 31.6547 11.7787C31.6547 11.7395 31.6436 11.6947 31.6269 11.6611C31.6825 11.4876 31.677 11.3029 31.6102 11.1293C31.638 11.0565 31.6714 10.939 31.6992 10.8326H33.3688C33.469 10.8326 33.5914 10.9334 33.6749 10.8774C33.7639 10.8046 33.853 10.8774 33.9253 10.8326C33.9977 10.8046 34.1145 10.8158 34.2036 10.8326C34.2425 10.8382 34.2759 10.855 34.3037 10.8774C34.3371 10.855 34.3705 10.8438 34.4039 10.8326H35.3834C35.4279 10.8326 35.4724 10.8606 35.517 10.8606C35.6171 10.8606 35.7117 10.8606 35.8119 10.8438C35.9121 10.8438 36.0345 10.799 36.1347 10.827C36.207 10.8438 36.2794 10.9166 36.3573 10.827C36.3963 10.8718 36.463 10.8886 36.5187 10.8718C36.6244 10.9334 36.6968 10.9614 36.7691 11.0061C36.7691 10.9894 36.7858 10.9894 36.7858 10.9782C36.9027 11.1125 37.0084 11.2413 37.1253 11.3924C37.1086 11.4204 37.0975 11.4372 37.0808 11.4652C37.0975 11.51 37.1086 11.5604 37.1086 11.6108V13.7941C37.1086 13.8668 37.0474 13.9284 37.0919 14.0124C37.1364 14.0796 37.1197 14.1635 37.0641 14.2195C37.1643 14.3203 37.0919 14.4267 37.0641 14.5442C37.0363 14.6506 37.0029 14.7514 36.975 14.8689C36.9973 14.8745 37.0251 14.8801 37.0474 14.8857C37.0474 14.9025 37.0752 14.9137 37.0641 14.9305C37.0474 15.0313 37.0474 15.1544 37.0363 15.2552C37.0363 15.272 37.0196 15.2832 37.0363 15.2832C37.1253 15.4008 37.0641 15.5183 37.0084 15.6527C37.1976 15.9046 37.0975 16.1845 37.1253 16.4812C37.0808 16.5092 37.0529 16.5372 37.0084 16.5708C37.0251 16.5876 37.0418 16.61 37.0529 16.6324C36.9806 16.7331 37.0251 16.8563 37.0084 16.9403C36.9528 17.0578 36.8916 17.1474 36.8303 17.2482L36.847 17.265C36.7858 17.3545 36.7135 17.4385 36.6411 17.5169H36.4074C36.4241 17.5617 36.4519 17.6065 36.4797 17.6512C36.5688 17.7128 36.6689 17.7688 36.7858 17.8416C36.7747 17.864 36.758 17.8808 36.7413 17.8976C36.8025 17.9703 36.847 18.0599 36.9027 18.1327C36.975 18.2055 37.0641 18.2503 37.1253 18.3118C37.2422 18.8157 37.1809 19.3307 37.1976 19.829C37.2143 20.3272 37.1976 20.831 37.1976 21.3349V23.2663C37.1921 23.3614 37.1809 23.451 37.1698 23.5462C37.1809 23.5742 37.1976 23.5966 37.2143 23.619C37.2422 23.6749 37.142 23.7365 37.2143 23.8093C37.2589 23.8541 37.2143 23.9549 37.231 24.0444C37.2477 24.2236 37.1865 24.3691 37.1309 24.5147C37.0752 24.6602 36.9973 24.8002 36.9083 24.9289C36.7636 25.1081 36.5855 25.1809 36.4074 25.2816C36.3128 25.3264 36.207 25.3432 36.1013 25.3376C35.7173 25.3376 35.3389 25.4104 34.9604 25.3824C34.71 25.472 34.4763 25.3376 34.2258 25.3824C34.1535 25.3992 34.0811 25.3544 34.0032 25.4272C33.9865 25.444 33.9309 25.4272 33.8864 25.4104C33.6804 25.3376 33.4745 25.3824 33.2575 25.3936C33.174 25.388 33.1573 25.4048 33.1462 25.416ZM36.9083 22.852C36.9083 22.8744 36.9194 22.8968 36.9361 22.9136L36.9528 22.9024L36.9083 22.852C36.8971 22.8408 36.8804 22.824 36.8804 22.8072L36.8637 22.824C36.8637 22.852 36.8804 22.852 36.9083 22.852ZM33.6415 15.0593C33.6415 15.0369 33.6304 15.0145 33.6137 15.0033L33.597 15.0201C33.6137 15.0369 33.6248 15.0481 33.7417 14.9641C33.7138 15.0201 33.6081 15.0369 33.6415 15.1264C33.6971 15.1544 33.7417 15.1992 33.7862 15.216C33.7138 15.3168 33.7584 15.4064 33.7862 15.5127C33.814 15.6023 33.7695 15.7031 33.7584 15.8094C33.7639 15.815 33.7695 15.8262 33.7751 15.8374C33.7917 16.0893 33.7917 16.3525 33.8029 16.5764C33.9197 16.5932 34.0366 16.6324 34.1368 16.6044C34.1535 16.6492 34.1646 16.6772 34.1813 16.7219C34.2314 16.7051 34.2815 16.6883 34.326 16.666C34.4206 16.6716 34.5152 16.6883 34.6043 16.7107C34.7211 16.6492 34.7935 16.6044 34.8825 16.5652C34.7935 16.3748 34.8269 16.1845 34.8269 15.9886C34.8269 15.9438 34.8436 15.871 34.8102 15.843C34.7545 15.787 34.7824 15.7255 34.7657 15.6807C34.7657 15.6359 34.749 15.5631 34.7824 15.5351C34.8714 15.4623 34.71 15.4343 34.7657 15.3896C34.8547 15.3168 34.8102 15.2272 34.8102 15.1544C34.838 14.9305 34.7657 14.6954 34.8547 14.477C34.8714 14.4323 34.838 14.3763 34.838 14.3315C34.7935 14.1524 34.7824 13.962 34.8547 13.8165C34.7378 13.5086 34.8714 13.2286 34.8714 12.9599C34.7824 12.9151 34.71 12.8704 34.621 12.8256C34.5486 12.8424 34.4596 12.7976 34.3705 12.8704C34.3149 12.9151 34.2258 12.8256 34.1368 12.8704C34.0644 12.8983 33.9476 12.8704 33.8418 12.8704C33.8251 12.9151 33.7973 12.9599 33.7806 13.0047C33.7639 13.0943 33.7639 13.1839 33.7806 13.2678C33.8474 13.85 33.7138 14.4099 33.6415 15.0593ZM34.8269 21.7771V21.4412C34.8324 21.3293 34.8157 21.2229 34.7824 21.1165C34.7545 21.0606 34.7657 20.971 34.7824 20.8814C34.799 20.8086 34.8102 20.7191 34.8269 20.6463C34.8714 20.3944 34.7545 20.1593 34.8269 19.9073C34.8436 19.8513 34.799 19.7898 34.799 19.7618C34.8547 19.5099 34.6989 19.2747 34.8436 19.0564C34.799 18.9668 34.7712 18.8773 34.7267 18.7765C34.6544 18.7989 34.5764 18.8213 34.5041 18.8493C34.4874 18.8325 34.4596 18.8213 34.4317 18.7877C34.4039 18.8269 34.3761 18.8717 34.3594 18.922C34.2704 18.8661 34.1702 18.8661 34.1535 18.7597C34.0978 18.8493 34.0088 18.8045 33.9476 18.8157L33.814 18.95C33.8196 19.006 33.8196 19.0564 33.814 19.1124C33.7417 19.2132 33.7584 19.3027 33.7973 19.4203C33.8251 19.4987 33.8307 19.5882 33.814 19.6722C33.7417 19.8681 33.7417 20.0809 33.814 20.2768C33.8251 20.3328 33.814 20.3888 33.7862 20.4392C33.7528 20.5231 33.7639 20.6183 33.814 20.6911C33.7361 20.7807 33.7361 20.915 33.814 20.999C33.7138 21.1165 33.7417 21.2621 33.7584 21.3685C33.814 21.7212 33.814 21.9003 33.7584 22.2082C33.7417 22.3258 33.7305 22.4433 33.7862 22.5329C33.7417 22.768 33.6971 22.992 33.6693 23.2103L33.9754 23.4342C34.0199 23.3894 34.0644 23.3614 34.109 23.3167C34.2258 23.4342 34.3594 23.3614 34.4874 23.3334C34.5097 23.367 34.5319 23.4062 34.5597 23.4342H34.7657C34.8102 23.3334 34.8658 23.2439 34.9104 23.1375C34.8825 23.1095 34.8547 23.0815 34.838 23.0479V21.9395C34.8825 21.9115 34.9104 21.8947 34.9716 21.8499C34.8992 21.8219 34.8714 21.7939 34.8269 21.7771ZM31.4711 16.7667C31.4154 16.7947 31.3709 16.8283 31.293 16.8731H31.4711V16.7667ZM31.7382 20.4672H31.7827C31.7827 20.4392 31.766 20.4112 31.766 20.3776H31.7382V20.4672ZM31.7382 15.9438H31.766V15.843H31.7382V15.9438ZM35.005 13.7045H35.0328V13.6037H35.005V13.7045ZM35.1942 22.0459V22.0626H35.2498V22.0459H35.1942Z" fill="white"/>
<path d="M25.7724 25.36C25.7001 25.3768 25.611 25.3432 25.5387 25.4048C25.4663 25.4383 25.3828 25.4216 25.3328 25.36C25.2827 25.4272 25.1936 25.4383 25.1268 25.388C25.0545 25.3264 25.01 25.4327 24.9488 25.4048C24.8987 25.3768 24.843 25.36 24.7874 25.36C24.7595 25.36 24.7317 25.388 24.6983 25.4048C24.5369 25.2872 24.3644 25.1696 24.1975 25.0521C24.1195 24.9905 24.0695 24.9009 24.0528 24.8001C24.0361 24.7106 24.0249 24.621 24.0082 24.537C23.947 24.3523 23.9136 24.1564 23.9081 23.9604V21.3796C23.9025 21.2901 23.9248 21.1949 23.9637 21.1165C23.9916 21.0717 24.0194 21.0269 24.0082 20.9822C23.9915 20.9094 23.9526 20.8366 23.9637 20.775C23.9749 20.7134 24.0194 20.6575 24.0082 20.5847C23.9915 20.4671 24.0361 20.3328 23.9637 20.2152C23.947 20.1984 23.9637 20.1872 23.9637 20.1704C23.9637 20.0808 23.947 19.9801 23.9804 19.9185C24.0416 19.8289 23.9081 19.8009 23.9526 19.7114C23.9971 19.6386 23.9359 19.549 23.9804 19.4594C24.0082 19.3979 23.9526 19.3139 23.9526 19.2355C23.9693 19.0452 23.9081 18.8492 23.9971 18.6589C23.9081 18.4797 23.9693 18.2894 23.9526 18.0991C23.9526 18.0263 23.9248 17.9535 23.9971 17.8751C24.0138 17.8583 23.9971 17.8024 23.9804 17.7576C23.9804 17.7296 23.9526 17.7128 23.9526 17.696C23.9248 17.6232 23.9971 17.5504 23.9693 17.4777C23.9359 17.4049 23.947 17.3209 23.9971 17.2537C24.0249 17.209 23.9804 17.1194 23.9693 17.0298L24.0138 16.985C23.9248 16.9234 23.9415 16.8059 23.9693 16.7499C24.0138 16.6491 23.986 16.5596 23.9693 16.47C23.9526 16.3076 23.9526 16.1453 23.9693 15.9829C23.986 15.8374 23.9136 15.675 24.0138 15.5239C24.0249 15.4847 24.0194 15.4399 23.9971 15.4063C23.947 15.3167 23.9415 15.2048 23.9804 15.1096C24.0082 15.0368 24.0416 14.9753 23.9804 14.9025C23.9359 14.8465 24.0249 14.7569 23.9971 14.7233C23.9526 14.6674 23.9693 14.6058 23.9693 14.5442C23.9693 14.4714 23.9526 14.365 23.986 14.3539C24.075 14.3091 23.9136 14.2531 24.0027 14.2083C24.0194 14.1579 24.0194 14.1131 24.0194 14.0627V13.8836C24.0138 13.8332 23.9916 13.7884 23.9637 13.7492C23.9804 13.7325 23.9915 13.7045 24.0082 13.6877C23.9915 13.6541 23.9749 13.6261 23.947 13.5981C23.9693 13.5757 23.9915 13.5533 24.0082 13.5253C24.0082 13.4525 23.8914 13.3798 23.9916 13.2734C24.0361 13.2286 24.0194 13.1278 24.0361 13.0383L23.947 12.9487C23.9637 12.8031 23.9192 12.652 23.9916 12.5064C24.0194 12.4505 23.9915 12.3721 23.9749 12.2881C23.9248 12.137 23.9359 11.9746 24.0027 11.8291C23.986 11.7899 23.9693 11.7507 23.9582 11.7115C23.9415 11.6667 23.9415 11.6107 23.9749 11.5939C24.0472 11.5491 23.9582 11.5211 23.9749 11.4764C23.9915 11.4596 24.0027 11.4372 24.0027 11.4148C23.9804 11.3252 23.9637 11.2412 23.9582 11.1517C23.9582 11.0789 24.0027 11.0061 24.0305 10.8885L24.1362 10.7878C24.2587 10.8102 24.3811 10.827 24.5035 10.8326C24.6204 10.8382 24.7317 10.8662 24.8375 10.9053C24.9098 10.8885 24.9543 10.7262 25.0712 10.8158C25.0879 10.855 25.1046 10.8941 25.1157 10.9333C25.1658 10.8941 25.2159 10.8494 25.2604 10.799C25.394 10.799 25.5387 10.7822 25.6722 10.8606C25.7446 10.8158 25.8058 10.9333 25.8948 10.8606C25.9394 10.8158 26.0395 10.8606 26.1286 10.8606C26.1898 10.9053 26.2621 10.9501 26.3623 11.0229C26.3122 11.0453 26.2566 11.0621 26.2009 11.0789C26.2454 11.3588 26.3011 11.6387 26.2176 11.9354C26.2788 12.3945 26.2788 12.6744 26.2009 12.8031C26.2232 12.8759 26.2399 12.9487 26.2455 13.0271V14.561C26.2455 14.6338 26.2288 14.6953 26.2288 14.7681C26.2288 14.8409 26.2399 14.9193 26.2566 14.9921C26.2733 15.0648 26.2288 15.1544 26.3011 15.216C26.1842 15.3223 26.3178 15.4063 26.3011 15.5127C26.2955 15.6135 26.2955 15.7198 26.3011 15.8206C26.3011 15.8766 26.3289 15.9382 26.2733 15.9829C26.2566 15.9997 26.2454 16.0557 26.2566 16.0725C26.3456 16.2069 26.3011 16.3356 26.3011 16.47V18.0319C26.3011 18.1215 26.3289 18.2222 26.2844 18.2838C26.2288 18.3734 26.3401 18.4014 26.3122 18.4909C26.2844 18.5637 26.3122 18.6701 26.2955 18.7429C26.2844 18.81 26.2733 18.8828 26.251 18.95C26.2677 18.9668 26.2788 18.978 26.2788 18.9948C26.251 19.0676 26.2343 19.1403 26.2065 19.2187C26.2343 19.3251 26.2955 19.4426 26.2955 19.5714V20.9374C26.2955 21.0549 26.251 21.1893 26.251 21.3069C26.2343 21.4244 26.2788 21.5588 26.2343 21.6763C26.1787 21.8555 26.2065 22.001 26.2343 22.1634C26.251 22.2362 26.2176 22.3089 26.1898 22.3985C26.3234 22.5161 26.1453 22.6336 26.1341 22.768C26.1508 22.796 26.162 22.8408 26.1898 22.9024C26.1731 22.9247 26.1564 22.9471 26.1453 22.9751L26.1898 23.0199C26.1731 23.0367 26.1564 23.0591 26.1453 23.0759C26.2454 23.1487 26.3345 23.2214 26.4514 23.311C26.5961 23.1767 26.7853 23.1375 26.9912 23.1487C27.1971 23.1599 27.1971 23.1487 27.2694 23.1207C27.314 23.1431 27.3585 23.1655 27.403 23.1767C27.3752 23.2382 27.3585 23.2662 27.3307 23.3222V23.2942C27.3028 23.2942 27.2583 23.311 27.2249 23.311V23.339C27.2639 23.339 27.2973 23.3334 27.3307 23.311C27.3752 23.283 27.4253 23.2606 27.4754 23.255C27.4754 23.2718 27.4921 23.311 27.4921 23.3446L27.4754 23.3278C27.4587 23.3446 27.4475 23.3558 27.4308 23.3558L27.4475 23.3726C27.4642 23.3558 27.4754 23.3446 27.4754 23.3278C27.5366 23.3446 27.5978 23.311 27.6201 23.2494C27.6201 23.2438 27.6256 23.2326 27.6256 23.227C27.6256 23.0815 27.7147 22.9639 27.6813 22.8016C27.6757 22.6728 27.6757 22.5441 27.6813 22.4153C27.6813 22.3705 27.7091 22.3425 27.7258 22.2809C27.6813 22.1634 27.6367 22.029 27.7091 21.9003C27.7202 21.8611 27.7258 21.8219 27.7258 21.7827V21.2397C27.7369 21.1501 27.7147 21.0549 27.6701 20.9766C27.7592 20.9038 27.6256 20.831 27.6701 20.7526C27.7425 20.6966 27.8037 20.7078 27.8594 20.7974C27.8872 20.6071 27.698 20.6519 27.6701 20.5343V20.1816L27.8482 20.0473C27.826 20.0081 27.8037 19.9745 27.7759 19.9465C27.7926 19.9185 27.8204 19.8905 27.8204 19.8737C27.8037 19.7841 27.7647 19.7002 27.8037 19.6554C27.8761 19.5658 27.7314 19.5378 27.7759 19.4482C27.8037 19.3923 27.7481 19.2859 27.8482 19.2411C27.8315 19.2131 27.7926 19.1851 27.7926 19.1515C27.8093 18.9164 27.6312 18.6813 27.7759 18.4462C27.8037 18.3846 27.7202 18.3398 27.7592 18.267C27.787 18.2054 27.8037 18.1606 27.7425 18.1047C27.7258 18.0879 27.7147 18.0487 27.7258 18.0319C27.787 17.8975 27.7258 17.752 27.7258 17.6176C27.7258 17.5448 27.7536 17.4721 27.6813 17.3937C27.6534 17.3657 27.6813 17.2761 27.698 17.2313C27.698 17.1866 27.7425 17.1418 27.7258 17.1138C27.6367 16.9794 27.6813 16.8619 27.7258 16.7275C27.7425 16.6995 27.7258 16.6547 27.7258 16.6267V15.2384C27.7258 15.1712 27.7147 15.0984 27.698 15.0312C27.7425 14.7513 27.7536 14.4826 27.6813 14.2195C27.698 14.2027 27.7091 14.1747 27.7425 14.1579C27.6367 13.9676 27.6701 13.7436 27.698 13.5533C27.7147 13.391 27.7703 13.2286 27.7258 13.0831C27.6701 12.8479 27.698 12.624 27.6813 12.4057C27.6813 12.3329 27.6534 12.2601 27.7258 12.1817C27.7425 12.1482 27.7425 12.109 27.7258 12.081C27.6367 11.9186 27.698 11.7395 27.698 11.5659C27.698 11.4036 27.787 11.2412 27.698 11.0341C27.7425 11.0453 27.787 11.0565 27.8315 11.0621L27.9206 11.1069C27.9261 11.0789 27.9373 11.0453 27.9484 11.0173C27.9094 11.0061 27.8649 10.9837 27.8315 10.9557C27.8594 10.9109 27.8872 10.8662 27.9206 10.8214C28.1543 10.9669 28.4326 10.7934 28.683 10.9389C28.7554 10.9109 28.8277 10.8326 28.9056 10.9221C28.978 10.8606 29.067 10.8941 29.1393 10.8774C29.2284 10.8494 29.284 10.9389 29.3898 10.8941C29.4733 10.8718 29.5567 10.8718 29.6402 10.8941C29.7181 10.9165 29.796 10.9389 29.874 10.9669C29.874 10.9949 29.8906 11.0117 29.8906 11.0397C29.9352 11.0565 29.9797 11.0565 30.0353 11.0677C30.0075 11.1573 29.9908 11.2412 29.9797 11.3308C30.0186 11.3588 30.0632 11.3756 30.1133 11.3924C29.9964 11.5827 29.924 11.7619 30.0966 11.9522C30.0799 11.969 30.0632 11.9914 30.052 12.0138C30.0687 12.0418 30.0966 12.0698 30.1244 12.1146C30.0687 12.1426 30.0242 12.1705 29.9908 12.1873C30.0131 12.2321 30.0353 12.2769 30.0632 12.3217C30.0298 12.3385 29.9964 12.3441 29.9574 12.3497C29.9574 12.3665 29.9407 12.3777 29.9407 12.3945C29.9407 12.4952 29.924 12.6016 29.9964 12.6912C30.1133 12.8367 30.1021 13.0159 30.1021 13.195C30.1021 13.251 30.0576 13.2958 30.0576 13.3574C30.0576 13.4022 30.1021 13.4749 30.0854 13.4749C30.0131 13.5309 30.1466 13.5645 30.1021 13.6205C30.0854 13.6373 30.1021 13.6653 30.1021 13.6933C30.0854 13.766 30.0576 13.8556 30.0854 13.8836C30.1466 13.9564 30.0298 14.018 30.1021 14.1019C30.1466 14.1467 30.1021 14.2475 30.1021 14.3203V15.3391C30.1021 15.4119 30.0743 15.5015 30.1466 15.5743C30.1633 15.6135 30.1578 15.6582 30.13 15.6918C30.0409 15.7814 30.13 15.8374 30.1466 15.927C30.13 15.9549 30.1077 15.9885 30.0854 16.0165C30.0966 16.0389 30.1133 16.0557 30.13 16.0725C30.1133 16.2181 30.1133 16.3356 30.1021 16.442C30.0743 16.5596 30.2468 16.6603 30.1021 16.7667C30.1912 16.8563 30.1578 16.957 30.13 17.0466C30.1021 17.097 30.1021 17.1586 30.13 17.209C30.1578 17.2593 30.1689 17.3153 30.1578 17.3713C30.0854 17.4441 30.2023 17.5057 30.1578 17.5616C30.1133 17.6232 30.1021 17.696 30.1133 17.7688C30.1077 17.8471 30.1077 17.9255 30.1133 18.0039C30.1856 18.211 30.1578 18.4014 30.1578 18.6085C30.1578 18.6645 30.1856 18.7261 30.1133 18.7709C30.0966 18.7877 30.0966 18.8436 30.0966 18.8716C30.1689 19.0676 30.1689 19.2803 30.0966 19.4762C30.091 19.5322 30.091 19.5826 30.0966 19.6386C30.0799 19.7114 30.1244 19.8009 30.052 19.8905C30.0242 19.9185 30.0353 20.0081 30.0687 20.0529C30.1133 20.1592 30.1133 20.2824 30.0687 20.3943C30.0576 20.4559 30.0687 20.5175 30.0966 20.5735C30.0799 20.6295 30.0687 20.7078 30.052 20.7638C30.0242 20.8366 30.1077 20.8814 30.0799 20.971C30.052 21.0437 30.0632 21.1165 30.052 21.1893V21.6316C30.0353 21.7939 30.0687 21.9395 30.0075 22.1018C29.9686 22.2082 29.9797 22.3257 30.0353 22.4265C30.0465 22.4377 30.052 22.4545 30.052 22.4713C30.052 22.5721 29.9519 22.6616 30.0353 22.796C30.0966 22.8688 30.052 23.0199 30.052 23.1207C30.052 23.2382 30.0799 23.3726 30.052 23.4902C29.9908 23.7253 30.0242 23.9604 30.0075 24.1955C29.9908 24.3691 29.9018 24.5202 29.8294 24.6658C29.7738 24.8001 29.6068 24.9009 29.4788 25.0073C29.2785 25.1528 29.0336 25.2256 28.7887 25.2144C28.6997 25.2144 28.5995 25.1864 28.5105 25.2592C28.4938 25.2312 28.466 25.2032 28.466 25.1864C28.2879 25.0969 28.171 25.2312 28.0263 25.2032C27.8927 25.1864 27.7481 25.248 27.659 25.1752C27.5588 25.192 27.4531 25.22 27.3807 25.192C27.2917 25.1472 27.186 25.136 27.0858 25.164C26.8799 25.2368 26.6628 25.192 26.4569 25.2088C26.4124 25.2088 26.3846 25.2368 26.3401 25.2536C26.2065 25.1976 26.0896 25.1976 25.9004 25.2536C25.8781 25.416 25.8002 25.4607 25.7724 25.36C25.7891 25.3544 25.8002 25.3376 25.8169 25.3264L25.8002 25.3096C25.8002 25.332 25.7891 25.3432 25.7724 25.36ZM24.2197 13.1446C24.2197 13.1222 24.2086 13.0998 24.1919 13.0831L24.1752 13.0998C24.1919 13.1222 24.2253 13.1278 24.2475 13.1166C24.2142 13.1614 24.1752 13.2006 24.1307 13.2342C24.1752 13.223 24.2197 13.2174 24.2642 13.2174C24.2809 13.1838 24.2698 13.1558 24.2197 13.1446ZM29.5957 11.1965C29.6569 11.2244 29.6959 11.2412 29.7849 11.286C29.7293 11.1853 29.7126 11.1405 29.6847 11.0789C29.668 11.1237 29.6346 11.1629 29.5957 11.1965ZM25.9394 11.0061C25.9505 11.0397 25.9561 11.0733 25.9561 11.1069C25.9783 11.0677 26.0006 11.0341 26.0284 11.0061H25.9394ZM26.1397 11.0621H26.1008C26.1008 11.0901 26.1175 11.1237 26.1175 11.1517H26.1453V11.0621H26.1397ZM25.3773 11.1069H25.394V11.0509H25.3773V11.1069ZM24.5759 13.2454H24.5592V13.307H24.5759V13.2454Z" fill="white"/>
<path d="M41.6721 23.339C41.7722 23.367 41.9058 23.2942 41.9948 23.3838C42.0338 23.3278 42.0783 23.283 42.1284 23.2382V23.0591C42.1451 22.9863 42.1562 22.9136 42.1729 22.8352C42.1451 22.8184 42.1173 22.8184 42.0839 22.8072L42.0672 22.7904C42.0449 22.6616 42.0449 22.5329 42.0505 22.4041C42.0672 22.2866 42.1061 22.1802 42.0227 22.0682C42.006 22.029 42.0115 21.9842 42.0394 21.9507C42.0839 21.8947 42.1006 21.8331 42.0394 21.7715C41.967 21.6987 42.1117 21.6092 42.0227 21.5364C42.0783 21.4188 41.9948 21.2845 42.0227 21.1669C42.0505 21.0325 41.9948 20.887 42.0672 20.7414C42.0783 20.6911 42.0728 20.6407 42.0505 20.5959C42.006 20.5063 41.9948 20.3999 42.0227 20.2992C42.0783 20.0193 42.0783 20.0025 42.0227 19.7841C41.9948 19.6666 41.9782 19.549 42.0672 19.4426C41.9336 19.2187 42.095 18.9388 41.9503 18.7037L41.8613 18.7485C41.7889 18.5861 41.583 18.6141 41.494 18.407C41.494 18.3622 41.6275 18.2894 41.5107 18.1998C41.5663 18.0655 41.4383 17.9199 41.5274 17.7856C41.5385 17.7632 41.5441 17.7352 41.5441 17.7128C41.5608 17.5952 41.4439 17.4889 41.5274 17.3601C41.583 17.2705 41.4995 17.125 41.583 17.0186C41.583 16.7947 41.583 16.7835 41.6554 16.5764C41.6999 16.5932 41.7555 16.5932 41.8001 16.6043C41.9781 16.5876 42.1507 16.5596 42.3399 16.5484C42.3677 16.5764 42.39 16.6043 42.4122 16.6379C42.4735 16.6099 42.5347 16.5764 42.5903 16.5316C42.735 16.6043 42.8964 16.6099 43.0467 16.5484C43.119 16.6379 43.2248 16.5932 43.3249 16.5764C43.375 16.5596 43.4195 16.5484 43.4696 16.5484C43.6588 16.5932 43.6588 16.5932 43.8814 16.5484C43.9649 16.5428 44.0484 16.5428 44.1319 16.5484C44.1152 16.5932 44.1041 16.6379 44.0874 16.6827C44.2321 16.8731 44.3489 17.097 44.2321 17.3769C44.2543 17.4105 44.271 17.4553 44.2766 17.4945C44.2599 17.612 44.2042 17.7184 44.2766 17.8472C44.3322 17.9647 44.2933 18.1103 44.2933 18.2614V18.6477C44.2933 18.7373 44.31 18.8212 44.2487 18.9108C44.2042 18.9892 44.2042 19.0844 44.2487 19.1627C44.3044 19.2523 44.2933 19.3419 44.2933 19.4259V20.4727C44.2933 20.5623 44.31 20.6519 44.2487 20.7358C44.2209 20.7806 44.2654 20.8702 44.2766 20.9878C44.2599 21.0269 44.2487 21.0661 44.2487 21.1053C44.2654 21.2845 44.232 21.458 44.2766 21.6372C44.3322 21.7995 44.3211 21.9842 44.2487 22.141C44.2209 22.2026 44.2487 22.2866 44.2321 22.3761C44.2321 22.4209 44.2042 22.4657 44.1875 22.5553C44.2265 22.628 44.2599 22.7064 44.2766 22.7904C44.2877 22.8632 44.2766 22.9415 44.2487 23.0143C44.2098 23.0983 44.2098 23.1935 44.2487 23.2774C44.2654 23.3054 44.2654 23.3334 44.2766 23.367C44.3044 23.4678 44.143 23.5573 44.2766 23.6637C44.2599 23.7701 44.3044 23.8708 44.2321 23.9604C44.3044 24.0612 44.2599 24.1676 44.2154 24.2851C44.1875 24.3859 44.1875 24.5202 44.1597 24.6266C44.1319 24.7106 44.0874 24.7946 44.0261 24.8617C43.9538 24.9345 43.8814 25.0241 43.8035 25.1137V25.1416C43.3639 25.3768 42.9075 25.5111 42.3955 25.3936C42.2341 25.4943 42.0004 25.3656 41.8112 25.4663C41.7667 25.444 41.7222 25.4216 41.6776 25.3936C41.5775 25.4104 41.455 25.4384 41.3382 25.4663L41.1935 25.3936L41.1768 25.4104C41.1434 25.4607 41.0822 25.4719 41.0321 25.4384C41.0265 25.4328 41.0209 25.4272 41.0154 25.4216C40.9542 25.3656 40.9263 25.4831 40.8707 25.4496C40.815 25.4216 40.7538 25.4104 40.6926 25.4048C40.6036 25.4719 40.4811 25.4663 40.3976 25.388C40.2808 25.444 40.1639 25.4775 40.047 25.388C39.9302 25.444 39.7966 25.4887 39.6686 25.388C39.6408 25.3992 39.6185 25.4216 39.5963 25.444C38.9396 25.2536 39.0119 25.2088 38.7448 24.9569C38.7726 24.7778 38.5556 24.7498 38.5556 24.6602C38.511 24.3635 38.4832 24.1284 38.4387 23.8653C38.6001 23.7029 38.3663 23.479 38.4665 23.2886C38.4498 23.2159 38.422 23.1263 38.4498 23.0647C38.5055 22.9024 38.4776 22.7568 38.4665 22.5945C38.4665 22.5777 38.4387 22.5665 38.4387 22.5665C38.4554 22.5385 38.4832 22.5105 38.4832 22.4769C38.4554 22.197 38.5389 21.9171 38.4387 21.6372C38.511 21.458 38.3663 21.2845 38.422 21.1053C38.4943 20.8982 38.4665 20.7079 38.4665 20.5007C38.4832 20.3104 38.3775 20.1312 38.4053 19.9577C38.4331 19.8233 38.4331 19.6778 38.4665 19.5434C38.4832 19.4538 38.4053 19.3811 38.4498 19.2915C38.4777 19.2187 38.4331 19.1124 38.5055 19.0564C38.4777 18.894 38.5333 18.7317 38.461 18.5525C38.4109 18.4294 38.422 18.295 38.4888 18.183C38.4721 18.0655 38.461 17.9759 38.4443 17.8863C38.5778 17.752 38.5611 17.6064 38.5444 17.4609C38.511 17.4441 38.4776 17.4329 38.4443 17.4329C38.4665 17.3713 38.4832 17.3041 38.4888 17.2425C38.4888 17.1866 38.5166 17.1082 38.4443 17.0522C38.5444 17.0074 38.3886 16.9514 38.4721 16.8731C38.4888 16.8731 38.4999 16.8675 38.5166 16.8563C38.5166 16.8451 38.5222 16.8339 38.5333 16.8283C38.5166 16.8003 38.4888 16.7835 38.4888 16.7723C38.5166 16.5204 38.4331 16.2852 38.4331 16.0333V15.2832C38.4331 15.2384 38.461 15.2104 38.4777 15.1656C38.4053 15.1208 38.4498 15.0312 38.4331 14.9585V14.7233C38.4331 14.6674 38.3775 14.561 38.3886 14.5442C38.4888 14.4546 38.3608 14.4098 38.3719 14.3371C38.3886 14.3203 38.3997 14.2923 38.4276 14.2643C38.3385 14.1635 38.3997 14.0124 38.3552 13.9116C38.2996 13.7772 38.2996 13.6205 38.3552 13.4861C38.3719 13.4581 38.3552 13.3966 38.3552 13.3518V12.7472C38.3608 12.5008 38.3775 12.2545 38.4164 12.0082C38.4387 11.8962 38.4498 11.7843 38.461 11.6667C38.4888 11.5044 38.5945 11.3868 38.6947 11.2692C38.7837 11.1685 38.8839 11.0789 38.9896 10.9725C39.062 10.9613 39.1288 10.9333 39.1789 10.883C39.3124 10.7654 39.3236 10.7766 39.4849 10.855H39.5128C39.5462 10.8158 39.5963 10.7934 39.6463 10.799H40.5646L40.5813 10.8158L40.6258 10.8606C40.726 10.8438 40.8039 10.7598 40.9208 10.8438C40.9653 10.8718 41.0822 10.8606 41.1545 10.827C41.2547 10.799 41.3326 10.799 41.4049 10.855C41.5051 10.799 41.6108 10.7654 41.711 10.827C41.8001 10.8718 41.8557 10.8886 41.9448 10.827C41.9726 10.799 42.0449 10.8102 42.0895 10.8102C42.1785 10.827 42.2787 10.7654 42.351 10.855C42.4234 10.799 42.5291 10.8102 42.6126 10.8102H42.8908C42.9688 10.8102 43.0411 10.827 43.1134 10.855C43.1691 10.883 43.2915 10.8382 43.3361 10.8718C43.4084 10.9165 43.4974 10.8886 43.542 10.9165C43.7034 11.0509 43.9093 11.1237 43.9816 11.342C44.0039 11.4092 44.0373 11.4652 44.0818 11.5212C44.0651 11.6667 44.1096 11.8291 44.054 11.9914L44.0818 12.0194C44.1096 12.0922 43.9816 12.1202 44.054 12.2097C44.0818 12.2377 44.0261 12.3273 44.0373 12.3889C44.054 12.5512 43.9927 12.7304 44.0818 12.8871C44.0985 12.9319 44.0985 12.9767 44.0818 13.0215C44.0595 13.0831 44.0428 13.1502 44.0373 13.2118C44.0373 13.2846 44.0094 13.3574 44.0651 13.4302C44.0929 13.4581 44.0373 13.5477 44.0373 13.6093C44.0373 13.6821 44.054 13.7548 44.054 13.8276C44.054 13.9004 44.0261 13.9732 44.0373 14.0516C44.054 14.1859 43.9927 14.3147 43.9649 14.4658C43.8759 14.449 43.7757 14.4378 43.6588 14.421C43.5253 14.4938 43.3528 14.449 43.1914 14.449C43.0133 14.4658 42.8241 14.4322 42.6515 14.449C42.4735 14.4658 42.3288 14.393 42.1507 14.393C42.0616 14.3203 42.0338 14.2475 42.1228 14.1579L42.0672 14.0963C42.095 14.0795 42.1228 14.0684 42.1562 14.0684C42.1562 14.0516 42.1618 14.0404 42.1729 14.0236C42.1284 13.962 42.1284 13.906 42.1173 13.8332C42.1173 13.7157 42.1451 13.5813 42.0728 13.4637C42.0561 13.4469 42.0728 13.391 42.0895 13.3742C42.1618 13.2846 42.134 13.2286 42.0728 13.1838C42.1006 13.0943 42.1173 12.9991 42.1284 12.9039H41.9503C41.9058 12.8591 41.8613 12.8311 41.8168 12.7864C41.8001 12.8031 41.7722 12.8031 41.7611 12.8143C41.6721 12.8815 41.5608 12.9095 41.455 12.9039C41.2936 12.8871 41.1211 12.9207 40.9542 12.8591C40.854 12.8311 40.7316 12.8871 40.6202 12.9039C40.5757 13.0943 40.6202 13.2566 40.6759 13.419C40.6926 13.4749 40.7037 13.5365 40.7037 13.5981C40.6425 13.9228 40.6314 13.9396 40.7037 14.2307V14.3035C40.7316 14.393 40.5869 14.4658 40.687 14.5834C40.7315 14.645 40.7037 14.7625 40.7037 14.8633V15.1712C40.7037 15.2328 40.7315 15.3056 40.6592 15.3615C40.6425 15.3783 40.6314 15.4343 40.6425 15.4511C40.7315 15.5575 40.687 15.6862 40.687 15.7926C40.7037 15.9997 40.6425 16.2069 40.7427 16.3972V16.442L40.6982 16.7499C40.7983 16.8395 40.7427 16.957 40.7427 17.0746C40.7594 17.2202 40.6536 17.3713 40.687 17.5169C40.7149 17.6344 40.6592 17.752 40.7316 17.8528C40.7594 17.8975 40.7482 17.9703 40.7316 18.0319C40.7093 18.0823 40.6926 18.1383 40.687 18.1942C40.687 18.2502 40.7316 18.295 40.7316 18.3566C40.7316 18.4462 40.6592 18.5637 40.687 18.6197C40.7427 18.7093 40.7149 18.7989 40.7316 18.8828C40.7316 18.9108 40.7037 18.9388 40.7037 18.9724C40.7037 19.0284 40.7204 19.09 40.7204 19.1963C40.6648 19.2523 40.6648 19.3475 40.7204 19.4035C40.726 19.4091 40.7316 19.4091 40.7316 19.4147C40.6425 19.5938 40.6592 19.7562 40.7149 19.9577C40.6703 20.0473 40.6258 20.1648 40.7316 20.2992C40.6759 20.3664 40.6592 20.4615 40.687 20.5511C40.7315 20.6855 40.7427 21.2453 40.7037 21.3908C40.7037 21.4076 40.6926 21.4188 40.6759 21.4188C40.7649 21.5084 40.7316 21.6092 40.7037 21.6987C40.6592 21.7827 40.6592 21.8835 40.7037 21.9619C40.7482 22.0458 40.7316 22.141 40.6759 22.2138C40.7316 22.3313 40.7649 22.4489 40.6759 22.5665C40.6982 22.5889 40.7149 22.6112 40.7316 22.6392C40.7037 22.684 40.6592 22.7288 40.6425 22.7568C40.6592 22.8464 40.6703 22.9359 40.687 23.0087C40.6314 23.0983 40.5256 23.1431 40.5256 23.2438C40.5813 23.3054 40.5702 23.1991 40.5813 23.2159C40.726 23.2438 40.815 23.3334 40.9597 23.2886C41.0321 23.2606 41.1378 23.3166 41.2102 23.3502C41.2658 23.3054 41.3103 23.255 41.3604 23.2047C41.3882 23.2271 41.4161 23.2494 41.4495 23.2606C41.4717 23.2382 41.494 23.2215 41.5218 23.2047C41.6554 23.2662 41.6721 23.2886 41.6721 23.339C41.6442 23.339 41.6442 23.3502 41.6275 23.367L41.6442 23.3838C41.6442 23.3726 41.6554 23.3558 41.6721 23.339ZM42.4178 22.2754C42.3288 22.2921 42.2842 22.2921 42.1952 22.3033C42.2286 22.3537 42.2675 22.4041 42.3121 22.4489C42.3566 22.3985 42.39 22.3425 42.4178 22.2754ZM41.7277 23.7085C41.7722 23.6189 41.8891 23.6077 41.8446 23.4846C41.8168 23.5629 41.6888 23.5741 41.7277 23.7085ZM42.2842 22.7512C42.3009 22.7512 42.3009 22.768 42.3121 22.768C42.3343 22.7288 42.3566 22.684 42.3677 22.6336C42.3399 22.6056 42.3232 22.5777 42.3121 22.5609C42.2954 22.5777 42.2842 22.5889 42.2842 22.6056V22.7512ZM43.8425 11.9914C43.8759 11.9802 43.9093 11.9746 43.9427 11.9746C43.9037 11.9522 43.8703 11.9298 43.8425 11.9018V11.9914ZM43.9594 24.6378H43.9872V24.537H43.9594V24.6378ZM43.8592 23.4902H43.8759V23.4342H43.8592V23.4902ZM43.5197 16.8283H43.503V16.8843H43.5197V16.8283ZM43.6644 11.2077H43.6477V11.2692H43.6644V11.2077ZM39.1844 11.2412V11.2244H39.1288V11.2412H39.1844Z" fill="white"/>
<path d="M18.9327 25.1696C18.9605 25.2592 18.9772 25.304 18.9884 25.3488C18.7936 25.4216 18.5932 25.4775 18.3873 25.5111C18.3428 25.4384 18.2426 25.4831 18.1647 25.4831H17.636C17.5525 25.4887 17.4691 25.4775 17.3856 25.4552C17.2965 25.4384 17.2409 25.4999 17.163 25.4831C17.0906 25.4552 17.0127 25.4384 16.9348 25.4216C16.9014 25.3376 16.8736 25.2536 16.8458 25.1696C16.8179 25.1529 16.7567 25.0969 16.7122 25.0689V23.0647C16.7066 22.9751 16.7011 22.8856 16.6844 22.8016C16.6955 22.7568 16.7066 22.712 16.7122 22.6672C16.7178 22.5553 16.7178 22.4433 16.7122 22.3257C16.6844 21.9283 16.7567 21.5308 16.7567 21.1333C16.7456 21.0437 16.7345 20.9542 16.7122 20.8702C16.7289 20.8534 16.7456 20.8366 16.7567 20.8142C16.6677 20.7414 16.74 20.6071 16.6565 20.5063C16.6399 20.4839 16.6399 20.4559 16.6565 20.4335C16.7567 20.2432 16.7122 20.0473 16.6565 19.8569C16.7011 19.7394 16.8625 19.7114 16.8179 19.577C16.7456 19.5322 16.6844 19.4874 16.612 19.4427C16.5675 19.4594 16.523 19.4874 16.4785 19.4986C16.4618 19.4706 16.4506 19.4706 16.4506 19.4539C16.3616 18.9388 16.4061 18.4238 16.395 17.9199C16.395 17.8416 16.4061 17.7576 16.4395 17.6848C16.4618 17.6064 16.4896 17.5337 16.5285 17.4609C16.5731 17.3881 16.5564 17.2705 16.7066 17.2537V16.8115C16.7066 16.7947 16.6788 16.7667 16.6788 16.7835C16.6955 16.6939 16.7066 16.61 16.7066 16.5204V14.9529C16.7122 14.8913 16.7178 14.8353 16.7345 14.7737C16.7345 14.7737 16.7066 14.7569 16.7066 14.7457C16.6899 14.5666 16.6454 14.3763 16.6788 14.2027C16.7345 13.8948 16.651 13.5701 16.7345 13.2454C16.7178 13.2174 16.7011 13.1894 16.6899 13.1558C16.7011 13.1335 16.7178 13.1167 16.7345 13.0999C16.7178 12.9823 16.7066 12.8647 16.7066 12.7472C16.7066 12.6856 16.6899 12.6296 16.7345 12.5848C16.7512 12.568 16.7623 12.512 16.7512 12.4953C16.651 12.3329 16.7233 12.1426 16.7066 11.9634C16.6899 11.8291 16.7512 11.7003 16.6621 11.5659C16.6454 11.5436 16.6454 11.5156 16.6621 11.4932C16.7623 11.3476 16.6899 11.1685 16.7178 11.0061C16.7623 10.9781 16.8179 10.9333 16.907 10.8718C17.0238 10.8886 17.1574 10.9166 17.291 10.9333C17.4357 10.9389 17.5859 10.9389 17.7306 10.9333C17.803 10.9333 17.9087 10.9781 17.9644 10.8886C17.9978 10.8718 18.0367 10.8718 18.0645 10.8886C18.315 10.9501 18.315 10.9613 18.5932 10.8886C18.6656 10.8718 18.7268 10.9949 18.7824 10.9054C18.8993 10.9781 19.044 10.8158 19.1664 10.9501C19.1831 10.9669 19.211 10.9501 19.2388 10.9501C19.2833 10.9501 19.339 10.9221 19.3835 10.9221C19.4391 10.9221 19.5004 10.9501 19.5616 10.9501C19.684 10.9501 19.8064 10.9333 19.9289 10.9054C20.1348 10.8606 20.3518 10.9333 20.5577 11.0061C20.5856 10.9893 20.6023 10.9613 20.619 10.9501C20.6913 10.9669 20.7525 10.9949 20.8249 11.0061C20.836 10.9725 20.8527 10.9389 20.8694 10.9054C20.8861 10.9054 20.8972 10.8886 20.9139 10.8886C21.0308 10.9501 21.1198 10.9501 21.2645 10.9501C21.3814 10.9501 21.515 10.9054 21.6318 11.0061C21.6596 10.9893 21.6819 10.9725 21.7042 10.9501C21.9657 11.0061 22.2162 11.0845 22.3943 11.3644C22.3943 11.3476 22.3776 11.3924 22.3943 11.4204C22.5111 11.5827 22.5 11.7731 22.5 11.9522V12.4505C22.5056 12.5176 22.5167 12.5792 22.5445 12.6408C22.4833 12.7136 22.4722 12.8199 22.5612 12.9375C22.5389 12.9879 22.5223 13.0439 22.5167 13.0999V13.8052C22.5167 13.9676 22.4722 14.1299 22.5 14.2923C22.5167 14.4546 22.5445 14.6002 22.4833 14.7513C22.5723 14.8129 22.4833 14.8689 22.4833 14.8969C22.5056 14.9641 22.5167 15.0312 22.5278 15.104V16.929C22.5278 17.0186 22.4666 17.0746 22.5111 17.181C22.5556 17.2537 22.4944 17.3601 22.4666 17.4441C22.4499 17.4721 22.4499 17.5449 22.4833 17.5617C22.5445 17.6176 22.5278 17.696 22.5278 17.752V18.6645C22.5278 18.7821 22.3497 19.2523 22.2774 19.3139C22.1883 19.3867 22.0993 19.4483 21.9991 19.5042C21.9546 19.4874 21.9101 19.4706 21.8656 19.4595C21.8433 19.5098 21.8099 19.5602 21.7765 19.605C21.693 19.6106 21.6096 19.6106 21.5261 19.605C21.4537 19.5882 21.3925 19.6946 21.3369 19.605C21.3146 19.6106 21.2979 19.6218 21.2757 19.633C21.1421 19.6778 21.1143 19.6778 20.9974 19.6162C20.9083 19.633 20.8249 19.6442 20.7358 19.6442H19.1108C19.0718 19.6722 19.0273 19.7002 18.9939 19.7338C19.0217 19.7785 19.044 19.8177 19.0663 19.8681C19.0496 19.8961 19.0384 19.9129 19.0217 19.9409C19.0496 20.0137 19.0774 20.0865 19.1108 20.148C19.0941 20.2488 19.0496 20.372 19.083 20.4447C19.1553 20.6799 19.1275 20.9318 19.0997 21.1669C19.0997 21.2117 19.1275 21.2677 19.1275 21.3125V21.7547C19.1275 21.7995 19.1553 21.8275 19.172 21.8723C19.1497 21.9395 19.1331 22.0066 19.1275 22.0794V22.5833C19.1275 22.7624 19.1553 22.936 19.083 23.1151C19.044 23.2047 19.0551 23.3054 19.1108 23.3782C19.1386 23.4118 19.1442 23.4566 19.1275 23.4958C19.0551 23.6301 19.2165 23.7757 19.083 23.8932L19.1108 23.9212V25.0801C19.0496 25.0521 18.9884 25.1081 18.9327 25.1696ZM18.7379 17.1922C18.7379 17.1698 18.7268 17.1474 18.7101 17.1362L18.6934 17.153C18.7101 17.181 18.7268 17.181 18.7379 17.1922C18.7546 17.209 18.7658 17.2258 18.7658 17.237L18.7824 17.2202C18.7824 17.209 18.7713 17.1922 18.7379 17.1922ZM19.1052 16.9123C18.9995 16.9682 18.9717 17.013 18.9438 17.1754C19.0607 17.1754 19.0774 17.3097 19.1943 17.3545C19.3111 17.3881 19.4391 17.4049 19.5616 17.3993C19.7397 17.3993 19.9122 17.3713 20.1014 17.3545C20.1292 17.3825 20.1737 17.4105 20.2016 17.4441C20.157 17.3097 20.1292 17.1922 20.2016 17.0466C20.235 17.097 20.2739 17.1418 20.3184 17.181C20.3351 17.209 20.363 17.2258 20.4353 17.2705C20.4075 17.0914 20.3741 16.9458 20.3463 16.8115L20.2572 17.0354C20.2294 16.8115 19.9957 16.6211 20.1682 16.4028C20.1404 16.358 20.1237 16.33 20.0958 16.2853C20.1292 16.2629 20.1682 16.2405 20.196 16.2125C20.1793 16.1565 20.1626 16.1061 20.1515 16.0501V15.4735C20.1515 15.4175 20.107 15.3559 20.107 15.2832C20.0903 15.216 20.0903 15.1432 20.107 15.076C20.1348 14.9697 20.196 14.8857 20.107 14.7793C20.0791 14.4994 20.1515 14.2027 20.0624 13.9228C20.1682 13.7325 20.0791 13.5365 20.1237 13.3462L20.196 13.2734C20.1515 13.1726 20.1237 13.0663 20.0791 12.9655L19.8621 13.0103C19.8454 12.9823 19.8454 12.9487 19.8343 12.9207C19.7452 12.9935 19.6896 12.8927 19.6005 12.9207C19.5115 12.9263 19.4224 12.9263 19.339 12.9207H19.1052C19.0607 13.0215 19.0162 13.1279 18.9884 13.2174L19.0774 13.307C19.0774 13.3798 19.1052 13.4693 19.0774 13.5253C19.0329 13.6149 19.1052 13.6709 19.0774 13.7437C19.0051 13.9508 19.0051 14.1747 19.0774 14.3763C19.1052 14.449 19.0607 14.5554 19.0496 14.6562C19.2277 14.7905 18.9327 14.9809 19.0774 15.1432V16.3244C19.0997 16.5204 19.1108 16.7163 19.1052 16.9123ZM16.907 14.7457C17.0127 14.673 16.996 14.5834 16.9682 14.4658C16.9292 14.4994 16.8903 14.5274 16.8513 14.5554C16.8625 14.6226 16.8792 14.6842 16.907 14.7457ZM16.868 20.7023C16.8958 20.775 16.9292 20.8478 17.0294 20.8198C17.0016 20.7694 16.9738 20.7135 16.9571 20.6575C16.9237 20.6855 16.8958 20.6855 16.868 20.7023ZM19.2666 17.668C19.3278 17.6512 19.3724 17.6512 19.4447 17.64C19.3891 17.612 19.3278 17.5896 19.2666 17.5672V17.668ZM16.8792 14.4098L16.907 14.4378C16.9348 14.4378 16.9515 14.421 16.9793 14.421C16.9738 14.3763 16.9626 14.3315 16.9515 14.2867C16.9237 14.3483 16.8958 14.3763 16.8792 14.4098ZM19.5783 17.668C19.6117 17.6568 19.6451 17.6512 19.684 17.6512C19.6451 17.6288 19.6117 17.6064 19.5783 17.5784V17.668ZM20.0457 17.6232V17.64H20.1014V17.6232H20.0457ZM18.5376 24.078V24.0948H18.5988V24.078H18.5376ZM20.3518 16.7387V16.7555H20.4075V16.7387H20.3518ZM16.6176 19.3475V19.3643H16.6732V19.3475H16.6176ZM16.8402 19.7562V19.773H16.8958V19.7562H16.8402ZM16.9237 20.1144H16.907V20.1704H16.9181L16.9237 20.1144Z" fill="white"/>
<path d="M14.5641 9.71853C14.6364 9.64575 14.7088 9.57297 14.859 9.61776C14.7255 9.66254 14.642 9.69053 14.5641 9.71853Z" fill="white"/>
<path d="M14.5641 9.70734C14.5474 9.72413 14.5362 9.73533 14.5362 9.75212L14.5195 9.73533C14.5195 9.71853 14.5362 9.70734 14.5641 9.70734Z" fill="white"/>
<path d="M67.9176 28V10.5455H74.1392C75.4972 10.5455 76.6222 10.7926 77.5142 11.2869C78.4063 11.7812 79.0739 12.4574 79.517 13.3153C79.9602 14.1676 80.1818 15.1278 80.1818 16.196C80.1818 17.2699 79.9574 18.2358 79.5085 19.0938C79.0653 19.946 78.3949 20.6222 77.4972 21.1222C76.6051 21.6165 75.483 21.8636 74.1307 21.8636H69.8523V19.6307H73.892C74.75 19.6307 75.446 19.483 75.9801 19.1875C76.5142 18.8864 76.9062 18.4773 77.1562 17.9602C77.4062 17.4432 77.5312 16.8551 77.5312 16.196C77.5312 15.5369 77.4062 14.9517 77.1562 14.4403C76.9062 13.929 76.5114 13.5284 75.9716 13.2386C75.4375 12.9489 74.733 12.804 73.858 12.804H70.5511V28H67.9176ZM94.4936 10.5455H97.1357V22.0256C97.1357 23.2472 96.8487 24.3295 96.2749 25.2727C95.701 26.2102 94.8942 26.9489 93.8544 27.4886C92.8146 28.0227 91.5959 28.2898 90.1982 28.2898C88.8061 28.2898 87.5902 28.0227 86.5504 27.4886C85.5107 26.9489 84.7038 26.2102 84.13 25.2727C83.5561 24.3295 83.2692 23.2472 83.2692 22.0256V10.5455H85.9027V21.8125C85.9027 22.6023 86.076 23.304 86.4226 23.9176C86.7749 24.5312 87.272 25.0142 87.9141 25.3665C88.5561 25.7131 89.3175 25.8864 90.1982 25.8864C91.0845 25.8864 91.8487 25.7131 92.4908 25.3665C93.1385 25.0142 93.6328 24.5312 93.9737 23.9176C94.3203 23.304 94.4936 22.6023 94.4936 21.8125V10.5455ZM100.964 28V10.5455H107.357C108.595 10.5455 109.621 10.75 110.433 11.1591C111.246 11.5625 111.854 12.1108 112.257 12.804C112.661 13.4915 112.862 14.267 112.862 15.1307C112.862 15.858 112.729 16.4716 112.462 16.9716C112.195 17.4659 111.837 17.8636 111.388 18.1648C110.945 18.4602 110.456 18.6761 109.922 18.8125V18.983C110.501 19.0114 111.067 19.1989 111.618 19.5455C112.175 19.8864 112.635 20.3722 112.999 21.0028C113.362 21.6335 113.544 22.4006 113.544 23.304C113.544 24.196 113.334 24.9972 112.913 25.7074C112.499 26.4119 111.857 26.9716 110.987 27.3864C110.118 27.7955 109.007 28 107.655 28H100.964ZM103.598 25.7415H107.399C108.661 25.7415 109.564 25.4972 110.109 25.0085C110.655 24.5199 110.928 23.9091 110.928 23.1761C110.928 22.625 110.788 22.1193 110.51 21.6591C110.232 21.1989 109.834 20.8324 109.317 20.5597C108.805 20.2869 108.197 20.1506 107.493 20.1506H103.598V25.7415ZM103.598 18.0966H107.126C107.717 18.0966 108.249 17.983 108.72 17.7557C109.197 17.5284 109.575 17.2102 109.854 16.8011C110.138 16.3864 110.28 15.8977 110.28 15.3352C110.28 14.6136 110.027 14.0085 109.521 13.5199C109.016 13.0312 108.24 12.7869 107.195 12.7869H103.598V18.0966ZM128.48 16.0597C128.315 15.5426 128.094 15.0795 127.815 14.6705C127.543 14.2557 127.216 13.9034 126.835 13.6136C126.455 13.3182 126.02 13.0937 125.531 12.9403C125.048 12.7869 124.517 12.7102 123.938 12.7102C122.955 12.7102 122.068 12.9631 121.278 13.4688C120.489 13.9744 119.864 14.7159 119.403 15.6932C118.949 16.6648 118.722 17.8551 118.722 19.2642C118.722 20.679 118.952 21.875 119.412 22.8523C119.872 23.8295 120.503 24.571 121.304 25.0767C122.105 25.5824 123.017 25.8352 124.04 25.8352C124.989 25.8352 125.815 25.642 126.52 25.2557C127.23 24.8693 127.778 24.3239 128.165 23.6193C128.557 22.9091 128.753 22.0739 128.753 21.1136L129.435 21.2415H124.44V19.0682H131.301V21.054C131.301 22.5199 130.989 23.7926 130.364 24.8722C129.744 25.946 128.886 26.7756 127.79 27.3608C126.699 27.946 125.449 28.2386 124.04 28.2386C122.46 28.2386 121.074 27.875 119.881 27.1477C118.693 26.4205 117.767 25.3892 117.102 24.054C116.438 22.7131 116.105 21.1222 116.105 19.2812C116.105 17.8892 116.298 16.6392 116.685 15.5312C117.071 14.4233 117.614 13.483 118.312 12.7102C119.017 11.9318 119.844 11.3381 120.793 10.929C121.747 10.5142 122.79 10.3068 123.92 10.3068C124.864 10.3068 125.741 10.446 126.554 10.7244C127.372 11.0028 128.099 11.3977 128.736 11.9091C129.378 12.4205 129.909 13.0284 130.33 13.733C130.75 14.4318 131.034 15.2074 131.182 16.0597H128.48ZM140.996 10.5455H144.192L149.749 24.1136H149.953L155.51 10.5455H158.706V28H156.2V15.3693H156.038L150.891 27.9744H148.811L143.663 15.3608H143.501V28H140.996V10.5455ZM177.697 19.2727C177.697 21.1364 177.356 22.7386 176.674 24.0795C175.992 25.4148 175.058 26.4432 173.87 27.1648C172.688 27.8807 171.344 28.2386 169.839 28.2386C168.327 28.2386 166.978 27.8807 165.79 27.1648C164.609 26.4432 163.677 25.4119 162.995 24.071C162.313 22.7301 161.972 21.1307 161.972 19.2727C161.972 17.4091 162.313 15.8097 162.995 14.4744C163.677 13.1335 164.609 12.1051 165.79 11.3892C166.978 10.6676 168.327 10.3068 169.839 10.3068C171.344 10.3068 172.688 10.6676 173.87 11.3892C175.058 12.1051 175.992 13.1335 176.674 14.4744C177.356 15.8097 177.697 17.4091 177.697 19.2727ZM175.089 19.2727C175.089 17.8523 174.859 16.6562 174.398 15.6847C173.944 14.7074 173.319 13.9688 172.523 13.4688C171.734 12.9631 170.839 12.7102 169.839 12.7102C168.833 12.7102 167.935 12.9631 167.146 13.4688C166.356 13.9688 165.731 14.7074 165.271 15.6847C164.816 16.6562 164.589 17.8523 164.589 19.2727C164.589 20.6932 164.816 21.892 165.271 22.8693C165.731 23.8409 166.356 24.5795 167.146 25.0852C167.935 25.5852 168.833 25.8352 169.839 25.8352C170.839 25.8352 171.734 25.5852 172.523 25.0852C173.319 24.5795 173.944 23.8409 174.398 22.8693C174.859 21.892 175.089 20.6932 175.089 19.2727ZM180.98 28V10.5455H187.372C188.611 10.5455 189.636 10.75 190.449 11.1591C191.261 11.5625 191.869 12.1108 192.273 12.804C192.676 13.4915 192.878 14.267 192.878 15.1307C192.878 15.858 192.744 16.4716 192.477 16.9716C192.21 17.4659 191.852 17.8636 191.403 18.1648C190.96 18.4602 190.472 18.6761 189.938 18.8125V18.983C190.517 19.0114 191.082 19.1989 191.634 19.5455C192.19 19.8864 192.651 20.3722 193.014 21.0028C193.378 21.6335 193.56 22.4006 193.56 23.304C193.56 24.196 193.349 24.9972 192.929 25.7074C192.514 26.4119 191.872 26.9716 191.003 27.3864C190.134 27.7955 189.023 28 187.67 28H180.98ZM183.614 25.7415H187.415C188.676 25.7415 189.58 25.4972 190.125 25.0085C190.67 24.5199 190.943 23.9091 190.943 23.1761C190.943 22.625 190.804 22.1193 190.526 21.6591C190.247 21.1989 189.849 20.8324 189.332 20.5597C188.821 20.2869 188.213 20.1506 187.509 20.1506H183.614V25.7415ZM183.614 18.0966H187.142C187.733 18.0966 188.264 17.983 188.736 17.7557C189.213 17.5284 189.591 17.2102 189.869 16.8011C190.153 16.3864 190.295 15.8977 190.295 15.3352C190.295 14.6136 190.043 14.0085 189.537 13.5199C189.031 13.0312 188.256 12.7869 187.21 12.7869H183.614V18.0966ZM199.317 10.5455V28H196.683V10.5455H199.317ZM203.152 28V10.5455H205.786V25.733H213.695V28H203.152ZM216.699 28V10.5455H227.642V12.8125H219.332V18.1307H227.071V20.3892H219.332V25.733H227.744V28H216.699Z" fill="white"/>
</svg>
