<svg xmlns="http://www.w3.org/2000/svg" width="145" height="43" viewBox="0 0 145 43" fill="none">
    <path d="M0.896484 27.1445C0.896484 26.8398 0.931641 26.623 1.00195 26.4941C1.08398 26.3652 1.24805 26.3008 1.49414 26.3008H4.79883C5.05664 26.3008 5.2207 26.3535 5.29102 26.459C5.37305 26.5645 5.41406 26.752 5.41406 27.0215V27.8125C5.41406 28.2578 5.47266 28.627 5.58984 28.9199C5.71875 29.2129 5.88281 29.4531 6.08203 29.6406C6.28125 29.8164 6.49805 29.9453 6.73242 30.0273C6.9668 30.0977 7.20117 30.1328 7.43555 30.1328C7.7168 30.1328 7.98047 30.0859 8.22656 29.9922C8.47266 29.8867 8.68359 29.7461 8.85938 29.5703C9.04688 29.3828 9.19336 29.1602 9.29883 28.9023C9.41602 28.6445 9.47461 28.3574 9.47461 28.041C9.47461 27.6191 9.41016 27.2441 9.28125 26.916C9.16406 26.5762 8.97656 26.248 8.71875 25.9316C8.47266 25.6152 8.15039 25.293 7.75195 24.9648C7.35352 24.625 6.88477 24.2324 6.3457 23.7871C5.39648 23.0371 4.57617 22.3809 3.88477 21.8184C3.20508 21.2441 2.64258 20.6699 2.19727 20.0957C1.75195 19.5098 1.42383 18.8711 1.21289 18.1797C1.00195 17.4766 0.896484 16.6211 0.896484 15.6133C0.896484 14.4766 1.10742 13.5098 1.5293 12.7129C1.96289 11.9043 2.49609 11.248 3.12891 10.7441C3.77344 10.2402 4.46484 9.87695 5.20312 9.6543C5.95312 9.41992 6.64453 9.30273 7.27734 9.30273C8.20312 9.30273 9.05273 9.45508 9.82617 9.75977C10.6113 10.0645 11.2852 10.498 11.8477 11.0605C12.4219 11.6113 12.8672 12.2852 13.1836 13.082C13.5 13.8672 13.6582 14.7461 13.6582 15.7188V16.7383C13.6582 16.9961 13.6113 17.1719 13.5176 17.2656C13.4355 17.3477 13.248 17.3887 12.9551 17.3887H9.73828C9.50391 17.3887 9.35156 17.3418 9.28125 17.248C9.22266 17.1543 9.19336 16.9844 9.19336 16.7383V15.7363C9.19336 15.4316 9.15234 15.1445 9.07031 14.875C8.98828 14.6055 8.86523 14.3711 8.70117 14.1719C8.54883 13.9727 8.34961 13.8145 8.10352 13.6973C7.86914 13.5801 7.59375 13.5215 7.27734 13.5215C7.05469 13.5215 6.82617 13.5625 6.5918 13.6445C6.36914 13.7266 6.16406 13.8555 5.97656 14.0312C5.80078 14.207 5.6543 14.4355 5.53711 14.7168C5.41992 14.998 5.36133 15.3379 5.36133 15.7363C5.36133 16.1582 5.41992 16.5273 5.53711 16.8438C5.66602 17.1602 5.8418 17.459 6.06445 17.7402C6.29883 18.0098 6.58008 18.2734 6.9082 18.5312C7.23633 18.7891 7.59961 19.0703 7.99805 19.375C8.8418 20.0078 9.62695 20.623 10.3535 21.2207C11.0918 21.8066 11.7305 22.4395 12.2695 23.1191C12.8203 23.7988 13.2539 24.5547 13.5703 25.3867C13.8867 26.207 14.0449 27.1738 14.0449 28.2871C14.0449 29.1074 13.8809 29.8867 13.5527 30.625C13.2363 31.3633 12.7852 32.0137 12.1992 32.5762C11.625 33.127 10.9277 33.5664 10.1074 33.8945C9.29883 34.2227 8.39648 34.3867 7.40039 34.3867C6.31055 34.3867 5.36133 34.2168 4.55273 33.877C3.74414 33.5254 3.06445 33.0566 2.51367 32.4707C1.97461 31.8848 1.57031 31.2168 1.30078 30.4668C1.03125 29.7051 0.896484 28.9082 0.896484 28.0762V27.1445ZM16.1895 10.3574C16.1895 10.1465 16.2422 9.98242 16.3477 9.86523C16.4531 9.73633 16.6055 9.67188 16.8047 9.67188H20.1094C20.2617 9.68359 20.4082 9.73633 20.5488 9.83008C20.6895 9.92383 20.7949 10.0703 20.8652 10.2695L25.2246 23.2422L25.6641 25.2637L25.5762 23.418L25.3828 10.3574C25.3828 10.1699 25.4297 10.0117 25.5234 9.88281C25.6289 9.74219 25.793 9.67188 26.0156 9.67188H29.2676C29.4082 9.67188 29.543 9.71875 29.6719 9.8125C29.8008 9.90625 29.8652 10.082 29.8652 10.3398V33.332C29.8652 33.7773 29.6426 34 29.1973 34H25.9277C25.7637 34 25.5996 33.959 25.4355 33.877C25.2832 33.7832 25.1719 33.6367 25.1016 33.4375L20.8652 21.0449L20.4082 19.3574L20.5137 21.1152L20.6719 33.332C20.6953 33.7773 20.4902 34 20.0566 34H16.8047C16.3945 34 16.1895 33.7773 16.1895 33.332V10.3574ZM32.7832 10.3574C32.7832 10.1465 32.8359 9.98242 32.9414 9.86523C33.0469 9.73633 33.1992 9.67188 33.3984 9.67188H37.002C37.2012 9.67188 37.3477 9.73633 37.4414 9.86523C37.5469 9.98242 37.5996 10.1465 37.5996 10.3574V33.332C37.5996 33.7773 37.4004 34 37.002 34H33.3984C32.9883 34 32.7832 33.7773 32.7832 33.332V10.3574ZM40.5527 10.3574C40.5527 10.1465 40.6055 9.98242 40.7109 9.86523C40.8164 9.73633 40.9688 9.67188 41.168 9.67188H44.4727C44.625 9.68359 44.7715 9.73633 44.9121 9.83008C45.0527 9.92383 45.1582 10.0703 45.2285 10.2695L49.5879 23.2422L50.0273 25.2637L49.9395 23.418L49.7461 10.3574C49.7461 10.1699 49.793 10.0117 49.8867 9.88281C49.9922 9.74219 50.1562 9.67188 50.3789 9.67188H53.6309C53.7715 9.67188 53.9062 9.71875 54.0352 9.8125C54.1641 9.90625 54.2285 10.082 54.2285 10.3398V33.332C54.2285 33.7773 54.0059 34 53.5605 34H50.291C50.127 34 49.9629 33.959 49.7988 33.877C49.6465 33.7832 49.5352 33.6367 49.4648 33.4375L45.2285 21.0449L44.7715 19.3574L44.877 21.1152L45.0352 33.332C45.0586 33.7773 44.8535 34 44.4199 34H41.168C40.7578 34 40.5527 33.7773 40.5527 33.332V10.3574ZM57.1465 10.3574C57.1465 10.1465 57.1992 9.98242 57.3047 9.86523C57.4102 9.73633 57.5625 9.67188 57.7617 9.67188H68.5195C68.8594 9.67188 69.0293 9.88867 69.0293 10.3223V13.3105C69.0293 13.7324 68.8594 13.9434 68.5195 13.9434H61.9629V19.5859H67.1836C67.3477 19.5859 67.4824 19.6328 67.5879 19.7266C67.7051 19.8203 67.7637 19.9785 67.7637 20.2012V23.207C67.7637 23.418 67.7109 23.5703 67.6055 23.6641C67.5 23.7578 67.3594 23.8047 67.1836 23.8047H61.9629V29.7637H68.6074C68.7598 29.7637 68.8828 29.8164 68.9766 29.9219C69.082 30.0156 69.1348 30.1621 69.1348 30.3613V33.3848C69.1348 33.5957 69.082 33.7539 68.9766 33.8594C68.8828 33.9531 68.7598 34 68.6074 34H57.7617C57.3516 34 57.1465 33.7773 57.1465 33.332V10.3574Z" fill="white"/>
    <rect x="75" y="5" width="70" height="33" rx="12" fill="white"/>
    <path d="M82.459 10.3574C82.459 10.1465 82.5117 9.98242 82.6172 9.86523C82.7227 9.73633 82.875 9.67188 83.0742 9.67188H89.4199C90.3457 9.67188 91.207 9.83594 92.0039 10.1641C92.8008 10.4922 93.4863 10.9434 94.0605 11.5176C94.6348 12.0801 95.0859 12.748 95.4141 13.5215C95.7422 14.2832 95.9062 15.1035 95.9062 15.9824V21.6074C95.9062 22.4863 95.7422 23.3125 95.4141 24.0859C95.0859 24.8594 94.6289 25.5332 94.043 26.1074C93.4688 26.6816 92.7832 27.1387 91.9863 27.4785C91.2012 27.8066 90.3457 27.9707 89.4199 27.9707H87.2754V33.332C87.2754 33.7773 87.0762 34 86.6777 34H83.0742C82.6641 34 82.459 33.7773 82.459 33.332V10.3574ZM89.0508 23.7344C89.6719 23.7344 90.1641 23.5352 90.5273 23.1367C90.9023 22.7383 91.0898 22.2402 91.0898 21.6426V16.0703C91.0898 15.4375 90.9023 14.9277 90.5273 14.541C90.1523 14.1426 89.6543 13.9434 89.0332 13.9434H87.2754V23.7344H89.0508ZM109.459 33.3496C109.576 33.7832 109.465 34 109.125 34H105.486C105.311 34 105.152 33.959 105.012 33.877C104.871 33.7832 104.789 33.6309 104.766 33.4199L104.309 30.4844H100.371L99.9316 33.4199C99.8965 33.6309 99.8086 33.7832 99.668 33.877C99.5273 33.959 99.375 34 99.2109 34H95.5723C95.2207 34 95.1035 33.7773 95.2207 33.332L100.09 10.2871C100.195 9.87695 100.424 9.67188 100.775 9.67188H103.904C104.268 9.67188 104.502 9.87695 104.607 10.2871L109.459 33.3496ZM100.951 26.7578H103.729L102.533 18.9531L102.34 16.8965L102.146 18.9531L100.951 26.7578ZM110.479 27.1445C110.479 26.8398 110.514 26.623 110.584 26.4941C110.666 26.3652 110.83 26.3008 111.076 26.3008H114.381C114.639 26.3008 114.803 26.3535 114.873 26.459C114.955 26.5645 114.996 26.752 114.996 27.0215V27.8125C114.996 28.2578 115.055 28.627 115.172 28.9199C115.301 29.2129 115.465 29.4531 115.664 29.6406C115.863 29.8164 116.08 29.9453 116.314 30.0273C116.549 30.0977 116.783 30.1328 117.018 30.1328C117.299 30.1328 117.562 30.0859 117.809 29.9922C118.055 29.8867 118.266 29.7461 118.441 29.5703C118.629 29.3828 118.775 29.1602 118.881 28.9023C118.998 28.6445 119.057 28.3574 119.057 28.041C119.057 27.6191 118.992 27.2441 118.863 26.916C118.746 26.5762 118.559 26.248 118.301 25.9316C118.055 25.6152 117.732 25.293 117.334 24.9648C116.936 24.625 116.467 24.2324 115.928 23.7871C114.979 23.0371 114.158 22.3809 113.467 21.8184C112.787 21.2441 112.225 20.6699 111.779 20.0957C111.334 19.5098 111.006 18.8711 110.795 18.1797C110.584 17.4766 110.479 16.6211 110.479 15.6133C110.479 14.4766 110.689 13.5098 111.111 12.7129C111.545 11.9043 112.078 11.248 112.711 10.7441C113.355 10.2402 114.047 9.87695 114.785 9.6543C115.535 9.41992 116.227 9.30273 116.859 9.30273C117.785 9.30273 118.635 9.45508 119.408 9.75977C120.193 10.0645 120.867 10.498 121.43 11.0605C122.004 11.6113 122.449 12.2852 122.766 13.082C123.082 13.8672 123.24 14.7461 123.24 15.7188V16.7383C123.24 16.9961 123.193 17.1719 123.1 17.2656C123.018 17.3477 122.83 17.3887 122.537 17.3887H119.32C119.086 17.3887 118.934 17.3418 118.863 17.248C118.805 17.1543 118.775 16.9844 118.775 16.7383V15.7363C118.775 15.4316 118.734 15.1445 118.652 14.875C118.57 14.6055 118.447 14.3711 118.283 14.1719C118.131 13.9727 117.932 13.8145 117.686 13.6973C117.451 13.5801 117.176 13.5215 116.859 13.5215C116.637 13.5215 116.408 13.5625 116.174 13.6445C115.951 13.7266 115.746 13.8555 115.559 14.0312C115.383 14.207 115.236 14.4355 115.119 14.7168C115.002 14.998 114.943 15.3379 114.943 15.7363C114.943 16.1582 115.002 16.5273 115.119 16.8438C115.248 17.1602 115.424 17.459 115.646 17.7402C115.881 18.0098 116.162 18.2734 116.49 18.5312C116.818 18.7891 117.182 19.0703 117.58 19.375C118.424 20.0078 119.209 20.623 119.936 21.2207C120.674 21.8066 121.312 22.4395 121.852 23.1191C122.402 23.7988 122.836 24.5547 123.152 25.3867C123.469 26.207 123.627 27.1738 123.627 28.2871C123.627 29.1074 123.463 29.8867 123.135 30.625C122.818 31.3633 122.367 32.0137 121.781 32.5762C121.207 33.127 120.51 33.5664 119.689 33.8945C118.881 34.2227 117.979 34.3867 116.982 34.3867C115.893 34.3867 114.943 34.2168 114.135 33.877C113.326 33.5254 112.646 33.0566 112.096 32.4707C111.557 31.8848 111.152 31.2168 110.883 30.4668C110.613 29.7051 110.479 28.9082 110.479 28.0762V27.1445ZM125.209 27.1445C125.209 26.8398 125.244 26.623 125.314 26.4941C125.396 26.3652 125.561 26.3008 125.807 26.3008H129.111C129.369 26.3008 129.533 26.3535 129.604 26.459C129.686 26.5645 129.727 26.752 129.727 27.0215V27.8125C129.727 28.2578 129.785 28.627 129.902 28.9199C130.031 29.2129 130.195 29.4531 130.395 29.6406C130.594 29.8164 130.811 29.9453 131.045 30.0273C131.279 30.0977 131.514 30.1328 131.748 30.1328C132.029 30.1328 132.293 30.0859 132.539 29.9922C132.785 29.8867 132.996 29.7461 133.172 29.5703C133.359 29.3828 133.506 29.1602 133.611 28.9023C133.729 28.6445 133.787 28.3574 133.787 28.041C133.787 27.6191 133.723 27.2441 133.594 26.916C133.477 26.5762 133.289 26.248 133.031 25.9316C132.785 25.6152 132.463 25.293 132.064 24.9648C131.666 24.625 131.197 24.2324 130.658 23.7871C129.709 23.0371 128.889 22.3809 128.197 21.8184C127.518 21.2441 126.955 20.6699 126.51 20.0957C126.064 19.5098 125.736 18.8711 125.525 18.1797C125.314 17.4766 125.209 16.6211 125.209 15.6133C125.209 14.4766 125.42 13.5098 125.842 12.7129C126.275 11.9043 126.809 11.248 127.441 10.7441C128.086 10.2402 128.777 9.87695 129.516 9.6543C130.266 9.41992 130.957 9.30273 131.59 9.30273C132.516 9.30273 133.365 9.45508 134.139 9.75977C134.924 10.0645 135.598 10.498 136.16 11.0605C136.734 11.6113 137.18 12.2852 137.496 13.082C137.812 13.8672 137.971 14.7461 137.971 15.7188V16.7383C137.971 16.9961 137.924 17.1719 137.83 17.2656C137.748 17.3477 137.561 17.3887 137.268 17.3887H134.051C133.816 17.3887 133.664 17.3418 133.594 17.248C133.535 17.1543 133.506 16.9844 133.506 16.7383V15.7363C133.506 15.4316 133.465 15.1445 133.383 14.875C133.301 14.6055 133.178 14.3711 133.014 14.1719C132.861 13.9727 132.662 13.8145 132.416 13.6973C132.182 13.5801 131.906 13.5215 131.59 13.5215C131.367 13.5215 131.139 13.5625 130.904 13.6445C130.682 13.7266 130.477 13.8555 130.289 14.0312C130.113 14.207 129.967 14.4355 129.85 14.7168C129.732 14.998 129.674 15.3379 129.674 15.7363C129.674 16.1582 129.732 16.5273 129.85 16.8438C129.979 17.1602 130.154 17.459 130.377 17.7402C130.611 18.0098 130.893 18.2734 131.221 18.5312C131.549 18.7891 131.912 19.0703 132.311 19.375C133.154 20.0078 133.939 20.623 134.666 21.2207C135.404 21.8066 136.043 22.4395 136.582 23.1191C137.133 23.7988 137.566 24.5547 137.883 25.3867C138.199 26.207 138.357 27.1738 138.357 28.2871C138.357 29.1074 138.193 29.8867 137.865 30.625C137.549 31.3633 137.098 32.0137 136.512 32.5762C135.938 33.127 135.24 33.5664 134.42 33.8945C133.611 34.2227 132.709 34.3867 131.713 34.3867C130.623 34.3867 129.674 34.2168 128.865 33.877C128.057 33.5254 127.377 33.0566 126.826 32.4707C126.287 31.8848 125.883 31.2168 125.613 30.4668C125.344 29.7051 125.209 28.9082 125.209 28.0762V27.1445Z" fill="black"/>
</svg>