<svg width="27" height="38" viewBox="0 0 27 38" fill="none" xmlns="http://www.w3.org/2000/svg">
<rect x="13" y="7" width="14" height="24" rx="3" fill="white"/>
<path d="M0.796875 23.9062C0.796875 23.6354 0.828125 23.4427 0.890625 23.3281C0.963542 23.2135 1.10938 23.1562 1.32812 23.1562H4.26562C4.49479 23.1562 4.64062 23.2031 4.70312 23.2969C4.77604 23.3906 4.8125 23.5573 4.8125 23.7969V24.5C4.8125 24.8958 4.86458 25.224 4.96875 25.4844C5.08333 25.7448 5.22917 25.9583 5.40625 26.125C5.58333 26.2812 5.77604 26.3958 5.98438 26.4688C6.19271 26.5312 6.40104 26.5625 6.60938 26.5625C6.85938 26.5625 7.09375 26.5208 7.3125 26.4375C7.53125 26.3438 7.71875 26.2188 7.875 26.0625C8.04167 25.8958 8.17188 25.6979 8.26562 25.4688C8.36979 25.2396 8.42188 24.9844 8.42188 24.7031C8.42188 24.3281 8.36458 23.9948 8.25 23.7031C8.14583 23.401 7.97917 23.1094 7.75 22.8281C7.53125 22.5469 7.24479 22.2604 6.89062 21.9688C6.53646 21.6667 6.11979 21.3177 5.64062 20.9219C4.79688 20.2552 4.06771 19.6719 3.45312 19.1719C2.84896 18.6615 2.34896 18.151 1.95312 17.6406C1.55729 17.1198 1.26562 16.5521 1.07812 15.9375C0.890625 15.3125 0.796875 14.5521 0.796875 13.6562C0.796875 12.6458 0.984375 11.7865 1.35938 11.0781C1.74479 10.3594 2.21875 9.77604 2.78125 9.32812C3.35417 8.88021 3.96875 8.55729 4.625 8.35938C5.29167 8.15104 5.90625 8.04688 6.46875 8.04688C7.29167 8.04688 8.04688 8.18229 8.73438 8.45312C9.43229 8.72396 10.0312 9.10938 10.5312 9.60938C11.0417 10.099 11.4375 10.6979 11.7188 11.4062C12 12.1042 12.1406 12.8854 12.1406 13.75V14.6562C12.1406 14.8854 12.099 15.0417 12.0156 15.125C11.9427 15.1979 11.776 15.2344 11.5156 15.2344H8.65625C8.44792 15.2344 8.3125 15.1927 8.25 15.1094C8.19792 15.026 8.17188 14.875 8.17188 14.6562V13.7656C8.17188 13.4948 8.13542 13.2396 8.0625 13C7.98958 12.7604 7.88021 12.5521 7.73438 12.375C7.59896 12.1979 7.42188 12.0573 7.20312 11.9531C6.99479 11.849 6.75 11.7969 6.46875 11.7969C6.27083 11.7969 6.06771 11.8333 5.85938 11.9062C5.66146 11.9792 5.47917 12.0938 5.3125 12.25C5.15625 12.4062 5.02604 12.6094 4.92188 12.8594C4.81771 13.1094 4.76562 13.4115 4.76562 13.7656C4.76562 14.1406 4.81771 14.4688 4.92188 14.75C5.03646 15.0312 5.19271 15.2969 5.39062 15.5469C5.59896 15.7865 5.84896 16.0208 6.14062 16.25C6.43229 16.4792 6.75521 16.7292 7.10938 17C7.85938 17.5625 8.55729 18.1094 9.20312 18.6406C9.85938 19.1615 10.4271 19.724 10.9062 20.3281C11.3958 20.9323 11.7812 21.6042 12.0625 22.3438C12.3438 23.0729 12.4844 23.9323 12.4844 24.9219C12.4844 25.651 12.3385 26.3438 12.0469 27C11.7656 27.6562 11.3646 28.2344 10.8438 28.7344C10.3333 29.224 9.71354 29.6146 8.98438 29.9062C8.26562 30.1979 7.46354 30.3438 6.57812 30.3438C5.60938 30.3438 4.76562 30.1927 4.04688 29.8906C3.32812 29.5781 2.72396 29.1615 2.23438 28.6406C1.75521 28.1198 1.39583 27.526 1.15625 26.8594C0.916667 26.1823 0.796875 25.474 0.796875 24.7344V23.9062Z" fill="white"/>
<path d="M14.3906 8.98438C14.3906 8.79688 14.4375 8.65104 14.5312 8.54688C14.625 8.43229 14.7604 8.375 14.9375 8.375H20.5781C21.401 8.375 22.1667 8.52083 22.875 8.8125C23.5833 9.10417 24.1927 9.50521 24.7031 10.0156C25.2135 10.5156 25.6146 11.1094 25.9062 11.7969C26.1979 12.474 26.3438 13.2031 26.3438 13.9844V18.9844C26.3438 19.7656 26.1979 20.5 25.9062 21.1875C25.6146 21.875 25.2083 22.474 24.6875 22.9844C24.1771 23.4948 23.5677 23.901 22.8594 24.2031C22.1615 24.4948 21.401 24.6406 20.5781 24.6406H18.6719V29.4062C18.6719 29.8021 18.4948 30 18.1406 30H14.9375C14.5729 30 14.3906 29.8021 14.3906 29.4062V8.98438ZM20.25 20.875C20.8021 20.875 21.2396 20.6979 21.5625 20.3438C21.8958 19.9896 22.0625 19.5469 22.0625 19.0156V14.0625C22.0625 13.5 21.8958 13.0469 21.5625 12.7031C21.2292 12.349 20.7865 12.1719 20.2344 12.1719H18.6719V20.875H20.25Z" fill="black"/>
</svg>
