<svg width="43" height="37" viewBox="0 0 43 37" fill="none" xmlns="http://www.w3.org/2000/svg">
<path d="M21.5455 36.5455L4.02273 19.0227C2.625 17.625 1.69318 16 1.22727 14.1477C0.772727 12.2955 0.778409 10.4545 1.24432 8.625C1.71023 6.78409 2.63636 5.18182 4.02273 3.81818C5.44318 2.42045 7.0625 1.49432 8.88068 1.03977C10.7102 0.573863 12.5341 0.573863 14.3523 1.03977C16.1818 1.50568 17.8068 2.43182 19.2273 3.81818L21.5455 6.06818L23.8636 3.81818C25.2955 2.43182 26.9205 1.50568 28.7386 1.03977C30.5568 0.573863 32.375 0.573863 34.1932 1.03977C36.0227 1.49432 37.6477 2.42045 39.0682 3.81818C40.4545 5.18182 41.3807 6.78409 41.8466 8.625C42.3125 10.4545 42.3125 12.2955 41.8466 14.1477C41.392 16 40.4659 17.625 39.0682 19.0227L21.5455 36.5455ZM21.5455 29.5057L35.5398 15.4943C36.2898 14.7557 36.7898 13.892 37.0398 12.9034C37.2898 11.9034 37.2898 10.9091 37.0398 9.92045C36.8011 8.93182 36.3125 8.07955 35.5739 7.36364C34.8125 6.60227 33.9375 6.09659 32.9489 5.84659C31.9716 5.59659 30.9886 5.60227 30 5.86364C29.0114 6.11364 28.1193 6.625 27.3239 7.39773L21.5455 13.0057L15.767 7.39773C14.983 6.625 14.0909 6.11364 13.0909 5.86364C12.1023 5.60227 11.1193 5.59659 10.142 5.84659C9.16477 6.09659 8.28977 6.60227 7.51705 7.36364C6.77841 8.07955 6.28409 8.93182 6.03409 9.92045C5.79545 10.9091 5.80114 11.9034 6.05114 12.9034C6.3125 13.892 6.8125 14.7557 7.55114 15.4943L21.5455 29.5057Z" fill="white"/>
</svg>
