<svg width="30" height="21" viewBox="0 0 30 21" fill="none" xmlns="http://www.w3.org/2000/svg">
<path d="M5.80798 3.71007C5.84356 3.36558 5.85724 3.3355 5.88735 3.29996C5.95851 3.1988 6.06799 3.13319 6.19115 3.11405C6.34169 3.08397 6.49496 3.05663 6.65097 3.06484C7.03962 3.07304 7.42279 3.06484 7.81144 3.06484C7.86071 3.0621 7.90997 3.06757 7.9565 3.08671C8.00029 3.10858 8.04956 3.14412 8.10156 3.09491C8.11525 3.08124 8.15904 3.08671 8.17272 3.10311C8.2083 3.13045 8.24389 3.11678 8.2822 3.11678C8.3041 3.11678 8.326 3.08671 8.35336 3.11678C8.36158 3.12499 8.40263 3.09491 8.43274 3.09491C8.46558 3.09218 8.50116 3.09218 8.534 3.09491H8.70643C8.74202 3.09491 8.7776 3.10858 8.81591 3.10858C8.84876 3.10858 8.88434 3.10311 8.91718 3.09491H9.14709C9.17172 3.10038 9.19635 3.10585 9.21825 3.11678C9.21825 3.11678 9.23193 3.10311 9.24015 3.10311H9.90249C9.9107 3.10311 9.92439 3.11678 9.92986 3.12499C10.0284 3.08944 10.1351 3.08944 10.2337 3.12499C10.2474 3.11678 10.2692 3.10311 10.2829 3.09764L10.313 3.12499C10.3787 3.08124 10.4499 3.11131 10.521 3.10311C10.5867 3.09491 10.6497 3.11678 10.7236 3.08124L10.8112 3.12499C10.9042 3.09764 11 3.07577 11.0849 3.11678C11.1095 3.10585 11.1369 3.10038 11.1642 3.09491H11.4078C11.427 3.09218 11.4489 3.09764 11.4653 3.10858C11.52 3.13592 11.583 3.13866 11.6377 3.11678C11.7034 3.09491 11.7664 3.08671 11.8184 3.10858C11.8622 3.13045 11.8841 3.06484 11.9114 3.10038C11.9388 3.13592 11.9826 3.12225 12.0182 3.12225C12.0538 3.12225 12.0975 3.13592 12.1194 3.10038C12.1851 3.10858 12.2563 3.07851 12.3138 3.12225C12.3493 3.15233 12.3931 3.08671 12.4287 3.12225C12.4506 3.09491 12.478 3.10038 12.5081 3.10038H13.4606C13.4907 3.10311 13.518 3.10585 13.5481 3.11405C13.5481 3.11405 13.5564 3.10038 13.5618 3.10038C13.6494 3.10858 13.7343 3.07851 13.8218 3.12225C13.8574 3.14412 13.9094 3.11405 13.9505 3.11405C14.0216 3.10585 14.268 3.09218 14.3337 3.10585C14.3419 3.10585 14.3473 3.11952 14.3556 3.11952C14.413 3.09764 14.528 3.09218 14.5937 3.09218C14.7223 3.10038 14.8455 3.09218 14.9768 3.09218C15.007 3.09218 15.0343 3.10585 15.0644 3.10585C15.0891 3.10585 15.1137 3.10038 15.1356 3.09218C15.1465 3.08671 15.1575 3.08124 15.1712 3.07851C15.1958 3.08671 15.2177 3.09218 15.2423 3.09218C15.3518 3.09218 15.4503 3.10038 15.5598 3.09218C15.6091 3.09218 15.6529 3.11952 15.7049 3.10038C15.7487 3.08671 15.8062 3.10038 15.8554 3.10038H16.6546C16.682 3.10038 16.7258 3.11405 16.7477 3.07851C16.7969 3.10585 16.8489 3.13592 16.9146 3.17967H17.0515L17.1965 3.10858C17.2677 3.11678 17.3553 3.08671 17.4347 3.13045C17.4429 3.13866 17.4648 3.12225 17.4784 3.12225C17.5523 3.09218 17.6372 3.09491 17.7084 3.13045C17.733 3.12225 17.7549 3.11405 17.7795 3.10858C17.8096 3.09491 17.837 3.14412 17.8726 3.11678C17.8945 3.09491 17.9437 3.10858 17.9875 3.10858H18.4638C18.5075 3.10038 18.5513 3.12225 18.5924 3.08671C18.6061 3.07304 18.6581 3.10038 18.6937 3.10858C18.7292 3.10858 18.7648 3.05937 18.7949 3.09491C18.8305 3.12225 18.8524 3.05937 18.888 3.10311C18.9017 3.11678 18.9537 3.11131 18.981 3.11678C19.0166 3.12499 19.0522 3.09491 19.0823 3.09491C19.2164 3.08671 19.3505 3.08671 19.4846 3.09491H19.564C19.6078 3.09491 19.6571 3.07304 19.6927 3.11678C19.7009 3.12499 19.7365 3.11678 19.7583 3.10311C19.783 3.08397 19.8213 3.08671 19.8405 3.11132C19.8405 3.11405 19.8432 3.11405 19.8432 3.11678C19.8651 3.10858 19.8788 3.09491 19.9007 3.09491H20.3632C20.3988 3.09491 20.4289 3.13045 20.4727 3.10311C20.5001 3.08124 20.5521 3.09491 20.5959 3.10311C20.6232 3.10311 20.6451 3.11678 20.6889 3.12499C20.6971 3.12499 20.7108 3.11131 20.7327 3.10311C20.7464 3.11131 20.7546 3.12499 20.7683 3.12499C20.8312 3.09764 20.9051 3.09491 20.9708 3.11678C21.0283 3.13866 21.0995 3.13866 21.1788 3.14412C21.2089 3.13045 21.2363 3.11678 21.2664 3.10038C21.3376 3.13592 21.417 3.12772 21.4963 3.11405C21.5155 3.10585 21.5346 3.10038 21.5538 3.10038C21.7262 3.10038 21.8932 3.08671 22.0656 3.10858C22.145 3.11678 22.2162 3.13045 22.2955 3.13045C22.3256 3.1742 22.3612 3.11678 22.3749 3.13045C22.4105 3.16053 22.4461 3.15233 22.4844 3.15233C22.52 3.16053 22.5637 3.12225 22.572 3.13045C22.6157 3.166 22.6431 3.10858 22.6814 3.13045L22.769 3.1742L22.7909 3.15233L22.8183 3.1824C22.8347 3.17146 22.8511 3.16053 22.8676 3.15233H22.8812C22.9168 3.16873 22.9524 3.18513 22.9907 3.19607C23.04 3.20974 23.092 3.26169 23.1495 3.20427H23.4806C23.4943 3.20427 23.5025 3.22614 23.5162 3.23161C23.5326 3.22068 23.5463 3.20974 23.56 3.19607C23.6394 3.22614 23.7051 3.28356 23.768 3.33277C23.8364 3.37651 23.8857 3.44213 23.9131 3.51868C23.9131 3.52689 23.9049 3.53235 23.8912 3.55423C23.9049 3.57336 23.924 3.58977 23.9404 3.60344C23.9404 3.61164 23.9487 3.61711 23.9487 3.62531C23.9404 3.68546 23.9487 3.74834 23.976 3.80576C24.0034 3.87137 24.0061 3.94519 23.9842 4.01354C23.9623 4.07096 23.9706 4.13657 23.976 4.19945C23.9842 4.25687 23.9541 4.31428 23.9979 4.3717C24.0116 4.38537 23.9897 4.42091 23.9897 4.46465C24.0034 4.49473 24.0034 4.49473 24.0034 4.57128L24.0472 4.61503C24.0335 4.6451 24.0198 4.67244 24.0034 4.70251C24.0143 4.73259 24.0198 4.7654 24.0253 4.79547C24.0335 4.83101 24.0171 4.87476 24.0253 4.9103C24.039 4.94584 23.9815 4.95951 24.0116 4.99779C24.0335 5.02786 24.0198 5.06887 24.0198 5.10715V5.20011C24.0691 5.26572 24.143 5.27119 24.2059 5.26572C24.2716 5.20011 24.351 5.18644 24.4358 5.19464C24.4468 5.20557 24.455 5.21651 24.4632 5.23018C24.5125 5.26572 24.5508 5.20011 24.5864 5.23838C24.6137 5.21651 24.6521 5.18644 24.6876 5.1591C24.6959 5.18644 24.6959 5.20831 24.7013 5.23838C24.7314 5.23018 24.7506 5.19464 24.7807 5.23838C24.7999 5.23018 24.819 5.21924 24.8382 5.20831C24.8519 5.23838 24.8683 5.28759 24.8874 5.28759C24.9531 5.28759 24.9093 5.33681 24.9312 5.35868C24.9668 5.39422 24.9531 5.42976 24.9394 5.47351C24.9258 5.51999 24.9258 5.57193 24.9394 5.61841C24.9531 5.66215 24.9613 5.68949 24.9394 5.73324C24.9203 5.75238 24.923 5.78519 24.9422 5.80159C24.9477 5.80706 24.9531 5.80979 24.9613 5.81253C24.9531 5.85627 24.9175 5.87814 24.9477 5.92735C24.9832 5.99844 24.9613 6.08593 24.9559 6.17888L24.9695 6.19255C24.934 6.21443 24.9039 6.2363 24.8601 6.26364C24.8683 6.29371 24.8738 6.32105 24.882 6.35113C24.7013 6.35933 24.5152 6.41674 24.3264 6.35933C24.2388 6.40854 24.132 6.35933 24.0308 6.38667C24.0089 6.51517 24.0527 6.6464 23.9952 6.7749C24.0143 6.7913 24.0335 6.80497 24.0527 6.81864C24.039 6.86786 24.0663 6.9198 24.0226 6.95535L24.0718 7.00456C24.0581 7.12759 24.1074 7.26429 24.028 7.38732C24.0362 7.40919 24.0417 7.43107 24.0417 7.45294V7.66892C24.0417 7.71267 24.0335 7.75641 24.0636 7.79742C24.0855 7.83297 24.0773 7.89038 24.0499 7.94233C24.028 7.98334 24.0308 8.03255 24.0581 8.07083C24.0499 8.11457 24.0362 8.15831 24.0445 8.19386C24.0746 8.3579 24.0746 8.3743 24.0445 8.53288C24.0308 8.59849 24.0445 8.67778 24.0527 8.74066V8.7762C24.0472 8.82268 24.0445 8.86643 24.0445 8.9129C24.0445 8.95665 24.0308 9.00039 24.0445 9.0414C24.0581 9.08241 24.0362 9.11249 24.0445 9.14803V9.39409C24.0499 9.42963 24.0581 9.46518 24.0663 9.50345C24.0663 9.50345 24.0445 9.51712 24.0445 9.52532C24.0581 9.62648 24.0171 9.73311 24.0663 9.83427C24.0527 9.91355 24.08 9.99831 24.0527 10.0803C24.028 10.1541 24.0335 10.2334 24.0663 10.3045C24.0253 10.3756 24.028 10.4658 24.0746 10.5342C24.0089 10.5998 24.0663 10.649 24.1019 10.7064L24.0445 10.8212C24.0581 10.8787 24.0746 10.9662 24.0937 11.0673C24.0773 11.0728 24.0636 11.081 24.0499 11.0892V11.3708C24.1293 11.4501 24.236 11.3626 24.3154 11.4282C24.5015 11.3708 24.6904 11.4282 24.8765 11.4364C24.8683 11.4637 24.8628 11.4938 24.8546 11.5239C24.8902 11.5512 24.9258 11.5731 24.9641 11.595L24.9422 11.6168C24.9723 11.6743 24.9504 11.7317 24.9641 11.7891C24.9778 11.8465 24.8929 11.9039 24.9641 11.9613C24.9559 11.9969 24.9148 12.027 24.9504 12.0762C24.9641 12.1062 24.9641 12.139 24.9504 12.1691C24.9285 12.2211 24.9285 12.2812 24.9504 12.3359C24.9723 12.3933 24.9504 12.4453 24.8929 12.5081C24.871 12.5327 24.8546 12.5628 24.8436 12.5956C24.8272 12.5847 24.8108 12.5765 24.7944 12.5656C24.7725 12.5874 24.7451 12.6011 24.715 12.5519C24.7068 12.5792 24.7068 12.6011 24.7013 12.6312H24.6904C24.6767 12.623 24.663 12.6175 24.6466 12.6175C24.6247 12.6093 24.6247 12.5464 24.5754 12.5874C24.5672 12.5956 24.5262 12.5738 24.5043 12.5601C24.4851 12.5765 24.4687 12.5956 24.455 12.6175H24.3455C24.3017 12.5956 24.2579 12.5738 24.2087 12.5464H24.1074C24.0992 12.5984 24.0937 12.6476 24.08 12.7132C24.0882 12.7269 24.1293 12.7624 24.0718 12.8061C24.0855 12.8362 24.1019 12.8663 24.1211 12.8936C24.091 12.9374 24.0718 12.9866 24.1211 13.044C24.0718 13.1096 24.1074 13.1889 24.091 13.26C24.0691 13.3311 24.1621 13.3967 24.0992 13.4678C24.1786 13.5471 24.028 13.6482 24.1266 13.7275C24.091 13.7931 24.0828 13.8505 24.1183 13.8998C24.1101 13.9353 24.1019 13.9708 24.0965 14.0064C24.1019 14.1048 24.0828 14.2032 24.0472 14.2935C24.0335 14.3208 24.0171 14.3481 23.9979 14.3727C23.9842 14.3946 23.9706 14.422 23.9487 14.4602C23.8912 14.5067 23.831 14.5504 23.768 14.5887C23.6969 14.6243 23.623 14.6379 23.5436 14.668C23.5354 14.6598 23.5217 14.6543 23.5162 14.6407C23.508 14.6489 23.5025 14.6625 23.4888 14.6625C23.3958 14.6762 23.3027 14.6407 23.2069 14.6844C23.1495 14.6188 23.0975 14.7063 23.0345 14.6926C22.9743 14.6817 22.9141 14.6817 22.8539 14.6926C22.8183 14.6926 22.7745 14.7282 22.7526 14.7145C22.717 14.6872 22.6814 14.6926 22.6431 14.6926H22.2435C22.2079 14.6707 22.1724 14.6571 22.1559 14.6489C22.0903 14.6571 22.041 14.6625 21.9917 14.6707C21.8904 14.6789 21.7837 14.6571 21.6824 14.6926C21.6605 14.7008 21.6386 14.6844 21.6113 14.679C21.5538 14.6653 21.4963 14.6571 21.4471 14.6926C21.3896 14.6625 21.3212 14.6598 21.2609 14.6844C21.2117 14.6981 21.1597 14.7063 21.1104 14.6707C21.0967 14.6789 21.0885 14.6844 21.0748 14.6926C21.0283 14.6817 20.979 14.6735 20.9298 14.6707H20.032C20.0047 14.6707 19.9664 14.6844 19.939 14.6489C19.8952 14.6981 19.8377 14.6707 19.7802 14.6707C19.7255 14.6735 19.6708 14.6735 19.6133 14.6707C19.564 14.6707 19.5038 14.6571 19.4545 14.6844C19.4381 14.6762 19.4217 14.668 19.4053 14.6625C19.3889 14.6543 19.3724 14.6516 19.356 14.6489C19.3286 14.6571 19.2985 14.6625 19.2684 14.6625H18.9017C18.8798 14.6625 18.8579 14.6762 18.8442 14.6762C18.773 14.668 18.7156 14.6543 18.6362 14.6461C18.4911 14.6762 18.3406 14.6735 18.1955 14.6379L18.1736 14.6598C18.1162 14.5942 18.0642 14.6817 18.0012 14.6598C17.9437 14.6461 17.878 14.6817 17.8206 14.6379C17.7713 14.6735 17.7111 14.6516 17.6563 14.6598H17.4702C17.4128 14.6598 17.3471 14.668 17.2759 14.6461C17.2759 14.6543 17.2622 14.668 17.2485 14.6899C17.1473 14.6817 17.046 14.7036 16.9447 14.668C16.9146 14.6762 16.8818 14.6844 16.8517 14.6899H16.0744C16.047 14.6899 16.0169 14.6981 15.995 14.668C15.9841 14.6598 15.9704 14.6598 15.9594 14.668C15.8883 14.7172 15.8226 14.6762 15.7514 14.668C15.6939 14.6598 15.6447 14.6817 15.5872 14.6899C15.4969 14.6926 15.4093 14.6872 15.3217 14.668C15.2341 14.6543 15.1493 14.6899 15.0617 14.6461C15.0179 14.6762 14.9686 14.668 14.9248 14.668C14.8947 14.668 14.8728 14.6543 14.8318 14.6461C14.8208 14.6571 14.8099 14.6653 14.7962 14.6762L14.7387 14.6461C14.7114 14.6899 14.673 14.6379 14.6293 14.6543C14.5636 14.6762 14.4924 14.668 14.4212 14.668C14.3939 14.6625 14.3665 14.6543 14.3419 14.6461C14.3337 14.6543 14.3282 14.6762 14.3145 14.668C14.2269 14.6598 14.1421 14.6981 14.0545 14.6461C14.0353 14.6407 14.0134 14.6434 13.997 14.6543C13.9258 14.6762 13.9176 14.6762 13.8465 14.6461C13.7616 14.6789 13.6686 14.6844 13.581 14.6598C13.5591 14.6516 13.5372 14.6461 13.5235 14.6516C13.3566 14.6872 13.3347 14.6872 13.1787 14.6516C13.1568 14.6489 13.1349 14.6489 13.113 14.6516C13.1075 14.6707 13.0965 14.6926 13.0829 14.709C13.0582 14.6926 13.0336 14.6735 13.0117 14.6516C13.0035 14.6598 12.9925 14.668 12.9843 14.6735C12.9706 14.6598 12.957 14.6461 12.9487 14.6297C12.9159 14.6352 12.8858 14.6434 12.8557 14.6571C12.8475 14.6653 12.8475 14.679 12.842 14.6926C12.7845 14.6707 12.7271 14.6352 12.6614 14.6489C12.5984 14.6598 12.5355 14.6762 12.4753 14.6981C12.467 14.6844 12.4588 14.6707 12.4534 14.6543C12.4096 14.6625 12.3822 14.668 12.3439 14.6762C12.3439 14.6489 12.3357 14.627 12.3357 14.5969C12.2344 14.5969 12.155 14.6461 12.062 14.6981C11.947 14.7336 11.8156 14.6325 11.687 14.6899C11.6788 14.6899 11.6733 14.6762 11.6651 14.668C11.6569 14.6762 11.6432 14.6817 11.635 14.6954C11.6213 14.6872 11.5994 14.668 11.5857 14.668C11.5365 14.6762 11.4845 14.6543 11.4407 14.6817C11.427 14.6954 11.3832 14.6735 11.3394 14.668C11.2737 14.6954 10.9343 14.7036 10.8632 14.6598C10.8139 14.6899 10.8139 14.6899 10.7564 14.668L10.6688 14.7118C10.6415 14.7063 10.6141 14.6954 10.5895 14.6817C10.5594 14.668 10.532 14.7172 10.4964 14.6899C10.4745 14.668 10.4253 14.6899 10.3815 14.6899H10.2665C10.2391 14.6899 10.2008 14.6762 10.1735 14.7118C10.1652 14.72 10.1433 14.72 10.1379 14.72C10.0941 14.6762 10.0503 14.7418 9.99281 14.7063C9.94081 14.6762 9.87239 14.6817 9.8286 14.72C9.80396 14.709 9.77659 14.7008 9.74922 14.6981C9.64795 14.6981 9.5549 14.6844 9.45363 14.6981C9.39342 14.709 9.3332 14.7172 9.27299 14.72C9.25109 14.72 9.22372 14.6981 9.2073 14.7063C9.17719 14.7364 9.14983 14.72 9.11972 14.72C9.09782 14.72 9.07593 14.6981 9.05403 14.6981C9.02392 14.6981 8.98834 14.6844 8.96097 14.7118C8.93908 14.7254 8.91171 14.7282 8.88981 14.72C8.86792 14.7118 8.84602 14.6981 8.81865 14.72C8.79676 14.7336 8.77486 14.6707 8.75296 14.72C8.71191 14.7036 8.66812 14.6954 8.62433 14.6926C8.58874 14.6926 8.54495 14.7063 8.50116 14.679C8.47927 14.6653 8.4519 14.6625 8.43 14.6707C8.30684 14.7145 8.18367 14.6571 8.05503 14.6625C7.92366 14.6735 7.78955 14.6735 7.65817 14.6625H7.53501C7.48574 14.6625 7.43374 14.6707 7.37626 14.6407C7.33521 14.6297 7.29415 14.6297 7.2531 14.6407C7.21752 14.6407 7.18741 14.6543 7.15183 14.6543C7.10804 14.6543 7.06425 14.6325 7.02867 14.6461C6.95751 14.6735 6.88361 14.6598 6.81245 14.668C6.76318 14.6762 6.71939 14.6379 6.66191 14.6543C6.61812 14.6625 6.56064 14.6461 6.51138 14.6407C6.46211 14.6352 6.4019 14.6625 6.35263 14.6188C6.26505 14.6762 6.2021 14.5614 6.12273 14.5833C6.05704 14.534 5.99409 14.4903 5.9284 14.4384C5.88187 14.4001 5.84903 14.3454 5.83535 14.288C5.81345 14.2169 5.76966 14.1513 5.76966 14.072C5.76966 14.0638 5.76145 14.0501 5.76966 14.0447C5.80524 14.0009 5.76145 13.9736 5.75597 13.9298C5.76418 13.9216 5.76966 13.908 5.77787 13.9025L5.7505 13.8724C5.75871 13.8505 5.7724 13.8287 5.77787 13.8068C5.7724 13.7904 5.76145 13.7767 5.7505 13.7631C5.76418 13.7631 5.7724 13.7549 5.79429 13.7549C5.78061 13.6974 5.7724 13.64 5.75871 13.5662V13.558C5.8025 13.5143 5.75871 13.4486 5.78608 13.3994C5.81619 13.3557 5.80798 13.3119 5.78608 13.2627C5.7724 13.219 5.77787 13.1616 5.77787 13.1124C5.77787 13.0823 5.79977 13.0604 5.79977 13.0331C5.79977 13.0057 5.77787 12.9839 5.77787 12.9538C5.77787 12.9401 5.79155 12.9264 5.79155 12.91C5.79977 12.8882 5.8025 12.8636 5.79977 12.839C5.78334 12.8034 5.77513 12.7624 5.77787 12.7241V12.5874C5.72039 12.5874 5.65471 12.5656 5.59723 12.6011C5.58902 12.6011 5.58354 12.5929 5.56712 12.5929C5.52607 12.5902 5.48501 12.5902 5.44396 12.5929C5.3728 12.6202 5.29342 12.6011 5.21953 12.6066C5.18395 12.5628 5.13194 12.5929 5.09636 12.5847C5.07447 12.5546 5.05257 12.5273 5.03889 12.5054C5.01425 12.5163 4.98962 12.5273 4.96772 12.5409C4.90204 12.396 4.87467 12.1965 4.92393 12.1035C4.87467 12.016 4.91025 11.9231 4.90204 11.8356C4.90204 11.8 4.89383 11.7563 4.93214 11.7289C4.88014 11.6579 4.89656 11.5786 4.94035 11.4993C4.98415 11.4856 5.02794 11.4774 5.06352 11.4637C5.10731 11.4282 5.14289 11.3981 5.17026 11.3708C5.22774 11.4145 5.277 11.3981 5.34269 11.379C5.39196 11.4501 5.47133 11.3434 5.54523 11.3872C5.61639 11.4227 5.69029 11.3516 5.78334 11.3872C5.76966 11.3708 5.75871 11.3544 5.74776 11.3352C5.76145 11.2696 5.79703 11.1985 5.74776 11.1329V11.1275C5.75871 11.0947 5.76418 11.0618 5.76966 11.0263C5.76966 10.9908 5.73408 10.9689 5.75597 10.9251C5.76966 10.9033 5.74776 10.8595 5.74776 10.8322V10.4139C5.74776 10.3865 5.73955 10.3565 5.76966 10.3346C5.74503 10.3155 5.73682 10.2826 5.74776 10.2553C5.75597 10.2116 5.74776 10.1678 5.76966 10.1268C5.79155 10.0803 5.79155 10.0284 5.76966 9.9819C5.74776 9.93816 5.73955 9.88075 5.75597 9.85341C5.79155 9.79599 5.76418 9.73038 5.79977 9.68116C5.82714 9.63195 5.78608 9.57454 5.75597 9.52259C5.79977 9.4433 5.78334 9.35855 5.77787 9.27106C5.75597 9.14803 5.7505 9.14803 5.77787 9.04687C5.78334 9.02226 5.78608 8.99766 5.78608 8.97579C5.75871 8.82541 5.75871 8.82541 5.78608 8.68871V8.67504C5.79429 8.54654 5.79977 8.41531 5.81619 8.29228C5.81619 8.26494 5.7724 8.24307 5.80798 8.20479C5.81619 8.19659 5.79429 8.15558 5.79429 8.13371C5.79429 8.11184 5.81619 8.08176 5.80798 8.07629C5.78608 8.04895 5.79429 8.01888 5.79429 7.98881V7.90952C5.78882 7.88218 5.78061 7.85757 5.7724 7.83023C5.78334 7.80016 5.79155 7.77008 5.79429 7.73728V7.45567C5.79429 7.42833 5.79977 7.40099 5.80798 7.37638C5.79977 7.33264 5.79429 7.29163 5.79429 7.24789V6.41128C5.71492 6.40307 5.64376 6.39761 5.56986 6.39761C5.56165 6.39761 5.55617 6.39214 5.55617 6.38394C5.37553 6.44135 5.19489 6.39214 5.00878 6.37573C5.01973 6.35113 5.03068 6.32379 5.03615 6.29645C5.00057 6.26637 4.96499 6.24723 4.92667 6.21716C4.94857 6.116 4.90477 6.00938 4.95404 5.90822C4.89656 5.8508 4.96225 5.77972 4.93214 5.7059C4.91846 5.67036 4.91025 5.61294 4.95404 5.5774C4.91025 5.54186 4.93214 5.48991 4.93214 5.4489C4.93214 5.39969 4.95404 5.35594 4.96225 5.3122C4.97594 5.3122 4.98962 5.304 5.00604 5.304C5.00604 5.28213 5.01425 5.26025 5.01425 5.23291C5.04436 5.24112 5.07173 5.24112 5.11552 5.24658C5.13742 5.23291 5.16479 5.21104 5.2031 5.18917C5.22774 5.21378 5.2469 5.24112 5.26879 5.26846C5.29069 5.25479 5.30437 5.25479 5.32627 5.23838C5.34816 5.24658 5.37553 5.25205 5.40564 5.26025C5.41111 5.24385 5.41933 5.22471 5.42754 5.20831C5.4987 5.20011 5.5726 5.20011 5.63555 5.25205C5.66565 5.27392 5.71492 5.27392 5.75871 5.28759L5.8025 5.24385C5.79429 5.17277 5.81619 5.09895 5.77513 5.02786C5.76692 5.01146 5.76692 4.99232 5.77513 4.97865C5.78882 4.94311 5.8244 4.90757 5.78334 4.87202C5.81071 4.83648 5.80524 4.80094 5.80524 4.75719V4.48926C5.80524 4.44825 5.79977 4.40724 5.79155 4.36623C5.79155 4.35529 5.79429 4.34436 5.79977 4.33616C5.82166 4.28694 5.81345 4.22679 5.77787 4.18578C5.78608 4.17211 5.79977 4.16391 5.80524 4.15024C5.80524 4.1147 5.75597 4.08463 5.79155 4.04362C5.81345 4.01354 5.80524 3.978 5.79155 3.93425C5.77787 3.89871 5.79977 3.85497 5.79155 3.81122C5.78334 3.76748 5.77787 3.74014 5.79977 3.69639C5.82166 3.66905 5.80798 3.61711 5.80798 3.57336C5.80524 3.48588 5.80524 3.44213 5.80798 3.71007C5.80524 3.99714 5.80524 3.99714 5.79977 4.00261C5.80798 4.01081 5.81345 4.01628 5.81345 4.02448L5.82166 4.01628C5.82166 4.00534 5.81619 3.99987 5.80798 3.71007ZM12.0401 3.22888V3.20701H11.9963C11.9826 3.1988 11.9662 3.18787 11.9525 3.17693C11.9525 3.20701 11.9607 3.22068 11.9607 3.23435C11.9881 3.23708 12.0127 3.22614 12.0319 3.20701L12.0401 3.21521C12.0483 3.20701 12.0538 3.20154 12.062 3.20154L12.0538 3.19334C12.0483 3.19334 12.0483 3.1988 12.0401 3.22888ZM15.9485 13.435C16.0005 13.4623 16.0607 13.465 16.1127 13.4432C16.1346 13.435 16.162 13.4295 16.1702 13.435C16.2194 13.4787 16.2796 13.4568 16.3289 13.4568C16.3645 13.4568 16.4083 13.435 16.4384 13.4486C16.4959 13.476 16.5314 13.4404 16.5752 13.4404C16.619 13.4404 16.6683 13.476 16.7203 13.4623C16.734 13.4623 16.7422 13.4486 16.7477 13.4486C16.8188 13.435 16.8927 13.4268 16.9639 13.4568C17.0132 13.4131 17.0734 13.435 17.1226 13.4568C17.1582 13.4486 17.1938 13.4295 17.2102 13.4432C17.254 13.4787 17.3033 13.465 17.3553 13.465H17.629C17.6728 13.465 17.722 13.4377 17.7521 13.4514C17.8014 13.4732 17.8452 13.465 17.889 13.465H18.7539C18.8031 13.465 18.8551 13.4869 18.8989 13.4432C18.9154 13.435 18.9345 13.435 18.9482 13.4432C18.9838 13.4732 19.0139 13.4787 19.0495 13.4432C19.0577 13.435 19.0933 13.4295 19.0987 13.435C19.1425 13.4842 19.1863 13.4432 19.2274 13.4268C19.2411 13.4404 19.2493 13.4486 19.2575 13.4486C19.2794 13.4404 19.2931 13.435 19.315 13.4268C19.3505 13.4186 19.3889 13.4131 19.4244 13.4131C19.46 13.4131 19.4901 13.4213 19.5257 13.4213H20.938C20.9708 13.4186 21.0009 13.4131 21.031 13.3994C21.0584 13.4076 21.0803 13.4131 21.1022 13.4213C21.1378 13.4295 21.1816 13.4076 21.2254 13.4432C21.2527 13.4568 21.2856 13.4568 21.3129 13.4432C21.3786 13.4076 21.4416 13.4213 21.5073 13.4213H21.9507C21.9862 13.4213 22.0218 13.4076 22.0519 13.4076C22.0793 13.4158 22.1094 13.4213 22.1395 13.4213C22.2846 13.4213 22.4269 13.4213 22.5637 13.4705C22.5856 13.4787 22.6075 13.4787 22.6294 13.4705C22.665 13.4268 22.7088 13.4486 22.7444 13.4486H22.8949V12.4753C22.8785 12.4453 22.8593 12.4206 22.8374 12.396C22.8593 12.3878 22.873 12.3824 22.8949 12.3742C22.884 12.3031 22.8758 12.2293 22.873 12.1582C22.873 12.0789 22.8511 11.9996 22.8949 11.9285C22.8511 11.8574 22.8812 11.7836 22.873 11.7043C22.873 11.625 22.8511 11.5458 22.8949 11.4801C22.8867 11.461 22.8785 11.4419 22.873 11.4227V10.5725C22.873 10.5424 22.8949 10.5287 22.8867 10.485C22.8648 10.4139 22.873 10.3346 22.8648 10.2389C22.8676 10.2307 22.873 10.2252 22.8785 10.217C22.8676 10.1842 22.8593 10.1514 22.8566 10.1159C22.8648 10.0284 22.8347 9.93543 22.8785 9.85067C22.8867 9.84247 22.8703 9.8206 22.8703 9.80693C22.8621 9.78506 22.8566 9.76045 22.8566 9.73584V8.78714C22.8566 8.7516 22.8703 8.72152 22.8648 8.67778C22.8511 8.57662 22.8374 8.46999 22.8785 8.3743C22.8703 8.3661 22.8648 8.35243 22.8566 8.35243C22.8703 8.31689 22.884 8.28134 22.9004 8.24307C22.8758 8.18292 22.8621 8.12004 22.8566 8.05716V7.42286C22.8566 7.36545 22.8429 7.29983 22.8785 7.24242C22.8922 7.22055 22.8703 7.1768 22.8648 7.13306C22.873 7.09751 22.8785 7.06197 22.8867 7.0319C22.8676 7.00729 22.8457 6.98269 22.821 6.96081C22.8785 6.85966 22.8511 6.7585 22.8511 6.66554C22.8511 6.56438 22.873 6.46322 22.8292 6.37027C22.8867 6.34019 22.8374 6.30465 22.8374 6.29098C22.8484 6.25544 22.8539 6.21989 22.8593 6.18435V5.73871C22.8593 5.68949 22.8238 5.63208 22.8374 5.58834C22.8511 5.54733 22.8593 5.50358 22.8593 5.45984V5.25752C22.8593 5.22198 22.873 5.18644 22.8374 5.15089C22.8292 5.14269 22.8457 5.10715 22.8511 5.08528C22.8566 5.0634 22.8648 5.03606 22.8593 5.02786C22.8238 5.00052 22.8374 4.95678 22.8374 4.92124V4.70251C22.8101 4.66697 22.78 4.6369 22.7499 4.60136C22.7663 4.59042 22.7827 4.58495 22.7991 4.57948C22.8128 4.54394 22.821 4.51387 22.8292 4.49199C22.821 4.45645 22.7991 4.41271 22.8155 4.39084C22.8374 4.3635 22.8019 4.33342 22.8292 4.31155C22.8128 4.30608 22.7937 4.29788 22.78 4.28968C22.6568 4.31155 22.5336 4.31975 22.4187 4.28148C22.353 4.31702 22.2517 4.31155 22.1669 4.28968C22.0957 4.2678 22.0164 4.21859 21.9507 4.27601C21.8576 4.24867 21.7563 4.24593 21.6633 4.26781C21.5976 4.28148 21.5264 4.29788 21.4607 4.25414C21.3951 4.28421 21.3458 4.28968 21.2883 4.26781C21.2664 4.2596 21.2445 4.24593 21.2308 4.25414C21.1734 4.29788 21.1077 4.27601 21.0502 4.27601C20.9927 4.27601 20.927 4.26234 20.8696 4.26234C20.8121 4.25413 20.7546 4.28421 20.6889 4.28421C20.6178 4.27601 20.5384 4.29788 20.4727 4.26234C20.4481 4.25413 20.4234 4.25413 20.4015 4.26234C20.366 4.27601 20.3304 4.30608 20.2921 4.27054C20.2647 4.235 20.2209 4.31428 20.1826 4.27054C20.1032 4.27874 20.0184 4.24867 19.9445 4.29241C19.9171 4.28421 19.887 4.27874 19.8651 4.27054C19.7994 4.24867 19.7365 4.33616 19.6708 4.27874C19.627 4.32249 19.5695 4.28694 19.5257 4.30061C19.4764 4.32249 19.4326 4.29241 19.3806 4.30061H19.0796C19.0549 4.29788 19.0303 4.28968 19.0084 4.27874C18.9756 4.28968 18.9427 4.29515 18.9071 4.30061H18.7566C18.7128 4.30061 18.669 4.31428 18.628 4.27874C18.5842 4.32249 18.5349 4.30061 18.4829 4.30061H17.3744C17.317 4.30061 17.2513 4.28694 17.1938 4.32249C17.1801 4.33069 17.1445 4.30882 17.1144 4.30882C17.0706 4.30882 17.0268 4.29515 16.9995 4.30882C16.9639 4.32249 16.9283 4.33069 16.8982 4.30882C16.8489 4.27327 16.8051 4.30061 16.775 4.31702C16.7312 4.30882 16.6957 4.28694 16.682 4.30335C16.6382 4.32522 16.6108 4.33889 16.5725 4.30335C16.5013 4.31155 16.422 4.28148 16.3563 4.33342C16.3234 4.30335 16.2742 4.29788 16.2331 4.31975C16.2085 4.33342 16.1811 4.33889 16.1537 4.33342C16.11 4.29788 16.0607 4.31155 16.0087 4.31155H15.4367C15.371 4.31155 15.2916 4.29788 15.2341 4.32522C15.163 4.36076 15.1192 4.28968 15.0617 4.31155C15.0179 4.33069 14.9686 4.32249 14.9331 4.28968C14.9166 4.28147 14.8975 4.28147 14.8838 4.28968C14.8564 4.31702 14.8126 4.31975 14.7853 4.29241C14.7853 4.29241 14.7853 4.29241 14.7825 4.28968C14.7688 4.28147 14.7387 4.29788 14.7168 4.29788C14.6949 4.29788 14.673 4.30608 14.6457 4.30608C14.6238 4.30608 14.6019 4.29241 14.5745 4.29241H13.5728C13.5509 4.29241 13.5235 4.30608 13.5016 4.30608C13.3921 4.28421 13.2854 4.27054 13.1759 4.31428C13.165 4.32249 13.1513 4.32249 13.1403 4.31428C13.1048 4.28148 13.0555 4.27327 13.0117 4.29241C12.9679 4.30608 12.9323 4.29241 12.8885 4.29241C12.8694 4.29515 12.853 4.30335 12.8393 4.31428C12.7681 4.27054 12.6887 4.27874 12.6094 4.30061C12.5902 4.30882 12.571 4.31155 12.5519 4.31428C12.5245 4.30061 12.4944 4.27054 12.4725 4.31428C12.4506 4.27874 12.415 4.29241 12.3795 4.29241H11.9196C11.8786 4.29241 11.8348 4.29788 11.7965 4.31428C11.739 4.33616 11.7089 4.28694 11.6596 4.29241C11.5502 4.31428 11.4352 4.27874 11.3285 4.32249C11.3066 4.33069 11.271 4.30882 11.2354 4.30061C11.2108 4.31155 11.1834 4.31975 11.156 4.32249C11.0493 4.33069 10.9398 4.30882 10.8385 4.35256C10.8166 4.36076 10.7947 4.36076 10.7729 4.35256C10.7236 4.31702 10.6579 4.33069 10.6086 4.33069H10.4581C10.4061 4.33069 10.3568 4.32249 10.3076 4.35256C10.2583 4.29515 10.22 4.36623 10.1707 4.36076C10.0722 4.35256 9.97365 4.35256 9.87512 4.36076C9.78207 4.36896 9.68901 4.31155 9.58774 4.36076H9.56585C9.47826 4.31702 9.3852 4.33889 9.29215 4.34709C9.24836 4.34709 9.21278 4.37717 9.16898 4.35529C9.12519 4.34162 9.06772 4.35529 9.02392 4.33342C8.99108 4.31428 8.95276 4.30882 8.91718 4.31975C8.84602 4.35529 8.77212 4.33342 8.69275 4.34162C8.64348 4.34983 8.59148 4.33342 8.534 4.3635C8.50664 4.38537 8.44095 4.37717 8.41084 4.35529C8.37526 4.33342 8.33968 4.34162 8.30136 4.34162C8.25757 4.34162 8.21378 4.3635 8.17272 4.3635L7.82787 4.34162C7.79228 4.29788 7.7266 4.34162 7.69923 4.31155C7.64996 4.25413 7.60617 4.31975 7.56238 4.31975C7.51038 4.32249 7.46111 4.32522 7.41184 4.33342C7.38995 4.32522 7.36258 4.30608 7.33247 4.28968C7.31879 4.31155 7.3051 4.32522 7.28868 4.34709C7.28047 4.32522 7.275 4.31155 7.26678 4.28968H7.14362C7.09983 4.28968 7.05604 4.29241 7.01498 4.29788C7.03688 4.36896 7.0013 4.42638 7.01498 4.49199C7.02867 4.55761 7.01498 4.6287 7.02319 4.69431C7.02319 4.75993 7.00951 4.82281 7.04509 4.88296C7.02319 4.9185 7.00951 4.95404 6.98761 4.98959L7.02319 5.02513C7.01498 5.0388 7.0013 5.0552 7.0013 5.06067C7.00951 5.08528 7.01498 5.11262 7.01498 5.13996C7.02046 5.1673 7.02867 5.19464 7.04235 5.21924C6.99856 5.28486 6.95477 5.34227 6.94108 5.41336C7.01225 5.55006 7.08614 5.67856 7.02046 5.84533C7.00677 5.88088 6.99856 5.93829 7.03414 5.97383C7.04235 5.98203 7.02593 6.00391 7.02593 6.01758C7.03414 6.08866 6.99856 6.15428 7.01225 6.21989C7.02319 6.25817 7.0314 6.29645 7.03414 6.33472V6.75303C7.0314 6.78037 7.02319 6.80771 7.01225 6.83231H7.02046C7.02046 6.87059 7.02046 6.90887 7.02867 6.94714C7.02046 6.95535 7.00677 6.96081 7.0013 6.96902C7.02867 6.97722 7.05056 6.98269 7.07246 6.99089C7.04509 7.11939 7.04509 7.11939 7.07246 7.19321C7.06425 7.20688 7.05056 7.21508 7.04509 7.22875V7.48028C7.04509 7.52402 7.10257 7.55956 7.04509 7.60331C7.08888 7.64705 7.06699 7.68259 7.04509 7.71814C7.03688 7.73728 7.03688 7.75641 7.04509 7.77555C7.08067 7.81109 7.06699 7.85484 7.06699 7.89038V8.52467C7.06699 8.59029 7.06699 8.66137 7.0314 8.71332C6.99582 8.77073 7.02319 8.81448 7.03962 8.85002C7.03141 8.87736 7.01772 8.89377 7.01772 8.91564C7.01772 9.00313 7.00951 9.08788 7.03962 9.17537C7.0533 9.22458 7.06151 9.2902 7.02593 9.33941C7.0533 9.39136 7.03962 9.44877 7.03962 9.50619C7.03962 9.51986 7.01772 9.54173 7.02593 9.5554C7.06151 9.65656 7.03414 9.76318 7.03962 9.86434C7.03688 9.89168 7.02867 9.91902 7.01772 9.94363C7.02867 9.96824 7.03688 9.99557 7.03962 10.0229C7.04783 10.0721 7.04783 10.1241 7.03962 10.1733C7.03141 10.2225 7.0533 10.2799 7.02593 10.3319C6.99856 10.3838 7.03962 10.4248 7.03962 10.4686C7.03962 10.4768 7.03962 10.4904 7.0314 10.4904C6.98214 10.5342 7.03141 10.5697 7.03962 10.6053C7.03141 10.6189 7.00951 10.6353 7.00951 10.649C7.00951 10.7064 6.99582 10.7775 7.02319 10.8212C7.05877 10.8869 6.9794 10.9306 7.00951 10.988C7.01772 11.0017 7.01772 11.0236 7.02319 11.0318C7.05877 11.0755 7.01498 11.1029 7.01498 11.1411C7.03962 11.2341 7.04235 11.3325 7.02319 11.4282C7.00677 11.4801 7.00677 11.5403 7.02319 11.5922C7.03414 11.6305 7.03414 11.6688 7.02319 11.7071C7.00951 11.7508 6.99309 11.8 7.02319 11.8356C7.05877 11.8848 7.00951 11.9067 7.00951 11.9504C7.08067 12.0215 7.0013 12.0953 7.00951 12.1746C7.01772 12.2539 6.98761 12.3332 7.03962 12.4042C7.0013 12.4617 6.99856 12.5382 7.0314 12.5984C7.01772 12.6694 6.98761 12.7269 7.00403 12.7788C7.02593 12.8718 7.01225 12.9729 7.01772 13.0659C7.01772 13.0932 7.00403 13.137 7.01772 13.1534C7.06151 13.2108 7.03141 13.2682 7.03962 13.3256C7.03962 13.3475 7.01772 13.3694 7.00951 13.3912C7.02319 13.4158 7.03414 13.4432 7.04509 13.4705C7.06699 13.4787 7.08888 13.4924 7.11078 13.5061C7.19562 13.4705 7.29142 13.4705 7.37626 13.5061C7.42006 13.4842 7.49943 13.4623 7.5268 13.4842C7.62807 13.5498 7.74302 13.4705 7.83608 13.5334C7.92913 13.476 8.04409 13.5471 8.13167 13.476C8.15357 13.4951 8.17272 13.517 8.18915 13.5416C8.16178 13.5553 8.14535 13.5635 8.09609 13.5935H8.18915L8.22473 13.558C8.21652 13.5498 8.20831 13.5416 8.20283 13.5307L8.23841 13.4951H8.45463C8.45463 13.517 8.46284 13.5389 8.46284 13.5662H8.62159C8.66538 13.5006 8.71465 13.5662 8.77212 13.5443C8.81591 13.5307 8.87339 13.5525 8.93087 13.558C8.94729 13.5525 8.96097 13.5443 8.97466 13.5361C9.00477 13.5279 9.02392 13.5717 9.05403 13.5361C9.07593 13.5225 9.11972 13.5443 9.14709 13.5143C9.16625 13.5061 9.18541 13.5061 9.20456 13.5143C9.23193 13.5416 9.27025 13.5361 9.29762 13.5361C9.37699 13.5361 9.45637 13.5498 9.52753 13.5088C9.53574 13.517 9.54942 13.5225 9.55763 13.5361C9.56585 13.5279 9.57406 13.5197 9.585 13.5143C9.59322 13.5225 9.6069 13.5279 9.61511 13.5361C9.63974 13.5252 9.66711 13.5197 9.69448 13.5143C9.73828 13.5061 9.78754 13.5143 9.82312 13.5006C9.87239 13.4732 9.90249 13.5307 9.95176 13.5143C9.97639 13.5061 10.0038 13.5006 10.0311 13.5006C10.053 13.4924 10.0831 13.4869 10.0886 13.4924C10.1242 13.5361 10.1762 13.5143 10.2172 13.5143H11.9607C12.01 13.517 12.0565 13.5115 12.103 13.4924C12.1496 13.4732 12.2043 13.4787 12.2481 13.5061C12.2672 13.5143 12.2864 13.5143 12.3056 13.5061C12.363 13.476 12.415 13.4842 12.478 13.5061C12.5355 13.5252 12.5957 13.5225 12.6504 13.4979C12.6778 13.4842 12.738 13.476 12.7599 13.4897C12.7955 13.517 12.8311 13.5033 12.8694 13.5115C12.8967 13.5197 12.9351 13.5252 12.9624 13.5334C12.9789 13.5225 12.9953 13.5115 13.0144 13.5061C13.0281 13.5197 13.0363 13.5334 13.0418 13.5334C13.0856 13.5279 13.1267 13.5115 13.1622 13.4897C13.2142 13.4623 13.2416 13.5252 13.2909 13.5115C13.321 13.5033 13.3429 13.4979 13.3702 13.4897C13.4359 13.5252 13.5153 13.5307 13.5865 13.5033C13.6357 13.4897 13.6877 13.4732 13.7151 13.4897C13.7945 13.5252 13.8793 13.5033 13.9614 13.5115H14.1421C14.164 13.5115 14.1777 13.5252 14.1859 13.5252C14.2214 13.517 14.2515 13.517 14.2789 13.5115C14.3063 13.5061 14.3337 13.4979 14.3583 13.4897C14.3884 13.5006 14.4212 13.5061 14.4513 13.5115C14.5225 13.5115 14.5964 13.5197 14.6676 13.5115C14.7114 13.5033 14.7387 13.5389 14.7907 13.5197C14.8263 13.4979 14.8838 13.5197 14.9358 13.4924C14.9604 13.4869 14.9851 13.4897 15.007 13.5006C15.0562 13.5307 15.1 13.5088 15.1438 13.4869C15.1985 13.5197 15.2642 13.5252 15.3244 13.5006C15.3518 13.4924 15.3956 13.4869 15.4175 13.5006C15.475 13.5307 15.5325 13.5225 15.5899 13.5143C15.7487 13.4869 15.7569 13.4869 15.8992 13.5143C15.8773 13.4568 15.9047 13.4432 15.9485 13.435ZM5.07994 5.35868L5.05804 5.33681C5.03615 5.35048 5.01425 5.35868 4.99236 5.37235L5.03615 5.41609C5.05257 5.39969 5.06899 5.38055 5.07994 5.35868ZM24.8601 5.42429C24.8628 5.41883 24.8655 5.41063 24.8683 5.40242C24.8546 5.38055 24.8464 5.36688 24.8327 5.34501L24.8245 5.35321C24.8108 5.38328 24.8327 5.39695 24.8519 5.41062C24.8464 5.41609 24.8546 5.41609 24.8601 5.42429ZM24.8546 12.3058C24.8409 12.3332 24.7971 12.3414 24.8327 12.3906C24.8382 12.3632 24.8902 12.355 24.8546 12.3058ZM6.8535 12.6503V12.7378C6.86719 12.7378 6.88361 12.7351 6.89729 12.7296C6.88361 12.7023 6.86992 12.6776 6.8535 12.6503ZM14.0873 13.5799H14.1804C14.1749 13.5662 14.1722 13.5525 14.1722 13.5361C14.1448 13.5498 14.1147 13.5635 14.0873 13.5799ZM6.8754 11.7809H6.86171V11.8602H6.8754V11.7809ZM13.1075 14.5012H13.0856C13.0856 14.5231 13.0938 14.545 13.0938 14.5669H13.1075V14.5012ZM22.4981 14.5942V14.5723C22.4762 14.5723 22.4543 14.5805 22.4324 14.5805V14.5942H22.4981ZM11.9908 3.37925V3.36558H11.9415V3.37925H11.9908ZM6.8754 11.6196H6.86171V11.6715H6.8754V11.6196ZM23.924 9.86434V9.85614H23.8939V9.86434H23.924ZM23.9021 10.2826V10.2908H23.9295V10.2826H23.9021ZM17.9218 4.15571V4.16391H17.9492V4.15571H17.9218ZM17.8343 3.13592H17.826V3.166H17.8343V3.13592ZM13.8136 3.18513H13.8054V3.21247H13.8136V3.18513ZM14.2187 13.5799H14.2269V13.5525H14.2187V13.5799ZM18.7867 14.3071V14.2989H18.7593V14.3071H18.7867ZM13.0938 14.4712H13.102V14.4411H13.0938V14.4712ZM13.8875 3.21521H13.8957V3.18787H13.8875V3.21521ZM18.305 4.17211V4.16391H18.2776V4.17211H18.305ZM23.9897 7.02096H23.9979V6.99362H23.9897V7.02096ZM18.1244 14.5149V14.5067H18.097V14.5149H18.1244ZM6.91098 5.67583H6.91919V5.64575H6.91098V5.67583ZM18.1818 14.5231H18.1901V14.4958H18.1818V14.5231Z" fill="white"/>
<path d="M8.87868 15.5156C8.91426 15.603 8.95805 15.6741 8.98816 15.7534C9.01552 15.8354 9.04837 15.9147 9.08942 15.9913C9.13322 16.0624 9.15511 16.1416 9.1989 16.2155C9.24269 16.2948 9.27006 16.374 9.32207 16.4451C9.37407 16.5162 9.36586 16.6174 9.46713 16.6693C9.47534 16.6256 9.47534 16.5982 9.48081 16.56C9.4945 16.5517 9.51092 16.5517 9.51639 16.5463C9.53008 16.5107 9.53829 16.4752 9.55197 16.4369C9.61766 16.2565 9.71619 16.0924 9.75998 15.8983C9.76819 15.8546 9.80377 15.819 9.81746 15.7835C9.83388 15.7616 9.84757 15.737 9.85304 15.7124C9.84483 15.6194 9.91052 15.562 9.96799 15.5046H10.5865C10.6358 15.5074 10.6823 15.5156 10.7316 15.5265C10.7234 15.5757 10.7234 15.6277 10.7179 15.6769V16.4779C10.7152 16.5271 10.7152 16.5791 10.7179 16.6283C10.7261 16.6775 10.6906 16.7377 10.7398 16.7869C10.696 16.8306 10.7097 16.888 10.7179 16.9236C10.7316 16.9728 10.7617 17.0165 10.7179 17.0685C10.7261 17.104 10.748 17.1478 10.7398 17.1778C10.7042 17.2653 10.7179 17.3501 10.7179 17.4376V17.6399C10.7179 17.6973 10.7042 17.7629 10.7398 17.8203C10.7535 17.8422 10.7398 17.886 10.7398 17.9215H9.9242C9.9461 17.834 9.89409 17.741 9.95157 17.6563C9.90231 17.5989 9.92967 17.5278 9.92967 17.4622C9.92967 17.413 9.91599 17.361 9.95157 17.3173C9.95978 17.3036 9.94336 17.2681 9.92967 17.2243C9.92967 17.2161 9.94336 17.2024 9.95157 17.1806C9.94336 17.1669 9.93515 17.156 9.9242 17.145C9.96799 17.0958 9.93789 17.0357 9.9242 16.9728C9.91599 16.9865 9.91052 17.0029 9.90231 17.0165C9.82293 17.1669 9.75177 17.3255 9.66419 17.4758C9.61492 17.5633 9.57113 17.6481 9.52734 17.7356C9.50544 17.7848 9.46165 17.8285 9.42607 17.8723C9.41239 17.8641 9.39049 17.8641 9.39049 17.8586C9.3467 17.7711 9.28375 17.7082 9.25364 17.6071C9.22901 17.536 9.19343 17.4704 9.1469 17.413C9.10311 17.3473 9.07574 17.2763 9.03195 17.2052C8.99637 17.1423 8.95257 17.0821 8.90331 17.0329V17.5251C8.90331 17.5387 8.9252 17.5524 8.9252 17.5688C8.92247 17.6016 8.91699 17.6317 8.91152 17.6618C8.9471 17.7274 8.91973 17.8121 8.93342 17.9078H8.1479L8.09043 17.8504C8.09043 17.8422 8.09864 17.8422 8.10411 17.8367C8.0959 17.8149 8.09043 17.7903 8.09043 17.7657C8.09043 17.7438 8.12053 17.7219 8.08222 17.6946C8.09043 17.6809 8.10411 17.659 8.10959 17.6454C8.06579 17.5879 8.08222 17.5223 8.08222 17.4594C8.08222 17.3966 8.06032 17.3227 8.10411 17.2653C8.07401 17.2079 8.06032 17.1505 8.0959 17.0986C8.08769 17.0548 8.06853 17.0111 8.08222 16.9755C8.09043 16.94 8.12601 16.9044 8.08222 16.8662L8.13148 16.8169C8.1178 16.7513 8.10137 16.6885 8.08769 16.6146C8.08769 16.6064 8.10137 16.601 8.10959 16.5928C8.08769 16.4998 8.06032 16.4068 8.10959 16.3112C8.06579 16.2975 8.10959 16.2674 8.10137 16.2455C8.09316 16.2264 8.09043 16.2018 8.09316 16.1799C8.11506 16.0924 8.11506 16.0924 8.09316 15.9858C8.09316 15.9721 8.08495 15.9639 8.09316 15.9503C8.10138 15.9011 8.12874 15.8491 8.11506 15.8136C8.09316 15.7698 8.10138 15.7343 8.10685 15.6905C8.11506 15.6413 8.09316 15.5812 8.08495 15.5265C8.35865 15.5156 8.61866 15.5156 8.87868 15.5156Z" fill="white"/>
<path d="M14.0434 16.9263C14.0352 16.8962 14.0269 16.8689 14.016 16.8388H13.9421C13.9339 16.8252 13.9284 16.8252 13.9284 16.817V16.7377C13.9284 16.7158 13.9366 16.672 13.9202 16.6666C13.8928 16.6447 13.9284 16.631 13.9202 16.6092C13.9175 16.5654 13.9229 16.5217 13.9339 16.4807C13.964 16.4615 13.9941 16.4451 14.0269 16.4315C14.0625 16.3822 14.0269 16.2866 14.0762 16.2073C14.0762 16.2073 14.0543 16.1936 14.0543 16.1772C14.0215 16.0405 14.016 15.8983 14.0406 15.7589C14.0488 15.7233 14.0269 15.7015 14.0269 15.6714C14.0187 15.6441 14.0707 15.6277 14.0406 15.6003C14.0324 15.5921 14.0324 15.5866 14.0187 15.5648C14.0516 15.5538 14.0817 15.5429 14.1118 15.5292C14.1036 15.521 14.0981 15.5074 14.0899 15.5019H14.5087C14.5798 15.5101 14.6537 15.48 14.7112 15.5238C14.7358 15.5128 14.7632 15.5046 14.7906 15.5019H15.338C15.3599 15.5019 15.3817 15.5156 15.4091 15.5156H15.4803C15.5159 15.5074 15.5679 15.4882 15.5898 15.5019C15.6253 15.5374 15.6609 15.48 15.6965 15.5101C15.7184 15.532 15.7677 15.5238 15.806 15.5238C15.8717 15.532 15.9072 15.573 15.951 15.6112V15.8136C15.951 15.8491 15.9729 15.8847 15.9729 15.9147C15.9729 15.9448 15.951 15.9721 15.951 16.0077C15.951 16.0432 15.9647 16.0733 15.9647 16.1088C15.9647 16.1499 15.9592 16.1909 15.951 16.2319V16.3467C15.951 16.3658 15.9565 16.385 15.9647 16.4041C15.951 16.4397 15.9291 16.4834 15.9072 16.5408C15.8717 16.5682 15.8197 16.6064 15.7786 16.6338C15.8717 16.6666 15.9483 16.7322 16.003 16.8142V17.4266C16.003 17.4759 16.0113 17.536 15.9948 17.5852C15.9811 17.629 16.003 17.6727 16.0085 17.7137C15.9565 17.7629 15.9155 17.8067 15.8635 17.8504C15.7759 17.8613 15.6883 17.8778 15.6034 17.8996C15.5815 17.9024 15.5597 17.9024 15.5378 17.8996H14.0762C14.0707 17.8996 14.0653 17.8969 14.0625 17.8914C14.0488 17.7821 13.9968 17.6836 14.0543 17.5688C14.0434 17.5469 14.0352 17.5223 14.0324 17.4977V17.2462C14.0324 17.2271 14.0379 17.2079 14.0461 17.1888C14.0571 17.156 14.0571 17.1204 14.0461 17.0876C14.016 17.0411 14.0133 16.9755 14.0434 16.9263ZM15.1464 17.5305C15.1464 17.4649 15.1546 17.4212 15.1464 17.3856C15.1327 17.3501 15.1902 17.3145 15.1546 17.2763C15.1984 17.2407 15.1409 17.2107 15.1464 17.1669C15.1573 17.0794 15.1573 16.9892 15.1464 16.9017C15.1436 16.8744 15.1354 16.847 15.1245 16.8224C15.067 16.8716 15.015 16.8443 14.9657 16.8498C14.8946 16.7841 14.8508 16.858 14.7988 16.8853C14.8289 16.9072 14.8371 16.9482 14.8152 16.9783C14.8097 16.9837 14.807 16.9892 14.7988 16.9947C14.8562 17.0165 14.7906 17.0603 14.8125 17.0822C14.848 17.1259 14.7988 17.1532 14.7988 17.1915C14.8426 17.2353 14.8344 17.279 14.7988 17.32C14.807 17.3282 14.8152 17.3364 14.8207 17.3474C14.8125 17.3911 14.807 17.4348 14.7933 17.4977C14.8426 17.4704 14.8864 17.5333 14.9301 17.4841C14.9438 17.495 14.9575 17.5059 14.9739 17.5141C15.004 17.5059 15.0314 17.4841 15.0533 17.4923C15.0752 17.5032 15.1026 17.5169 15.1464 17.5305ZM15.1765 15.9475H14.8152C14.8015 16.035 14.8289 16.128 14.7933 16.1991C14.8371 16.2784 14.8015 16.3658 14.8207 16.4451C14.9356 16.5025 15.0506 16.4725 15.1737 16.4725V16.4369C15.1819 16.4096 15.1299 16.3877 15.1655 16.3576C15.1217 16.3276 15.1737 16.3002 15.1655 16.2784C15.1655 16.2291 15.1929 16.1772 15.1436 16.1334C15.1792 16.0979 15.1819 16.0432 15.1518 16.0049C15.1628 15.9885 15.171 15.9694 15.1765 15.9475Z" fill="white"/>
<path d="M13.3593 17.7766C13.2662 17.886 13.1348 17.9352 12.9761 17.9352H11.7964C11.7007 17.9324 11.6049 17.9106 11.5145 17.8695C11.4133 17.834 11.3558 17.7547 11.3558 17.6317C11.364 17.3583 11.3558 17.0904 11.3558 16.817C11.3558 16.7677 11.3777 16.7076 11.3339 16.6584C11.3257 16.6502 11.3558 16.6146 11.3476 16.6092C11.3038 16.5818 11.375 16.5654 11.3558 16.5381C11.3421 16.5162 11.3421 16.4943 11.3284 16.4725C11.3147 16.4451 11.3722 16.4068 11.3284 16.3795C11.3421 16.3494 11.3421 16.3166 11.3284 16.2866C11.3202 16.2537 11.3202 16.2182 11.3284 16.1854C11.3366 16.1417 11.3421 16.0979 11.3503 16.0487C11.3503 16.0405 11.3366 16.035 11.3284 16.0268L11.3558 15.9967C11.2846 15.8737 11.3558 15.7452 11.3558 15.614C11.427 15.5921 11.4707 15.5347 11.5501 15.521C11.5802 15.5128 11.6131 15.5074 11.6432 15.5074H13.1075C13.1786 15.5074 13.2525 15.5347 13.3237 15.5511C13.351 15.5866 13.3675 15.6167 13.3948 15.6605C13.4085 15.7179 13.3729 15.789 13.4167 15.8546C13.4085 15.8628 13.4003 15.871 13.3948 15.8819C13.4031 15.9257 13.4523 15.9749 13.4031 16.0268C13.4386 16.076 13.4167 16.128 13.4031 16.1854C13.3948 16.2073 13.4249 16.2346 13.4249 16.2647C13.4249 16.3002 13.4113 16.3358 13.4113 16.3795C13.414 16.4068 13.414 16.4315 13.4113 16.4588C13.3976 16.5518 13.3976 16.6174 13.4249 16.683C13.414 16.7021 13.4058 16.724 13.4031 16.7486C13.4003 16.7814 13.4003 16.817 13.4031 16.8498V16.9646C13.4031 17.0001 13.4167 17.0521 13.3812 17.0794C13.4085 17.0958 13.4167 17.1314 13.4003 17.1587C13.3976 17.1642 13.3921 17.1696 13.3894 17.1724C13.3976 17.1833 13.4031 17.197 13.4113 17.2079C13.4195 17.2435 13.4386 17.2872 13.4249 17.3091C13.4031 17.3446 13.4113 17.3802 13.4113 17.4184C13.3894 17.5305 13.4113 17.6536 13.3593 17.7766ZM12.1413 15.9694V16.1198C12.1386 16.169 12.1386 16.2209 12.1413 16.2701C12.1495 16.303 12.1523 16.3358 12.1495 16.3713C12.1358 16.4123 12.1358 16.4588 12.1495 16.4998C12.1577 16.5353 12.1413 16.5791 12.1358 16.6228V17.4731C12.2453 17.495 12.3521 17.402 12.4451 17.4813C12.4588 17.4677 12.4725 17.4594 12.4889 17.4458C12.5272 17.4786 12.582 17.4841 12.6258 17.4594C12.6175 17.4239 12.5984 17.3938 12.5984 17.3583C12.5956 17.3145 12.5956 17.2708 12.5984 17.2298C12.5984 17.1997 12.5984 17.1724 12.6066 17.1423C12.6203 17.1068 12.5792 17.0849 12.5929 17.0548C12.6039 17.0329 12.6121 17.0083 12.6148 16.9837C12.6066 16.9619 12.5984 16.9372 12.5929 16.9126V15.9202C12.5135 15.9284 12.4424 15.9421 12.3685 15.9421C12.3083 15.9776 12.2289 15.9694 12.1413 15.9694Z" fill="white"/>
<path d="M21.77 16.4807C21.7262 16.5682 21.7262 16.6037 21.7618 16.683C21.7399 16.7322 21.7126 16.7759 21.7618 16.8279C21.6824 16.8716 21.6031 16.8716 21.5155 16.8716H20.8832V17.4977C20.9051 17.5087 20.927 17.5196 20.9489 17.5333H21.7262C21.7481 17.5551 21.7618 17.577 21.7919 17.6043C21.7837 17.6836 21.8056 17.7766 21.77 17.8695C21.7782 17.8887 21.7864 17.9051 21.8001 17.9188C21.7864 17.927 21.7782 17.9324 21.77 17.9324H20.1908C20.147 17.9297 20.1032 17.9215 20.0622 17.9106V17.7657C20.0594 17.7164 20.0594 17.6645 20.0622 17.6153C20.0704 17.5715 20.0129 17.5278 20.0539 17.4868C20.0102 17.4294 20.0758 17.3938 20.0758 17.3501C20.032 17.1915 20.1032 17.0193 20.0266 16.8525H19.9691C19.9472 16.8087 19.9335 16.765 19.9116 16.724C19.9609 16.6584 19.9253 16.5791 19.939 16.4943C19.9718 16.4834 20.0019 16.4725 20.032 16.4588C20.0594 16.415 20.0047 16.3795 20.032 16.3303C20.0539 16.2948 20.0184 16.2373 20.0539 16.2073C20.0102 16.1362 20.0457 16.0569 20.032 15.9831C20.0184 15.9175 20.0539 15.8546 20.032 15.789C20.0184 15.7179 20.0457 15.6386 19.9965 15.5648C20.1306 15.5265 20.2702 15.5156 20.407 15.5347C20.4289 15.5429 20.4563 15.5265 20.4782 15.5265H21.1132C21.1378 15.5265 21.1597 15.5347 21.1788 15.5484C21.1925 15.5566 21.2281 15.5402 21.2664 15.5402C21.3102 15.5675 21.3595 15.562 21.417 15.5484C21.4252 15.5484 21.4306 15.5347 21.4389 15.5347C21.4744 15.5347 21.51 15.521 21.5401 15.5347C21.6195 15.5839 21.7262 15.521 21.8056 15.6003C21.8001 15.6277 21.7892 15.655 21.7782 15.6796C21.7646 15.7015 21.8275 15.7233 21.7782 15.7507C21.822 15.7999 21.8001 15.8436 21.7782 15.8956C21.77 15.9093 21.7782 15.9393 21.7782 15.9667H20.9325C20.8969 15.9667 20.8668 15.9667 20.8449 16.0022C20.9106 16.0678 20.8312 16.1307 20.8367 16.2045C20.8422 16.2783 20.8367 16.3549 20.8367 16.4342C20.8504 16.4479 20.8641 16.4643 20.8723 16.4697C20.9955 16.4369 21.1241 16.4369 21.2473 16.4697C21.3485 16.4315 21.458 16.4342 21.5565 16.4779C21.5648 16.4697 21.5784 16.4643 21.5839 16.4561C21.6551 16.4451 21.7071 16.4588 21.77 16.4807Z" fill="white"/>
<path d="M19.5009 17.4895V17.8422C19.479 17.8559 19.4516 17.8778 19.4215 17.8996C19.3887 17.9297 19.3394 17.9352 19.2984 17.9133C19.2847 17.9051 19.2491 17.8914 19.2409 17.9051C19.1971 17.9488 19.1478 17.927 19.0958 17.927H18.584C18.5594 17.9215 18.5347 17.916 18.5128 17.9051L18.5046 17.9133H18.1351L18.0777 17.8559V17.402C18.0777 17.3583 18.0996 17.3091 18.0558 17.2735C18.105 17.2298 18.0777 17.1806 18.0777 17.1286C18.0804 17.0794 18.0804 17.0275 18.0777 16.9783V15.6386C18.0667 15.6249 18.0558 15.6112 18.0503 15.5948L18.1297 15.5156C18.116 15.5238 18.1215 15.5156 18.1297 15.5156H18.6771C18.7072 15.5128 18.7345 15.5101 18.7646 15.5019C18.7893 15.5128 18.8166 15.5183 18.844 15.5238C18.8522 15.5593 18.8714 15.6112 18.8714 15.6523C18.8796 15.8327 18.8714 16.0049 18.8714 16.1854C18.8741 16.2127 18.8769 16.2401 18.8851 16.2647C18.8769 16.2893 18.8714 16.3166 18.8714 16.344C18.8714 16.3877 18.8577 16.4369 18.8796 16.467C18.907 16.5107 18.8495 16.5326 18.8714 16.56C18.8823 16.5818 18.8905 16.6064 18.8933 16.631C18.8604 16.6803 18.855 16.7431 18.8796 16.7978C18.8933 16.8252 18.8659 16.847 18.8878 16.8771C18.9097 16.899 18.8878 16.9482 18.896 16.9865C18.896 17.0193 18.8878 17.0521 18.8741 17.0794C18.8604 17.1068 18.8741 17.1505 18.8741 17.1942V17.4895H19.5009Z" fill="white"/>
<path d="M17.4318 15.5456V16.0651C17.4318 16.0733 17.4181 16.0788 17.4181 16.087C17.4537 16.1088 17.44 16.1444 17.44 16.1799V17.6426C17.44 17.6864 17.4537 17.7301 17.4181 17.7711C17.4044 17.7848 17.4318 17.8285 17.44 17.8641C17.4291 17.886 17.4181 17.9078 17.4044 17.9297C17.347 17.9734 17.2758 17.8586 17.2238 17.9215C17.1745 17.9215 17.1225 17.8996 17.0869 17.9133C16.9994 17.9488 16.92 17.9215 16.8406 17.927C16.8269 17.927 16.805 17.9051 16.7914 17.8996C16.7804 17.9106 16.7695 17.9188 16.7558 17.927C16.7202 17.9133 16.6901 17.9051 16.6463 17.8914C16.6271 17.8449 16.6135 17.7957 16.6107 17.7465C16.6107 17.7192 16.5615 17.6809 16.6189 17.659V17.3118C16.6162 17.2763 16.608 17.238 16.597 17.2024C16.6107 17.1751 16.6162 17.145 16.6189 17.115V16.7049C16.6189 16.6474 16.6326 16.59 16.6326 16.5326C16.6326 16.4752 16.6271 16.4178 16.6189 16.3604V16.1745C16.6189 16.1471 16.6326 16.1088 16.6326 16.0815C16.6326 16.0514 16.6271 16.0241 16.6189 15.994C16.6107 15.9721 16.6052 15.9503 16.597 15.9284C16.6408 15.8136 16.6052 15.6987 16.6189 15.5757C16.6627 15.532 16.7229 15.5074 16.7859 15.5101C16.9583 15.5101 17.1253 15.5183 17.2977 15.5101C17.3524 15.5101 17.388 15.5292 17.4318 15.5456Z" fill="white"/>
<path d="M24.9038 3.39292C24.9257 3.31363 24.9476 3.24255 24.9695 3.16326H25.1146V3.60891H25.0215V3.39292H24.9996C24.9996 3.41479 24.9914 3.42846 24.9914 3.45033C24.9832 3.4722 24.9695 3.48587 24.9695 3.49954C24.9668 3.52415 24.9668 3.54876 24.9695 3.57063C24.9421 3.61984 24.8983 3.61437 24.8463 3.60617C24.8326 3.54876 24.819 3.49134 24.8025 3.43393H24.7971V3.60617H24.6958V3.16053H24.8326C24.8545 3.23708 24.8764 3.30816 24.9038 3.39292Z" fill="white"/>
<path d="M24.4084 3.60891V3.26442H24.2935V3.17146C24.2935 3.16873 24.2962 3.16326 24.2989 3.16326H24.6657V3.25622C24.6301 3.25622 24.5945 3.26442 24.5507 3.26442V3.60891H24.4084Z" fill="white"/>
<path d="M16.3014 12.4124C16.2002 12.3687 16.1071 12.3851 16.0141 12.3988C15.9839 12.407 15.9484 12.4207 15.9347 12.4124C15.8909 12.3851 15.8471 12.3988 15.806 12.3906C15.7677 12.3796 15.7294 12.3714 15.6911 12.3687C15.6555 12.3687 15.6117 12.3906 15.5679 12.4042C15.5707 12.3796 15.5679 12.355 15.5597 12.3332C15.5542 12.3168 15.546 12.3004 15.5378 12.2839V12.2621C15.5734 12.2402 15.5378 12.2101 15.546 12.1965C15.5652 12.1746 15.5679 12.1418 15.5542 12.1172C15.5241 12.0734 15.5406 12.0297 15.5679 11.9941C15.5542 11.9504 15.5406 11.9149 15.5241 11.8711C15.5323 11.8629 15.546 11.8574 15.546 11.8492V11.1138C15.546 11.1056 15.5323 11.0919 15.5241 11.0864C15.557 10.9935 15.5625 10.8951 15.5378 10.7994C15.5351 10.772 15.5351 10.7474 15.5378 10.7201C15.546 10.6189 15.546 10.5178 15.546 10.4248C15.546 10.4166 15.5323 10.4029 15.5241 10.3947C15.5323 10.3729 15.5542 10.3592 15.5542 10.3373C15.546 10.2088 15.5761 10.0776 15.5406 9.9491C15.5323 9.91355 15.5542 9.87801 15.5542 9.83427C15.5679 9.71124 15.5323 9.58274 15.5761 9.45971C15.5406 9.40229 15.5679 9.33668 15.5542 9.27926C15.5323 9.23005 15.4886 9.18631 15.4667 9.13436C15.4366 9.08515 15.4147 9.0332 15.3873 8.98946C15.3791 8.98946 15.3709 8.99219 15.3654 8.99766V8.68051C15.3654 8.67231 15.3572 8.66684 15.3572 8.67231C15.3845 8.58482 15.3709 8.50553 15.3709 8.43445V8.21026L15.4229 8.15831C15.4229 8.13644 15.4311 8.11457 15.4311 8.0927C15.4803 8.12824 15.5241 8.06536 15.5679 8.0927C15.5898 8.04895 15.6035 8.01341 15.6254 7.97787C15.598 7.94233 15.5597 7.89038 15.5323 7.84937C15.5761 7.81383 15.5542 7.76188 15.5597 7.72087C15.5679 7.67713 15.546 7.61971 15.5679 7.59784C15.6117 7.54589 15.5542 7.50488 15.5679 7.47481C15.598 7.43106 15.5406 7.40372 15.5679 7.36545L15.6117 7.34358C15.598 7.25062 15.5679 7.16313 15.5679 7.07838C15.5597 6.7913 15.5679 6.5015 15.5679 6.21443C15.5679 6.16248 15.5816 6.10507 15.546 6.06406C15.5816 6.02031 15.5597 5.9711 15.5679 5.91915C15.5707 5.86447 15.5707 5.80979 15.5679 5.75238C15.5679 5.73324 15.5625 5.71137 15.5542 5.69496C15.5816 5.61021 15.5789 5.51999 15.546 5.43523C15.5597 5.39969 15.5761 5.34227 15.5898 5.29033H16.4109C16.4602 5.29033 16.5204 5.33954 16.5614 5.3122C16.6052 5.27666 16.649 5.3122 16.6846 5.29033C16.7202 5.27666 16.7777 5.28213 16.8215 5.29033C16.8406 5.29306 16.857 5.30126 16.8707 5.3122C16.8871 5.30126 16.9036 5.2958 16.92 5.29033H17.4017C17.4236 5.29033 17.4455 5.304 17.4674 5.304C17.5167 5.304 17.5632 5.304 17.6124 5.2958C17.6617 5.2958 17.7219 5.27392 17.7712 5.28759C17.8068 5.2958 17.8424 5.33134 17.8807 5.28759C17.8998 5.30947 17.9327 5.31767 17.96 5.30947C18.012 5.33954 18.0476 5.35321 18.0832 5.37508C18.0832 5.36688 18.0914 5.36688 18.0914 5.36141C18.1489 5.42703 18.2009 5.48991 18.2584 5.56373C18.2502 5.5774 18.2447 5.5856 18.2365 5.59927C18.2447 5.62114 18.2502 5.64575 18.2502 5.67036V6.73662C18.2502 6.77217 18.2201 6.80224 18.242 6.84325C18.2638 6.87606 18.2556 6.91707 18.2283 6.94441C18.2775 6.99362 18.242 7.04557 18.2283 7.10298C18.2146 7.15493 18.1982 7.20414 18.1845 7.26156C18.1954 7.26429 18.2091 7.26702 18.2201 7.26976C18.2201 7.27796 18.2337 7.28343 18.2283 7.29163C18.2201 7.34084 18.2201 7.40099 18.2146 7.4502C18.2146 7.45841 18.2064 7.46387 18.2146 7.46387C18.2584 7.52129 18.2283 7.5787 18.2009 7.64432C18.294 7.76735 18.2447 7.90405 18.2584 8.04895C18.2365 8.06262 18.2228 8.07629 18.2009 8.0927C18.2091 8.1009 18.2173 8.11184 18.2228 8.12277C18.1872 8.17198 18.2091 8.23213 18.2009 8.27314C18.1735 8.33056 18.1434 8.3743 18.1133 8.42351L18.1215 8.43172C18.0914 8.47546 18.0558 8.51647 18.0203 8.55475H17.9053C17.9135 8.57662 17.9272 8.59849 17.9409 8.62036C17.9847 8.65044 18.0339 8.67778 18.0914 8.71332C18.0859 8.72426 18.0777 8.73246 18.0695 8.74066C18.0996 8.7762 18.1215 8.81995 18.1489 8.85549C18.1845 8.89103 18.2283 8.9129 18.2584 8.94298C18.3158 9.18904 18.2857 9.44057 18.294 9.6839C18.3022 9.92723 18.294 10.1733 18.294 10.4193V11.3626C18.2912 11.4091 18.2857 11.4528 18.2803 11.4993C18.2857 11.513 18.294 11.5239 18.3022 11.5348C18.3159 11.5622 18.2666 11.5922 18.3022 11.6278C18.3241 11.6497 18.3022 11.6989 18.3104 11.7426C18.3186 11.8301 18.2885 11.9012 18.2611 11.9723C18.2337 12.0434 18.1954 12.1117 18.1516 12.1746C18.0805 12.2621 17.9929 12.2976 17.9053 12.3468C17.8588 12.3687 17.8068 12.3769 17.7548 12.3742C17.5659 12.3742 17.3798 12.4097 17.1937 12.396C17.0705 12.4398 16.9556 12.3742 16.8324 12.396C16.7968 12.4042 16.7612 12.3824 16.7229 12.4179C16.7147 12.4261 16.6873 12.4179 16.6655 12.4097C16.5642 12.3742 16.4629 12.396 16.3562 12.4015C16.3151 12.3988 16.3069 12.407 16.3014 12.4124ZM18.1516 11.1603C18.1516 11.1712 18.1571 11.1821 18.1653 11.1903L18.1735 11.1849L18.1516 11.1603C18.1462 11.1548 18.1379 11.1466 18.1379 11.1384L18.1297 11.1466C18.1297 11.1603 18.1379 11.1603 18.1516 11.1603ZM16.545 7.35451C16.545 7.34358 16.5396 7.33264 16.5313 7.32717L16.5231 7.33537C16.5313 7.34358 16.5368 7.34904 16.5943 7.30803C16.5806 7.33537 16.5286 7.34358 16.545 7.38732C16.5724 7.40099 16.5943 7.42286 16.6162 7.43106C16.5806 7.48028 16.6025 7.52402 16.6162 7.57597C16.6299 7.61971 16.608 7.66892 16.6025 7.72087C16.6052 7.7236 16.608 7.72907 16.6107 7.73454C16.6189 7.85757 16.6189 7.98607 16.6244 8.09543C16.6819 8.10363 16.7394 8.12277 16.7886 8.1091C16.7968 8.13097 16.8023 8.14464 16.8105 8.16652C16.8351 8.15831 16.8598 8.15011 16.8817 8.13918C16.9282 8.14191 16.9747 8.15011 17.0185 8.16105C17.076 8.13097 17.1116 8.1091 17.1554 8.08996C17.1116 7.99701 17.128 7.90405 17.128 7.80836C17.128 7.78649 17.1362 7.75095 17.1198 7.73728C17.0924 7.70993 17.1061 7.67986 17.0979 7.65799C17.0979 7.63612 17.0897 7.60057 17.1061 7.5869C17.1499 7.55136 17.0705 7.53769 17.0979 7.51582C17.1417 7.48028 17.1198 7.43653 17.1198 7.40099C17.1335 7.29163 17.0979 7.1768 17.1417 7.07017C17.1499 7.0483 17.1335 7.02096 17.1335 6.99909C17.1116 6.9116 17.1061 6.81864 17.1417 6.74756C17.0842 6.59719 17.1499 6.46049 17.1499 6.32926C17.1061 6.30738 17.0705 6.28551 17.0267 6.26364C16.9912 6.27184 16.9474 6.24997 16.9036 6.28551C16.8762 6.30738 16.8324 6.26364 16.7886 6.28551C16.753 6.29918 16.6956 6.28551 16.6436 6.28551C16.6353 6.30738 16.6217 6.32926 16.6135 6.35113C16.6052 6.39487 16.6052 6.43862 16.6135 6.47963C16.6463 6.76396 16.5806 7.03737 16.545 7.35451ZM17.128 10.6353V10.4713C17.1307 10.4166 17.1225 10.3647 17.1061 10.3127C17.0924 10.2854 17.0979 10.2416 17.1061 10.1979C17.1143 10.1624 17.1198 10.1186 17.128 10.0831C17.1499 9.96003 17.0924 9.8452 17.128 9.72217C17.1362 9.69483 17.1143 9.66476 17.1143 9.65109C17.1417 9.52806 17.0651 9.41323 17.1362 9.3066C17.1143 9.26286 17.1006 9.21911 17.0787 9.1699C17.0432 9.18084 17.0048 9.19177 16.9693 9.20544C16.961 9.19724 16.9474 9.19177 16.9337 9.17537C16.92 9.19451 16.9063 9.21638 16.8981 9.24099C16.8543 9.21365 16.805 9.21365 16.7968 9.1617C16.7695 9.20544 16.7257 9.18357 16.6956 9.18904L16.6299 9.25466C16.6326 9.282 16.6326 9.3066 16.6299 9.33394C16.5943 9.38315 16.6025 9.4269 16.6217 9.48431C16.6353 9.52259 16.6381 9.56633 16.6299 9.60734C16.5943 9.70303 16.5943 9.80693 16.6299 9.90262C16.6353 9.92996 16.6299 9.9573 16.6162 9.9819C16.5998 10.0229 16.6052 10.0694 16.6299 10.1049C16.5916 10.1487 16.5916 10.2143 16.6299 10.2553C16.5806 10.3127 16.5943 10.3838 16.6025 10.4358C16.6299 10.608 16.6299 10.6955 16.6025 10.8459C16.5943 10.9033 16.5888 10.9607 16.6162 11.0044C16.5943 11.1193 16.5724 11.2286 16.5587 11.3352L16.7092 11.4446C16.7311 11.4227 16.753 11.4091 16.7749 11.3872C16.8324 11.4446 16.8981 11.4091 16.961 11.3954C16.972 11.4118 16.9829 11.4309 16.9966 11.4446H17.0979C17.1198 11.3954 17.1472 11.3516 17.1691 11.2997C17.1554 11.286 17.1417 11.2724 17.1335 11.256V10.7146C17.1554 10.701 17.1691 10.6927 17.1992 10.6709C17.1636 10.6572 17.1499 10.6435 17.128 10.6353ZM15.4776 8.18839C15.4502 8.20206 15.4283 8.21846 15.39 8.24033H15.4776V8.18839ZM15.609 9.99558H15.6309C15.6309 9.9819 15.6227 9.96824 15.6227 9.95183H15.609V9.99558ZM15.609 7.78649H15.6227V7.73728H15.609V7.78649ZM17.2156 6.69288H17.2293V6.64367H17.2156V6.69288ZM17.3086 10.7666V10.7748H17.336V10.7666H17.3086Z" fill="white"/>
<path d="M12.6749 12.3851C12.6393 12.3933 12.5955 12.3769 12.5599 12.407C12.5243 12.4234 12.4833 12.4152 12.4587 12.3851C12.434 12.4179 12.3902 12.4234 12.3574 12.3988C12.3218 12.3687 12.2999 12.4206 12.2698 12.407C12.2452 12.3933 12.2178 12.3851 12.1904 12.3851C12.1767 12.3851 12.1631 12.3988 12.1466 12.407C12.0673 12.3496 11.9824 12.2922 11.9003 12.2347C11.862 12.2047 11.8374 12.1609 11.8291 12.1117C11.8209 12.068 11.8155 12.0242 11.8072 11.9832C11.7771 11.893 11.7607 11.7973 11.758 11.7016V10.4412C11.7552 10.3975 11.7662 10.351 11.7854 10.3127C11.799 10.2908 11.8127 10.269 11.8072 10.2471C11.799 10.2116 11.7799 10.176 11.7854 10.1459C11.7908 10.1159 11.8127 10.0885 11.8072 10.053C11.799 9.99557 11.8209 9.92996 11.7854 9.87254C11.7771 9.86434 11.7854 9.85887 11.7854 9.85067C11.7854 9.80693 11.7771 9.75771 11.7936 9.72764C11.8237 9.6839 11.758 9.67023 11.7799 9.62648C11.8018 9.59094 11.7717 9.5472 11.7936 9.50345C11.8072 9.47338 11.7799 9.43237 11.7799 9.39409C11.7881 9.30113 11.758 9.20544 11.8018 9.11249C11.758 9.025 11.7881 8.93204 11.7799 8.83908C11.7799 8.80354 11.7662 8.768 11.8018 8.72972C11.81 8.72152 11.8018 8.69418 11.7936 8.67231C11.7936 8.65864 11.7799 8.65044 11.7799 8.64224C11.7662 8.60669 11.8018 8.57115 11.7881 8.53561C11.7717 8.50007 11.7771 8.45906 11.8018 8.42625C11.8155 8.40438 11.7936 8.36063 11.7881 8.31689L11.81 8.29501C11.7662 8.26494 11.7744 8.20753 11.7881 8.18019C11.81 8.13097 11.7963 8.08723 11.7881 8.04349C11.7799 7.9642 11.7799 7.88491 11.7881 7.80563C11.7963 7.73454 11.7607 7.65525 11.81 7.58144C11.8155 7.5623 11.8127 7.54043 11.8018 7.52402C11.7771 7.48028 11.7744 7.4256 11.7936 7.37912C11.8072 7.34358 11.8237 7.3135 11.7936 7.27796C11.7717 7.25062 11.8155 7.20687 11.8018 7.19047C11.7799 7.16313 11.7881 7.13306 11.7881 7.10298C11.7881 7.06744 11.7799 7.01549 11.7963 7.01003C11.8401 6.98815 11.7607 6.96081 11.8045 6.93894C11.8127 6.91434 11.8127 6.89246 11.8127 6.86786V6.78037C11.81 6.75576 11.799 6.73389 11.7854 6.71475C11.7936 6.70655 11.799 6.69288 11.8072 6.68468C11.799 6.66827 11.7908 6.6546 11.7771 6.64093C11.7881 6.63 11.799 6.61906 11.8072 6.60539C11.8072 6.56985 11.7498 6.53431 11.799 6.48236C11.8209 6.46049 11.8127 6.41128 11.8209 6.36753L11.7771 6.32379C11.7854 6.2527 11.7635 6.17888 11.799 6.1078C11.8127 6.08046 11.799 6.04218 11.7908 6.00117C11.7662 5.92735 11.7717 5.84807 11.8045 5.77698C11.7963 5.75785 11.7881 5.73871 11.7826 5.71957C11.7744 5.6977 11.7744 5.67036 11.7908 5.66215C11.8264 5.64028 11.7826 5.62661 11.7908 5.60474C11.799 5.59654 11.8045 5.5856 11.8045 5.57467C11.7936 5.53092 11.7854 5.48991 11.7826 5.44617C11.7826 5.41062 11.8045 5.37508 11.8182 5.31767L11.8702 5.26846C11.9304 5.27939 11.9906 5.28759 12.0508 5.29033C12.1083 5.29306 12.1631 5.30673 12.2151 5.32587C12.2506 5.31767 12.2725 5.23838 12.33 5.28213C12.3382 5.30126 12.3464 5.3204 12.3519 5.33954C12.3765 5.3204 12.4012 5.29853 12.4231 5.27392C12.4888 5.27392 12.5599 5.26572 12.6256 5.304C12.6612 5.28213 12.6913 5.33954 12.7351 5.304C12.757 5.28213 12.8062 5.304 12.85 5.304C12.8801 5.32587 12.9157 5.34774 12.965 5.38328C12.9404 5.39422 12.913 5.40242 12.8856 5.41062C12.9075 5.54733 12.9349 5.68403 12.8938 5.82893C12.9239 6.05312 12.9239 6.18982 12.8856 6.2527C12.8966 6.28824 12.9048 6.32379 12.9075 6.36206V7.11118C12.9075 7.14673 12.8993 7.1768 12.8993 7.21234C12.8993 7.24788 12.9048 7.28616 12.913 7.3217C12.9212 7.35725 12.8993 7.40099 12.9349 7.43106C12.8774 7.48301 12.9431 7.52402 12.9349 7.57597C12.9321 7.62518 12.9321 7.67713 12.9349 7.72634C12.9349 7.75368 12.9486 7.78375 12.9212 7.80563C12.913 7.81383 12.9075 7.84117 12.913 7.84937C12.9568 7.91499 12.9349 7.97787 12.9349 8.04349V8.80628C12.9349 8.85002 12.9486 8.89923 12.9267 8.92931C12.8993 8.97305 12.954 8.98672 12.9404 9.03047C12.9267 9.06601 12.9404 9.11795 12.9321 9.1535C12.9267 9.1863 12.9212 9.22185 12.9103 9.25466C12.9185 9.26286 12.9239 9.26832 12.9239 9.27653C12.9103 9.31207 12.902 9.34761 12.8884 9.38589C12.902 9.43783 12.9321 9.49525 12.9321 9.55813V10.2252C12.9321 10.2826 12.9103 10.3483 12.9103 10.4057C12.902 10.4631 12.9239 10.5287 12.902 10.5861C12.8747 10.6736 12.8884 10.7447 12.902 10.824C12.9103 10.8595 12.8938 10.8951 12.8801 10.9388C12.9458 10.9962 12.8582 11.0536 12.8528 11.1193C12.861 11.1329 12.8665 11.1548 12.8801 11.1849C12.8719 11.1958 12.8637 11.2067 12.8582 11.2204L12.8801 11.2423C12.8719 11.2505 12.8637 11.2614 12.8582 11.2696C12.9075 11.3052 12.9513 11.3407 13.0088 11.3845C13.0799 11.3188 13.173 11.2997 13.2743 11.3052C13.3755 11.3106 13.3755 11.3052 13.4111 11.2915C13.433 11.3024 13.4549 11.3134 13.4768 11.3188C13.4631 11.3489 13.4549 11.3626 13.4412 11.3899V11.3763C13.4275 11.3763 13.4056 11.3845 13.3892 11.3845V11.3981C13.4084 11.3981 13.4248 11.3954 13.4412 11.3845C13.4631 11.3708 13.4878 11.3598 13.5124 11.3571C13.5124 11.3653 13.5206 11.3845 13.5206 11.4009L13.5124 11.3927C13.5042 11.4009 13.4987 11.4063 13.4905 11.4063L13.4987 11.4145C13.5069 11.4063 13.5124 11.4009 13.5124 11.3927C13.5425 11.4009 13.5726 11.3845 13.5835 11.3544C13.5835 11.3516 13.5863 11.3462 13.5863 11.3434C13.5863 11.2724 13.6301 11.2149 13.6137 11.1357C13.6109 11.0728 13.6109 11.0099 13.6137 10.947C13.6137 10.9251 13.6273 10.9115 13.6356 10.8814C13.6137 10.824 13.5918 10.7584 13.6273 10.6955C13.6328 10.6763 13.6356 10.6572 13.6356 10.6381V10.3729C13.641 10.3291 13.6301 10.2826 13.6082 10.2444C13.652 10.2088 13.5863 10.1733 13.6082 10.135C13.6438 10.1077 13.6739 10.1131 13.7012 10.1569C13.7149 10.0639 13.6219 10.0858 13.6082 10.0284V9.85614L13.6958 9.79052C13.6848 9.77138 13.6739 9.75498 13.6602 9.74131C13.6684 9.72764 13.6821 9.71397 13.6821 9.70577C13.6739 9.66202 13.6547 9.62101 13.6739 9.59914C13.7094 9.5554 13.6383 9.54173 13.6602 9.49798C13.6739 9.47064 13.6465 9.4187 13.6958 9.39682C13.6876 9.38315 13.6684 9.36948 13.6684 9.35308C13.6766 9.23825 13.589 9.12342 13.6602 9.00859C13.6739 8.97852 13.6328 8.95665 13.652 8.9211C13.6657 8.89103 13.6739 8.86916 13.6438 8.84182C13.6356 8.83362 13.6301 8.81448 13.6356 8.80628C13.6657 8.74066 13.6356 8.66958 13.6356 8.60396C13.6356 8.56842 13.6492 8.53287 13.6137 8.4946C13.6 8.48093 13.6137 8.43718 13.6219 8.41531C13.6219 8.39344 13.6438 8.37157 13.6356 8.3579C13.5918 8.29228 13.6137 8.23487 13.6356 8.16925C13.6438 8.15558 13.6356 8.13371 13.6356 8.12004V7.442C13.6356 7.40919 13.6301 7.37365 13.6219 7.34084C13.6438 7.20414 13.6492 7.07291 13.6137 6.94441C13.6219 6.93621 13.6273 6.92254 13.6438 6.91433C13.5918 6.82138 13.6082 6.71202 13.6219 6.61906C13.6301 6.53977 13.6574 6.46049 13.6356 6.3894C13.6082 6.27457 13.6219 6.16521 13.6137 6.05859C13.6137 6.02304 13.6 5.9875 13.6356 5.94923C13.6438 5.93282 13.6438 5.91368 13.6356 5.90001C13.5918 5.82073 13.6219 5.73324 13.6219 5.64848C13.6219 5.5692 13.6657 5.48991 13.6219 5.38875C13.6438 5.39422 13.6657 5.39969 13.6876 5.40242L13.7313 5.42429C13.7341 5.41062 13.7396 5.39422 13.745 5.38055C13.7259 5.37508 13.704 5.36415 13.6876 5.35048C13.7012 5.3286 13.7149 5.30673 13.7313 5.28486C13.8463 5.35594 13.9831 5.27119 14.1063 5.34227C14.1419 5.3286 14.1775 5.29033 14.2158 5.33407C14.2514 5.304 14.2952 5.3204 14.3307 5.3122C14.3745 5.29853 14.4019 5.34227 14.4539 5.3204C14.495 5.30947 14.536 5.30947 14.5771 5.3204C14.6154 5.33134 14.6537 5.34227 14.692 5.35594C14.692 5.36961 14.7002 5.37782 14.7002 5.39149C14.7221 5.39969 14.744 5.39969 14.7714 5.40516C14.7577 5.4489 14.7495 5.48991 14.744 5.53366C14.7632 5.54733 14.7851 5.55553 14.8097 5.56373C14.7522 5.65669 14.7167 5.74417 14.8015 5.83713C14.7933 5.84533 14.7851 5.85627 14.7796 5.86721C14.7878 5.88088 14.8015 5.89455 14.8152 5.91642C14.7878 5.93009 14.7659 5.94376 14.7495 5.95196C14.7604 5.97383 14.7714 5.9957 14.7851 6.01758C14.7687 6.02578 14.7522 6.02851 14.7331 6.03125C14.7331 6.03945 14.7249 6.04492 14.7249 6.05312C14.7249 6.10233 14.7167 6.15428 14.7522 6.19802C14.8097 6.26911 14.8042 6.3566 14.8042 6.44408C14.8042 6.47142 14.7823 6.4933 14.7823 6.52337C14.7823 6.54524 14.8042 6.58078 14.796 6.58078C14.7604 6.60812 14.8261 6.62453 14.8042 6.65187C14.796 6.66007 14.8042 6.67374 14.8042 6.68741C14.796 6.72295 14.7823 6.7667 14.796 6.78037C14.8261 6.81591 14.7687 6.84598 14.8042 6.88699C14.8261 6.90887 14.8042 6.95808 14.8042 6.99362V7.49121C14.8042 7.52676 14.7906 7.5705 14.8261 7.60604C14.8343 7.62518 14.8316 7.64705 14.8179 7.66346C14.7741 7.7072 14.8179 7.73454 14.8261 7.77828C14.8179 7.79195 14.807 7.80836 14.796 7.82203C14.8015 7.83297 14.8097 7.84117 14.8179 7.84937C14.8097 7.92045 14.8097 7.97787 14.8042 8.02981C14.7906 8.08723 14.8754 8.13644 14.8042 8.18839C14.848 8.23213 14.8316 8.28134 14.8179 8.32509C14.8042 8.34969 14.8042 8.37977 14.8179 8.40438C14.8316 8.42898 14.8371 8.45632 14.8316 8.48366C14.796 8.5192 14.8535 8.54928 14.8316 8.57662C14.8097 8.60669 14.8042 8.64223 14.8097 8.67778C14.807 8.71605 14.807 8.75433 14.8097 8.79261C14.8453 8.89376 14.8316 8.98672 14.8316 9.08788C14.8316 9.11522 14.8453 9.14529 14.8097 9.16717C14.8015 9.17537 14.8015 9.20271 14.8015 9.21638C14.8371 9.31207 14.8371 9.41596 14.8015 9.51165C14.7988 9.53899 14.7988 9.5636 14.8015 9.59094C14.7933 9.62648 14.8152 9.67023 14.7796 9.71397C14.7659 9.72764 14.7714 9.77139 14.7878 9.79326C14.8097 9.8452 14.8097 9.90535 14.7878 9.96003C14.7823 9.99011 14.7878 10.0202 14.8015 10.0475C14.7933 10.0749 14.7878 10.1131 14.7796 10.1405C14.7659 10.176 14.807 10.1979 14.7933 10.2416C14.7796 10.2772 14.7851 10.3127 14.7796 10.3483V10.5642C14.7714 10.6435 14.7878 10.7146 14.7577 10.7939C14.7386 10.8459 14.744 10.9033 14.7714 10.9525C14.7769 10.9579 14.7796 10.9662 14.7796 10.9744C14.7796 11.0236 14.7303 11.0673 14.7714 11.1329C14.8015 11.1685 14.7796 11.2423 14.7796 11.2915C14.7796 11.3489 14.7933 11.4145 14.7796 11.4719C14.7495 11.5868 14.7659 11.7016 14.7577 11.8164C14.7495 11.9012 14.7057 11.975 14.6701 12.0461C14.6428 12.1117 14.5606 12.1609 14.4977 12.2129C14.3992 12.2839 14.2787 12.3195 14.1583 12.314C14.1145 12.314 14.0653 12.3004 14.0215 12.3359C14.0133 12.3222 13.9996 12.3086 13.9996 12.3004C13.912 12.2566 13.8545 12.3222 13.7833 12.3086C13.7177 12.3004 13.6465 12.3304 13.6027 12.2949C13.5534 12.3031 13.5014 12.3168 13.4659 12.3031C13.4221 12.2812 13.3701 12.2757 13.3208 12.2894C13.2195 12.325 13.1128 12.3031 13.0115 12.3113C12.9896 12.3113 12.9759 12.325 12.954 12.3332C12.8884 12.3058 12.8309 12.3058 12.7378 12.3332C12.7269 12.4124 12.6886 12.4343 12.6749 12.3851C12.6831 12.3824 12.6886 12.3742 12.6968 12.3687L12.6886 12.3605C12.6886 12.3714 12.6831 12.3769 12.6749 12.3851ZM11.9113 6.41948C11.9113 6.40854 11.9058 6.39761 11.8976 6.3894L11.8894 6.39761C11.8976 6.40854 11.914 6.41128 11.9249 6.40581C11.9085 6.42768 11.8894 6.44682 11.8675 6.46322C11.8894 6.45775 11.9113 6.45502 11.9332 6.45502C11.9414 6.43862 11.9359 6.42495 11.9113 6.41948ZM14.5552 5.46804C14.5853 5.48171 14.6044 5.48991 14.6482 5.51178C14.6209 5.46257 14.6127 5.4407 14.599 5.41062C14.5908 5.4325 14.5743 5.45163 14.5552 5.46804ZM12.757 5.37508C12.7625 5.39149 12.7652 5.40789 12.7652 5.42429C12.7761 5.40516 12.7871 5.38875 12.8008 5.37508H12.757ZM12.8555 5.40242H12.8364C12.8364 5.41609 12.8446 5.4325 12.8446 5.44617H12.8582V5.40242H12.8555ZM12.4805 5.42429H12.4888V5.39695H12.4805V5.42429ZM12.0864 6.46869H12.0782V6.49876H12.0864V6.46869Z" fill="white"/>
<path d="M20.4945 11.3981C20.5438 11.4118 20.6095 11.3763 20.6533 11.42C20.6724 11.3927 20.6943 11.3708 20.719 11.3489V11.2614C20.7272 11.2259 20.7327 11.1903 20.7409 11.1521C20.7272 11.1439 20.7135 11.1439 20.6971 11.1384L20.6889 11.1302C20.6779 11.0673 20.6779 11.0044 20.6807 10.9415C20.6889 10.8841 20.708 10.8322 20.667 10.7775C20.6588 10.7584 20.6615 10.7365 20.6752 10.7201C20.6971 10.6927 20.7053 10.6627 20.6752 10.6326C20.6396 10.5971 20.7108 10.5533 20.667 10.5178C20.6943 10.4604 20.6533 10.3947 20.667 10.3373C20.6807 10.2717 20.6533 10.2006 20.6889 10.1295C20.6943 10.1049 20.6916 10.0803 20.6807 10.0585C20.6588 10.0147 20.6533 9.96277 20.667 9.91355C20.6943 9.77685 20.6943 9.76865 20.667 9.66202C20.6533 9.60461 20.6451 9.54719 20.6889 9.49525C20.6232 9.38589 20.7025 9.24919 20.6314 9.13436L20.5876 9.15623C20.552 9.07694 20.4507 9.09061 20.407 8.98945C20.407 8.96758 20.4726 8.93204 20.4152 8.8883C20.4425 8.82268 20.3796 8.7516 20.4234 8.68598C20.4289 8.67504 20.4316 8.66137 20.4316 8.65044C20.4398 8.59302 20.3823 8.54108 20.4234 8.47819C20.4507 8.43445 20.4097 8.36336 20.4507 8.31142C20.4507 8.20206 20.4507 8.19659 20.4863 8.09543C20.5082 8.10363 20.5356 8.10363 20.5575 8.1091C20.6451 8.1009 20.7299 8.08723 20.823 8.08176C20.8367 8.09543 20.8476 8.1091 20.8586 8.12551C20.8887 8.11184 20.9188 8.09543 20.9461 8.07356C21.0173 8.1091 21.0967 8.11184 21.1706 8.08176C21.2062 8.12551 21.2582 8.10363 21.3074 8.09543C21.3321 8.08723 21.3539 8.08176 21.3786 8.08176C21.4716 8.10363 21.4716 8.10363 21.5811 8.08176C21.6222 8.07903 21.6632 8.07903 21.7043 8.08176C21.6961 8.10363 21.6906 8.12551 21.6824 8.14738C21.7535 8.24033 21.811 8.34969 21.7535 8.4864C21.7645 8.5028 21.7727 8.52467 21.7754 8.54381C21.7672 8.60122 21.7399 8.65317 21.7754 8.71605C21.8028 8.77347 21.7837 8.84455 21.7837 8.91837V9.10702C21.7837 9.15076 21.7919 9.19177 21.7618 9.23552C21.7399 9.27379 21.7399 9.32027 21.7618 9.35855C21.7891 9.40229 21.7837 9.44604 21.7837 9.48705V9.99831C21.7837 10.0421 21.7919 10.0858 21.7618 10.1268C21.7481 10.1487 21.77 10.1924 21.7754 10.2498C21.7672 10.269 21.7618 10.2881 21.7618 10.3073C21.77 10.3947 21.7535 10.4795 21.7754 10.567C21.8028 10.6463 21.7973 10.7365 21.7618 10.813C21.7481 10.8431 21.7618 10.8841 21.7535 10.9279C21.7535 10.9497 21.7399 10.9716 21.7317 11.0154C21.7508 11.0509 21.7672 11.0892 21.7754 11.1302C21.7809 11.1657 21.7754 11.204 21.7618 11.2396C21.7426 11.2806 21.7426 11.327 21.7618 11.3681C21.77 11.3817 21.77 11.3954 21.7754 11.4118C21.7891 11.461 21.7098 11.5048 21.7754 11.5567C21.7672 11.6086 21.7891 11.6579 21.7535 11.7016C21.7891 11.7508 21.7672 11.8028 21.7453 11.8602C21.7317 11.9094 21.7317 11.975 21.718 12.027C21.7043 12.068 21.6824 12.109 21.6523 12.1418C21.6167 12.1773 21.5811 12.2211 21.5428 12.2648V12.2785C21.3266 12.3933 21.1021 12.4589 20.8503 12.4015C20.771 12.4507 20.656 12.3878 20.563 12.4371C20.5411 12.4261 20.5192 12.4152 20.4973 12.4015C20.448 12.4097 20.3878 12.4234 20.3303 12.4371L20.2592 12.4015L20.2509 12.4097C20.2345 12.4343 20.2044 12.4398 20.1798 12.4234C20.177 12.4206 20.1743 12.4179 20.1716 12.4152C20.1415 12.3878 20.1278 12.4453 20.1004 12.4289C20.073 12.4152 20.0429 12.4097 20.0128 12.407C19.969 12.4398 19.9088 12.4371 19.8678 12.3988C19.8103 12.4261 19.7528 12.4425 19.6953 12.3988C19.6379 12.4261 19.5722 12.448 19.5092 12.3988C19.4955 12.4042 19.4846 12.4152 19.4736 12.4261C19.1507 12.3332 19.1863 12.3113 19.0549 12.1883C19.0686 12.1008 18.9618 12.0871 18.9618 12.0434C18.9399 11.8985 18.9263 11.7836 18.9044 11.6551C18.9837 11.5758 18.8688 11.4665 18.918 11.3735C18.9098 11.338 18.8961 11.2942 18.9098 11.2642C18.9372 11.1849 18.9235 11.1138 18.918 11.0345C18.918 11.0263 18.9044 11.0208 18.9044 11.0208C18.9126 11.0072 18.9263 10.9935 18.9263 10.9771C18.9126 10.8404 18.9536 10.7037 18.9044 10.567C18.9399 10.4795 18.8688 10.3947 18.8961 10.3073C18.9317 10.2061 18.918 10.1131 18.918 10.012C18.9263 9.91902 18.8742 9.83153 18.8879 9.74678C18.9016 9.68116 18.9016 9.61008 18.918 9.54446C18.9263 9.50072 18.8879 9.46517 18.9098 9.42143C18.9235 9.38589 18.9016 9.33394 18.9372 9.3066C18.9235 9.22731 18.9509 9.14803 18.9153 9.06054C18.8907 9.00039 18.8961 8.93477 18.929 8.88009C18.9208 8.82268 18.9153 8.77894 18.9071 8.73519C18.9728 8.66957 18.9646 8.59849 18.9564 8.52741C18.9399 8.5192 18.9235 8.51374 18.9071 8.51374C18.918 8.48366 18.9263 8.45085 18.929 8.42078C18.929 8.39344 18.9427 8.35516 18.9071 8.32782C18.9564 8.30595 18.8797 8.27861 18.9208 8.24033C18.929 8.24033 18.9345 8.2376 18.9427 8.23213C18.9427 8.22666 18.9454 8.2212 18.9509 8.21846C18.9427 8.20479 18.929 8.19659 18.929 8.19112C18.9427 8.06809 18.9016 7.95326 18.9016 7.83023V7.46387C18.9016 7.442 18.9153 7.42833 18.9235 7.40646C18.8879 7.38459 18.9098 7.34084 18.9016 7.3053V7.19047C18.9016 7.16313 18.8742 7.11118 18.8797 7.10298C18.929 7.05924 18.866 7.03737 18.8715 7.00182C18.8797 6.99362 18.8852 6.97995 18.8989 6.96628C18.8551 6.91707 18.8852 6.84325 18.8633 6.79404C18.8359 6.72842 18.8359 6.65187 18.8633 6.58625C18.8715 6.57258 18.8633 6.54251 18.8633 6.52064V6.22536C18.866 6.10506 18.8742 5.98477 18.8934 5.86447C18.9044 5.80979 18.9098 5.75511 18.9153 5.6977C18.929 5.61841 18.981 5.56099 19.0303 5.50358C19.074 5.45437 19.1233 5.41062 19.1753 5.35868C19.2109 5.35321 19.2437 5.33954 19.2684 5.31493C19.3341 5.25752 19.3395 5.26299 19.4189 5.30126H19.4326C19.449 5.28212 19.4736 5.27119 19.4983 5.27392H19.9499L19.9581 5.28212L19.98 5.304C20.0293 5.2958 20.0676 5.25478 20.125 5.29579C20.1469 5.30947 20.2044 5.304 20.24 5.28759C20.2893 5.27392 20.3276 5.27392 20.3632 5.30126C20.4124 5.27392 20.4644 5.25752 20.5137 5.28759C20.5575 5.30946 20.5849 5.31767 20.6287 5.28759C20.6423 5.27392 20.6779 5.27939 20.6998 5.27939C20.7436 5.28759 20.7929 5.25752 20.8284 5.30126C20.864 5.27392 20.916 5.27939 20.9571 5.27939H21.0939C21.1323 5.27939 21.1678 5.28759 21.2034 5.30126C21.2308 5.31493 21.291 5.29306 21.3129 5.30947C21.3485 5.33134 21.3923 5.31767 21.4142 5.33134C21.4935 5.39695 21.5948 5.4325 21.6304 5.53912C21.6413 5.57193 21.6578 5.59927 21.6796 5.62661C21.6714 5.6977 21.6933 5.77698 21.666 5.85627L21.6796 5.86994C21.6933 5.90548 21.6304 5.91915 21.666 5.9629C21.6796 5.97657 21.6523 6.02031 21.6578 6.05038C21.666 6.12967 21.6359 6.21716 21.6796 6.29371C21.6879 6.31558 21.6879 6.33746 21.6796 6.35933C21.6687 6.3894 21.6605 6.42221 21.6578 6.45229C21.6578 6.48783 21.6441 6.52337 21.6714 6.55891C21.6851 6.57258 21.6578 6.61633 21.6578 6.6464C21.6578 6.68194 21.666 6.71749 21.666 6.75303C21.666 6.78857 21.6523 6.82411 21.6578 6.86239C21.666 6.928 21.6359 6.99089 21.6222 7.06471C21.5784 7.0565 21.5291 7.05104 21.4716 7.04283C21.406 7.07838 21.3211 7.0565 21.2417 7.0565C21.1541 7.06471 21.0611 7.0483 20.9762 7.0565C20.8887 7.06471 20.8175 7.02916 20.7299 7.02916C20.6861 6.99362 20.6724 6.95808 20.7162 6.91433L20.6889 6.88426C20.7025 6.87606 20.7162 6.87059 20.7327 6.87059C20.7327 6.86239 20.7354 6.85692 20.7409 6.84872C20.719 6.81864 20.719 6.7913 20.7135 6.75576C20.7135 6.69835 20.7272 6.63273 20.6916 6.57532C20.6834 6.56711 20.6916 6.53977 20.6998 6.53157C20.7354 6.48783 20.7217 6.46049 20.6916 6.43862C20.7053 6.39487 20.7135 6.34839 20.719 6.30191H20.6314C20.6095 6.28004 20.5876 6.26637 20.5657 6.2445C20.5575 6.2527 20.5438 6.2527 20.5383 6.25817C20.4945 6.29098 20.4398 6.30465 20.3878 6.30191C20.3084 6.29371 20.2236 6.31012 20.1415 6.28004C20.0922 6.26637 20.032 6.29371 19.9773 6.30191C19.9554 6.39487 19.9773 6.47416 20.0046 6.55344C20.0128 6.58078 20.0183 6.61086 20.0183 6.64093C19.9882 6.79951 19.9827 6.80771 20.0183 6.94988V6.98542C20.032 7.02916 19.9608 7.06471 20.0101 7.12212C20.032 7.15219 20.0183 7.20961 20.0183 7.25882V7.40919C20.0183 7.43927 20.032 7.47481 19.9964 7.50215C19.9882 7.51035 19.9827 7.53769 19.9882 7.54589C20.032 7.59784 20.0101 7.66072 20.0101 7.71267C20.0183 7.81383 19.9882 7.91499 20.0375 8.00794V8.02981L20.0156 8.18019C20.0648 8.22393 20.0375 8.28134 20.0375 8.33876C20.0457 8.40984 19.9937 8.48366 20.0101 8.55475C20.0238 8.61216 19.9964 8.66957 20.032 8.71879C20.0457 8.74066 20.0402 8.7762 20.032 8.80628C20.021 8.83088 20.0128 8.85822 20.0101 8.88556C20.0101 8.9129 20.032 8.93477 20.032 8.96485C20.032 9.00859 19.9964 9.06601 20.0101 9.09335C20.0375 9.13709 20.0238 9.18084 20.032 9.22185C20.032 9.23552 20.0183 9.24919 20.0183 9.26559C20.0183 9.29293 20.0265 9.32301 20.0265 9.37495C19.9991 9.40229 19.9991 9.44877 20.0265 9.47611C20.0293 9.47884 20.032 9.47884 20.032 9.48158C19.9882 9.56907 19.9964 9.64835 20.0238 9.74678C20.0019 9.79052 19.98 9.84794 20.032 9.91355C20.0046 9.94636 19.9964 9.99284 20.0101 10.0366C20.032 10.1022 20.0375 10.3756 20.0183 10.4467C20.0183 10.4549 20.0128 10.4604 20.0046 10.4604C20.0484 10.5041 20.032 10.5533 20.0183 10.5971C19.9964 10.6381 19.9964 10.6873 20.0183 10.7256C20.0402 10.7666 20.032 10.813 20.0046 10.8486C20.032 10.906 20.0484 10.9634 20.0046 11.0208C20.0156 11.0318 20.0238 11.0427 20.032 11.0564C20.0183 11.0782 19.9964 11.1001 19.9882 11.1138C19.9964 11.1575 20.0019 11.2013 20.0101 11.2368C19.9827 11.2806 19.9307 11.3024 19.9307 11.3516C19.9581 11.3817 19.9526 11.3298 19.9581 11.338C20.0293 11.3516 20.073 11.3954 20.1442 11.3735C20.1798 11.3598 20.2318 11.3872 20.2674 11.4036C20.2947 11.3817 20.3166 11.3571 20.3413 11.3325C20.355 11.3434 20.3686 11.3544 20.3851 11.3598C20.396 11.3489 20.407 11.3407 20.4206 11.3325C20.4863 11.3626 20.4945 11.3735 20.4945 11.3981C20.4809 11.3981 20.4809 11.4036 20.4726 11.4118L20.4809 11.42C20.4809 11.4145 20.4863 11.4063 20.4945 11.3981ZM20.8613 10.8787C20.8175 10.8869 20.7956 10.8869 20.7518 10.8923C20.7682 10.9169 20.7874 10.9415 20.8093 10.9634C20.8312 10.9388 20.8476 10.9115 20.8613 10.8787ZM20.5219 11.5786C20.5438 11.5348 20.6013 11.5294 20.5794 11.4692C20.5657 11.5075 20.5027 11.513 20.5219 11.5786ZM20.7956 11.1111C20.8038 11.1111 20.8038 11.1193 20.8093 11.1193C20.8202 11.1001 20.8312 11.0782 20.8367 11.0536C20.823 11.04 20.8148 11.0263 20.8093 11.0181C20.8011 11.0263 20.7956 11.0318 20.7956 11.04V11.1111ZM21.562 5.85627C21.5784 5.8508 21.5948 5.84807 21.6112 5.84807C21.5921 5.83713 21.5756 5.82619 21.562 5.81252V5.85627ZM21.6194 12.0324H21.6331V11.9832H21.6194V12.0324ZM21.5702 11.4719H21.5784V11.4446H21.5702V11.4719ZM21.4032 8.21846H21.395V8.2458H21.4032V8.21846ZM21.4744 5.47351H21.4662V5.50358H21.4744V5.47351ZM19.2711 5.48991V5.48171H19.2437V5.48991H19.2711Z" fill="white"/>
<path d="M9.31108 12.2921C9.32476 12.3359 9.33298 12.3578 9.33845 12.3796C9.24266 12.4152 9.14412 12.4425 9.04286 12.4589C9.02096 12.4234 8.97169 12.4453 8.93338 12.4453H8.67336C8.63231 12.448 8.59125 12.4425 8.5502 12.4316C8.50641 12.4234 8.47904 12.4535 8.44072 12.4453C8.40514 12.4316 8.36682 12.4234 8.3285 12.4152C8.31208 12.3742 8.2984 12.3332 8.28471 12.2921C8.27103 12.2839 8.24092 12.2566 8.21903 12.2429V11.2642C8.21629 11.2204 8.21355 11.1767 8.20534 11.1357C8.21081 11.1138 8.21629 11.0919 8.21903 11.07C8.22176 11.0154 8.22176 10.9607 8.21903 10.9033C8.20534 10.7092 8.24092 10.515 8.24092 10.3209C8.23545 10.2772 8.22997 10.2334 8.21903 10.1924C8.22724 10.1842 8.23545 10.176 8.24092 10.1651C8.19713 10.1295 8.23271 10.0639 8.19166 10.0147C8.18344 10.0038 8.18344 9.9901 8.19166 9.97917C8.24092 9.88621 8.21903 9.79052 8.19166 9.69756C8.21355 9.64015 8.29292 9.62648 8.27103 9.56086C8.23545 9.53899 8.20534 9.51712 8.16976 9.49525C8.14786 9.50345 8.12597 9.51712 8.10407 9.52259C8.09586 9.50892 8.09039 9.50892 8.09039 9.50071C8.0466 9.24919 8.06849 8.99766 8.06302 8.75159C8.06302 8.71332 8.06849 8.67231 8.08491 8.63676C8.09586 8.59849 8.10955 8.56295 8.12871 8.5274C8.1506 8.49186 8.14239 8.43445 8.21629 8.42625V8.21026C8.21629 8.20206 8.2026 8.18839 8.2026 8.19659C8.21082 8.15284 8.21629 8.11183 8.21629 8.06809V7.30256C8.21903 7.27249 8.22176 7.24515 8.22997 7.21507C8.22997 7.21507 8.21629 7.20687 8.21629 7.2014C8.20808 7.11392 8.18618 7.02096 8.2026 6.9362C8.22997 6.78583 8.18892 6.62726 8.22997 6.46869C8.22176 6.45502 8.21355 6.44135 8.20808 6.42494C8.21355 6.41401 8.22176 6.40581 8.22997 6.3976C8.22176 6.34019 8.21629 6.28277 8.21629 6.22536C8.21629 6.19529 8.20808 6.16795 8.22997 6.14607C8.23819 6.13787 8.24366 6.11053 8.23818 6.10233C8.18892 6.02304 8.2245 5.93009 8.21629 5.8426C8.20808 5.77698 8.23818 5.7141 8.19439 5.64848C8.18618 5.63755 8.18618 5.62388 8.19439 5.61294C8.24366 5.54186 8.20808 5.45437 8.22176 5.37508C8.24366 5.36141 8.27103 5.33954 8.31482 5.30946C8.3723 5.31767 8.43798 5.33134 8.50367 5.33954C8.57483 5.34227 8.64873 5.34227 8.71989 5.33954C8.75547 5.33954 8.80748 5.36141 8.83485 5.31767C8.85127 5.30946 8.87043 5.30946 8.88411 5.31767C9.00728 5.34774 9.00728 5.35321 9.14412 5.31767C9.1797 5.30946 9.20981 5.36961 9.23718 5.32587C9.29466 5.36141 9.36582 5.28212 9.42603 5.34774C9.43424 5.35594 9.44793 5.34774 9.46161 5.34774C9.48351 5.34774 9.51088 5.33407 9.53277 5.33407C9.56014 5.33407 9.59025 5.34774 9.62036 5.34774C9.68057 5.34774 9.74079 5.33954 9.801 5.32587C9.90227 5.304 10.009 5.33954 10.1103 5.37508C10.124 5.36688 10.1322 5.35321 10.1404 5.34774C10.176 5.35594 10.2061 5.36961 10.2417 5.37508C10.2471 5.35868 10.2553 5.34227 10.2635 5.32587C10.2718 5.32587 10.2772 5.31767 10.2854 5.31767C10.3429 5.34774 10.3867 5.34774 10.4579 5.34774C10.5153 5.34774 10.581 5.32587 10.6385 5.37508C10.6522 5.36688 10.6631 5.35868 10.6741 5.34774C10.8027 5.37508 10.9259 5.41336 11.0135 5.55006C11.0135 5.54186 11.0053 5.56373 11.0135 5.5774C11.071 5.65668 11.0655 5.74964 11.0655 5.83713V6.08046C11.0682 6.11327 11.0737 6.14334 11.0874 6.17341C11.0573 6.20896 11.0518 6.2609 11.0956 6.31832C11.0846 6.34292 11.0764 6.37026 11.0737 6.3976V6.74209C11.0737 6.82138 11.0518 6.90066 11.0655 6.97995C11.0737 7.05924 11.0874 7.13032 11.0573 7.20414C11.1011 7.23421 11.0573 7.26155 11.0573 7.27522C11.0682 7.30803 11.0737 7.34084 11.0792 7.37638V8.26767C11.0792 8.31142 11.0491 8.33876 11.071 8.3907C11.0929 8.42625 11.0627 8.47819 11.0491 8.5192C11.0408 8.53287 11.0408 8.56841 11.0573 8.57662C11.0874 8.60396 11.0792 8.64223 11.0792 8.66957V9.11522C11.0792 9.17263 10.9916 9.40229 10.956 9.43236C10.9122 9.46791 10.8684 9.49798 10.8192 9.52532C10.7973 9.51712 10.7754 9.50892 10.7535 9.50345C10.7425 9.52806 10.7261 9.55266 10.7097 9.57453C10.6686 9.57727 10.6276 9.57727 10.5865 9.57453C10.5509 9.56633 10.5208 9.61828 10.4935 9.57453C10.4825 9.57727 10.4743 9.58274 10.4633 9.5882C10.3977 9.61008 10.384 9.61008 10.3265 9.58C10.2827 9.5882 10.2417 9.59367 10.1979 9.59367H9.39866C9.3795 9.60734 9.35761 9.62101 9.34119 9.63742C9.35487 9.65929 9.36582 9.67843 9.37677 9.70303C9.36856 9.7167 9.36308 9.7249 9.35487 9.73857C9.36856 9.77412 9.38224 9.80966 9.39866 9.83973C9.39045 9.88895 9.36856 9.94909 9.38498 9.98464C9.42056 10.0995 9.40687 10.2225 9.39319 10.3373C9.39319 10.3592 9.40687 10.3865 9.40687 10.4084V10.6244C9.40687 10.6463 9.42056 10.6599 9.42877 10.6818C9.41782 10.7146 9.40961 10.7474 9.40687 10.783V11.029C9.40687 11.1165 9.42056 11.2013 9.38498 11.2888C9.36582 11.3325 9.37129 11.3817 9.39866 11.4173C9.41235 11.4337 9.41508 11.4555 9.40687 11.4747C9.37129 11.5403 9.45067 11.6114 9.38498 11.6688L9.39866 11.6825V12.2484C9.36856 12.2347 9.33845 12.2621 9.31108 12.2921ZM9.21529 8.39617C9.21529 8.38524 9.20981 8.3743 9.2016 8.36883L9.19339 8.37703C9.2016 8.3907 9.20981 8.3907 9.21529 8.39617C9.2235 8.40437 9.22897 8.41258 9.22897 8.41804L9.23718 8.40984C9.23718 8.40437 9.23171 8.39617 9.21529 8.39617ZM9.39593 8.25947C9.34392 8.28681 9.33024 8.30868 9.31655 8.38797C9.37403 8.38797 9.38224 8.45359 9.43972 8.47546C9.49719 8.49186 9.56014 8.50006 9.62036 8.49733C9.70794 8.49733 9.79279 8.48366 9.88584 8.47546C9.89953 8.48913 9.92143 8.5028 9.93511 8.5192C9.91321 8.45359 9.89953 8.39617 9.93511 8.32509C9.95153 8.34969 9.97069 8.37156 9.99259 8.3907C10.0008 8.40437 10.0145 8.41258 10.0501 8.43445C10.0364 8.34696 10.02 8.27587 10.0063 8.21026L9.96248 8.31962C9.94879 8.21026 9.83384 8.1173 9.91869 8.01067C9.905 7.9888 9.89679 7.97513 9.88311 7.95326C9.89953 7.94232 9.91869 7.93139 9.93237 7.91772C9.92416 7.89038 9.91595 7.86577 9.91048 7.83843V7.55683C9.91048 7.52949 9.88858 7.49941 9.88858 7.46387C9.88037 7.43106 9.88037 7.39552 9.88858 7.36271C9.90227 7.31077 9.93237 7.26976 9.88858 7.21781C9.8749 7.08111 9.91048 6.9362 9.86669 6.7995C9.91869 6.70655 9.8749 6.61086 9.89679 6.5179L9.93237 6.48236C9.91048 6.43315 9.89679 6.3812 9.8749 6.33199L9.76815 6.35386C9.75994 6.34019 9.75994 6.32378 9.75447 6.31011C9.71068 6.34566 9.68331 6.29644 9.63952 6.31011C9.59573 6.31285 9.55193 6.31285 9.51088 6.31011H9.39593C9.37403 6.35933 9.35213 6.41127 9.33845 6.45502L9.38224 6.49876C9.38224 6.5343 9.39593 6.57805 9.38224 6.60539C9.36034 6.64913 9.39593 6.67647 9.38224 6.71202C9.34666 6.81317 9.34666 6.92253 9.38224 7.02096C9.39593 7.0565 9.37403 7.10845 9.36856 7.15766C9.45614 7.22328 9.31108 7.31623 9.38224 7.39552V7.9724C9.39319 8.06809 9.39866 8.16378 9.39593 8.25947ZM8.31482 7.2014C8.36682 7.16586 8.35861 7.12212 8.34493 7.0647C8.32577 7.08111 8.30661 7.09478 8.28745 7.10845C8.29292 7.14126 8.30113 7.17133 8.31482 7.2014ZM8.29566 10.1104C8.30935 10.1459 8.32577 10.1815 8.37503 10.1678C8.36135 10.1432 8.34766 10.1159 8.33945 10.0885C8.32303 10.1022 8.30935 10.1022 8.29566 10.1104ZM9.4753 8.62856C9.50541 8.62036 9.5273 8.62036 9.56288 8.61489C9.53551 8.60122 9.50541 8.59029 9.4753 8.57935V8.62856ZM8.30113 7.03736L8.31482 7.05103C8.3285 7.05103 8.33672 7.04283 8.3504 7.04283C8.34766 7.02096 8.34219 6.99909 8.33672 6.97722C8.32303 7.00729 8.30935 7.02096 8.30113 7.03736ZM9.62857 8.62856C9.64499 8.62309 9.66141 8.62036 9.68057 8.62036C9.66141 8.60942 9.64499 8.59849 9.62857 8.58482V8.62856ZM9.85848 8.60669V8.61489H9.88584V8.60669H9.85848ZM9.11675 11.759V11.7672H9.14686V11.759H9.11675ZM10.009 8.17472V8.18292H10.0364V8.17472H10.009ZM8.1725 9.44877V9.45697H8.19987V9.44877H8.1725ZM8.28198 9.64835V9.65655H8.30935V9.64835H8.28198ZM8.32303 9.82333H8.31482V9.85067H8.32029L8.32303 9.82333Z" fill="white"/>
<path d="M7.1626 4.74626C7.19818 4.71071 7.23376 4.67517 7.30766 4.69704C7.24197 4.71892 7.20092 4.73259 7.1626 4.74626Z" fill="white"/>
<path d="M7.16277 4.74079C7.15455 4.74899 7.14908 4.75446 7.14908 4.76266L7.14087 4.75446C7.14087 4.74626 7.14908 4.74079 7.16277 4.74079Z" fill="white"/>
</svg>
